nimbus-sans-l_regular.sfdir

StartChar: exclam
Encoding: 33 33 2
Width: 278
Flags: MW
HStem: 0 21G<124 208 124 124> 709 20G<125 208 208 208>
VStem: 124 84<0 104 0 104>
LayerCount: 2
Fore
SplineSet
208 729 m 1
 208 391 l 1
 186 168 l 1
 147 168 l 1
 125 391 l 1
 125 729 l 1
 208 729 l 1
208 104 m 1
 208 0 l 1
 124 0 l 1
 124 104 l 1
 208 104 l 1
EndSplineSet
EndChar

StartChar: quotedbl
Encoding: 34 34 3
Width: 355
Flags: MW
HStem: 464 245<79 118 79 79 239 239 239 278>
VStem: 52 93<598 709 598 709> 212 93<598 709 598 709>
LayerCount: 2
Fore
SplineSet
52 709 m 1
 145 709 l 1
 145 598 l 1
 118 464 l 1
 79 464 l 1
 52 598 l 1
 52 709 l 1
212 709 m 1
 305 709 l 1
 305 598 l 1
 278 464 l 1
 239 464 l 1
 212 598 l 1
 212 709 l 1
EndSplineSet
EndChar

StartChar: numbersign
Encoding: 35 35 4
Width: 556
Flags: W
HStem: 191 68<14 115 14 128 204 316 14 192 405 510> 433 68<51 159 51 172 51 236 248 360 449 542> 433 264<51 284 51 284 236 236 236 284 208 360 436 485 208 542 436 436>
VStem: 51 491<433 501 433 501>
LayerCount: 2
Fore
SplineSet
485 697 m 1xb0
 449 501 l 1
 542 501 l 1xd0
 542 433 l 1
 436 433 l 1
 405 259 l 1
 510 259 l 1
 510 191 l 1
 393 191 l 1
 354 -20 l 1
 278 -20 l 1
 316 191 l 1
 192 191 l 1
 153 -20 l 1
 77 -20 l 1
 115 191 l 1
 14 191 l 1
 14 259 l 1
 128 259 l 1
 159 433 l 1
 51 433 l 1xb0
 51 501 l 1
 172 501 l 1xd0
 208 697 l 1
 284 697 l 1xb0
 248 501 l 1
 373 501 l 1xd0
 408 697 l 1
 485 697 l 1xb0
360 433 m 1
 236 433 l 1
 204 259 l 1
 329 259 l 1
 360 433 l 1
EndSplineSet
EndChar

StartChar: dollar
Encoding: 36 36 5
Width: 556
Flags: W
HStem: -126 896<243 302 243 302>
VStem: 46 81<495.5 559 495.5 573> 243 59<-126 -23 -126 -23 46 309 405 645 645 645 716 770> 417 79<519 576> 436 82<163.5 216>
LayerCount: 2
Fore
SplineSet
243 770 m 1xf0
 302 770 l 1
 302 716 l 1
 423 707 496 633 496 519 c 1
 417 519 l 1xf0
 416 592 369 643 302 646 c 1
 302 397 l 1
 394 369 407 364 433 349 c 0
 491 316 518 266 518 195 c 0xe8
 518 117 484 48 426 12 c 0
 393 -8 356 -19 302 -23 c 1
 302 -126 l 1
 243 -126 l 1
 243 -23 l 1
 102 -14 26 69 33 208 c 1
 112 208 l 1
 118 143 122 126 137 103 c 1
 160 72 198 52 243 46 c 1
 243 318 l 1
 170 340 143 351 117 370 c 0
 70 404 46 453 46 516 c 0
 46 630 115 700 243 716 c 1
 243 770 l 1xf0
243 405 m 1
 243 645 l 1
 169 635 127 592 127 526 c 0
 127 465 164 426 243 405 c 1
302 309 m 1
 302 46 l 1
 345 51 370 60 394 83 c 0
 421 109 436 144 436 183 c 0xe8
 436 249 404 279 302 309 c 1
EndSplineSet
EndChar

StartChar: percent
Encoding: 37 37 6
Width: 889
Flags: MW
HStem: -19 70<661 716.5 661 735> 252 70<660.5 716.5> 343 70<172 227.5 172 246.5> 615 70<171.5 227.5> 689 20G<609 675 675 675>
VStem: 29 69<486.5 542 486.5 561> 301 69<485.5 541.5> 518 69<124 179.5 124 198.5> 790 69<123 178.5>
LayerCount: 2
Fore
SplineSet
199 685 m 0
 295 685 370 609 370 512 c 0
 370 420 293 343 200 343 c 0
 106 343 29 420 29 514 c 0
 29 608 106 685 199 685 c 0
199 615 m 0
 144 615 98 570 98 514 c 0
 98 459 144 413 200 413 c 0
 255 413 301 458 301 513 c 0
 301 570 256 615 199 615 c 0
609 709 m 1
 675 709 l 1
 280 -20 l 1
 214 -20 l 1
 609 709 l 1
688 322 m 0
 784 322 859 246 859 150 c 0
 859 58 781 -19 689 -19 c 0
 595 -19 518 58 518 152 c 0
 518 245 595 322 688 322 c 0
688 252 m 0
 633 252 587 207 587 152 c 0
 587 96 633 51 689 51 c 0
 744 51 790 96 790 150 c 0
 790 207 745 252 688 252 c 0
EndSplineSet
EndChar

StartChar: ampersand
Encoding: 38 38 7
Width: 667
Flags: W
HStem: -23 78<231 281.5> 639 70<275 326>
VStem: 52 84<148 211 148 221.5> 133 82<535.5 579 535.5 596> 388 79<531.5 578.5>
LayerCount: 2
Fore
SplineSet
493 334 m 1xd8
 573 334 l 1
 573 274 552 208 515 151 c 1
 637 0 l 1
 528 0 l 1
 466 78 l 1
 428 41 410 26 389 13 c 0
 353 -10 306 -23 257 -23 c 0
 134 -23 52 56 52 176 c 0xe8
 52 267 90 317 214 389 c 1
 152 467 133 505 133 552 c 0
 133 640 209 709 304 709 c 0
 399 709 467 644 467 552 c 0
 467 480 433 437 329 378 c 1
 462 215 l 1
 482 250 494 298 493 334 c 1xd8
285 431 m 1
 363 480 388 509 388 554 c 0
 388 603 351 639 301 639 c 0
 249 639 215 605 215 553 c 0xd8
 215 518 224 501 285 431 c 1
418 137 m 1
 258 337 l 1
 167 279 136 239 136 183 c 0xe8
 136 113 195 55 267 55 c 0
 319 55 362 78 418 137 c 1
EndSplineSet
EndChar

StartChar: quotesingle
Encoding: 169 39 104
Width: 191
Flags: MW
HStem: 464 245<75 115 75 75>
VStem: 48 94<598 709 598 709>
LayerCount: 2
Fore
SplineSet
48 709 m 1
 142 709 l 1
 142 598 l 1
 115 464 l 1
 75 464 l 1
 48 598 l 1
 48 709 l 1
EndSplineSet
EndChar

StartChar: parenleft
Encoding: 40 40 9
Width: 333
Flags: MW
HStem: 709 20<236 291 291 291>
VStem: 73 81<180 337.5>
LayerCount: 2
Fore
SplineSet
236 729 m 1
 291 729 l 1
 203 587 154 418 154 259 c 0
 154 99 203 -69 291 -212 c 1
 236 -212 l 1
 136 -81 73 101 73 259 c 0
 73 416 136 598 236 729 c 1
EndSplineSet
EndChar

StartChar: parenright
Encoding: 41 41 10
Width: 333
Flags: MW
HStem: 709 20<38 93 93 93>
VStem: 175 81<179.5 337 179.5 338>
LayerCount: 2
Fore
SplineSet
93 -212 m 1
 38 -212 l 1
 126 -70 175 99 175 258 c 0
 175 418 126 586 38 729 c 1
 93 729 l 1
 193 598 256 416 256 258 c 0
 256 101 193 -81 93 -212 c 1
EndSplineSet
EndChar

StartChar: asterisk
Encoding: 42 42 11
Width: 389
Flags: MW
HStem: 709 20<160 223 223 223>
LayerCount: 2
Fore
SplineSet
160 729 m 1
 223 729 l 1
 218 617 l 1
 324 655 l 1
 343 596 l 1
 235 566 l 1
 305 477 l 1
 254 441 l 1
 192 534 l 1
 129 441 l 1
 79 477 l 1
 148 566 l 1
 40 596 l 1
 59 655 l 1
 165 617 l 1
 160 729 l 1
EndSplineSet
EndChar

StartChar: plus
Encoding: 43 43 12
Width: 584
Flags: MW
HStem: 197 70<50 257 50 257 327 534>
VStem: 257 70<-10 197 -10 197 267 474>
LayerCount: 2
Fore
SplineSet
534 267 m 1
 534 197 l 1
 327 197 l 1
 327 -10 l 1
 257 -10 l 1
 257 197 l 1
 50 197 l 1
 50 267 l 1
 257 267 l 1
 257 474 l 1
 327 474 l 1
 327 267 l 1
 534 267 l 1
EndSplineSet
EndChar

StartChar: comma
Encoding: 44 44 13
Width: 278
Flags: W
HStem: -147 38<87 122> 0 104<87 147 87 192>
VStem: 87 105<-147 -16 -109 -16 0 104> 147 45<-18 -16 -16 0 0 0>
LayerCount: 2
Fore
SplineSet
87 104 m 1xf0
 192 104 l 1
 192 -16 l 2
 192 -102 157 -147 87 -147 c 1
 87 -109 l 1
 134 -107 147 -87 147 -18 c 2
 147 0 l 1
 87 0 l 1
 87 104 l 1xf0
EndSplineSet
EndChar

StartChar: hyphen
Encoding: 45 45 14
Width: 333
Flags: MW
HStem: 240 72<46 284 46 284>
VStem: 46 238<240 312 240 312>
LayerCount: 2
Fore
SplineSet
284 312 m 1
 284 240 l 1
 46 240 l 1
 46 312 l 1
 284 312 l 1
EndSplineSet
EndChar

StartChar: period
Encoding: 46 46 15
Width: 278
Flags: MW
HStem: 0 104<87 191 87 191>
VStem: 87 104<0 104 0 104>
LayerCount: 2
Fore
SplineSet
191 104 m 1
 191 0 l 1
 87 0 l 1
 87 104 l 1
 191 104 l 1
EndSplineSet
EndChar

StartChar: slash
Encoding: 47 47 16
Width: 278
Flags: MW
HStem: 709 20<229 284 284 284>
LayerCount: 2
Fore
SplineSet
229 729 m 1
 284 729 l 1
 47 -20 l 1
 -8 -20 l 1
 229 729 l 1
EndSplineSet
EndChar

StartChar: zero
Encoding: 48 48 17
Width: 556
Flags: MW
HStem: -23 73<226.5 322 226.5 350> 631 78<242 308.5 242 322.5>
VStem: 43 90<245 408.5> 417 90<244.5 406 220.5 440>
LayerCount: 2
Fore
SplineSet
275 709 m 0
 342 709 401 681 438 631 c 0
 485 567 507 475 507 337 c 0
 507 104 425 -23 275 -23 c 0
 123 -23 43 104 43 343 c 0
 43 474 66 569 112 631 c 0
 149 680 209 709 275 709 c 0
275 631 m 0
 180 631 133 536 133 342 c 0
 133 148 180 50 273 50 c 0
 371 50 417 144 417 345 c 0
 417 535 370 631 275 631 c 0
EndSplineSet
EndChar

StartChar: one
Encoding: 49 49 18
Width: 556
Flags: MW
HStem: 0 709<289 347 289 347 259 347>
VStem: 259 88<0 505 505 505>
LayerCount: 2
Fore
SplineSet
259 505 m 1
 102 505 l 1
 102 568 l 1
 238 585 258 600 289 709 c 1
 347 709 l 1
 347 0 l 1
 259 0 l 1
 259 505 l 1
EndSplineSet
EndChar

StartChar: two
Encoding: 50 50 19
Width: 556
Flags: MW
HStem: 0 87<133 506 133 506> 632 77<254.5 317.5 239 321>
VStem: 421 90<471 530.5 457.5 537>
LayerCount: 2
Fore
SplineSet
506 87 m 1
 506 0 l 1
 34 0 l 1
 42 156 85 223 233 307 c 2
 325 359 l 2
 388 395 421 443 421 499 c 0
 421 575 361 632 281 632 c 0
 228 632 182 606 159 563 c 0
 147 540 141 511 138 463 c 1
 50 463 l 1
 52 535 63 579 88 617 c 0
 127 677 194 709 284 709 c 0
 351 709 403 691 445 653 c 0
 487 615 511 560 511 501 c 0
 511 414 460 341 361 287 c 2
 261 233 l 1
 174 182 142 145 133 87 c 1
 506 87 l 1
EndSplineSet
EndChar

StartChar: three
Encoding: 51 51 20
Width: 556
Flags: W
HStem: -23 78<221 315 221 339> 325 75<221 221 221 232> 632 77<242.5 309>
VStem: 395 90<486 548.5> 416 90<152.5 239.5>
LayerCount: 2
Fore
SplineSet
221 325 m 1xe8
 221 400 l 1
 283 401 314 405 338 415 c 0
 377 431 395 461 395 511 c 0
 395 586 348 632 270 632 c 0
 215 632 171 608 151 569 c 0
 140 547 136 523 135 480 c 1
 47 480 l 1
 50 631 126 709 269 709 c 0
 404 709 485 636 485 514 c 0xf0
 485 443 452 393 386 367 c 1
 471 338 506 288 506 198 c 0
 506 64 412 -23 266 -23 c 0
 169 -23 99 12 63 80 c 0
 46 112 36 149 32 206 c 1
 120 206 l 1
 126 103 173 55 269 55 c 0
 361 55 416 108 416 197 c 0
 416 282 366 326 269 326 c 1
 232 325 l 1
 221 325 l 1xe8
EndSplineSet
EndChar

StartChar: four
Encoding: 52 52 21
Width: 556
Flags: MW
HStem: 0 21<327 415 327 327> 170 79<105 327 105 327 28 327 415 520> 689 20<350 415 415 415>
VStem: 327 88<0 170 0 170 249 559 559 559>
LayerCount: 2
Fore
SplineSet
327 170 m 1
 28 170 l 1
 28 263 l 1
 350 709 l 1
 415 709 l 1
 415 249 l 1
 520 249 l 1
 520 170 l 1
 415 170 l 1
 415 0 l 1
 327 0 l 1
 327 170 l 1
327 249 m 1
 327 559 l 1
 105 249 l 1
 327 249 l 1
EndSplineSet
EndChar

StartChar: five
Encoding: 53 53 22
Width: 556
Flags: MW
HStem: -23 78<230 316 229.5 341.5> 389 78<259 315.5> 622 87<181 476 181 181>
VStem: 423 90<168 271.5>
LayerCount: 2
Fore
SplineSet
476 709 m 1
 476 622 l 1
 181 622 l 1
 153 424 l 1
 194 454 234 467 284 467 c 0
 420 467 513 371 513 231 c 0
 513 81 413 -23 270 -23 c 0
 190 -23 118 8 78 62 c 1
 57 88 47 116 35 174 c 1
 123 174 l 1
 144 94 191 55 268 55 c 0
 364 55 423 117 423 219 c 0
 423 324 363 389 268 389 c 0
 213 389 179 372 138 323 c 1
 57 323 l 1
 110 709 l 1
 476 709 l 1
EndSplineSet
EndChar

StartChar: six
Encoding: 54 54 23
Width: 556
Flags: MW
HStem: -23 78<242 322.5 241 348.5> 363 78<261 327.5> 524 21<410 498 410 410> 631 78<258 322>
VStem: 44 89 423 90<164.5 256.5>
LayerCount: 2
Fore
SplineSet
498 524 m 1
 410 524 l 1
 396 592 353 631 291 631 c 0
 190 631 134 535 133 362 c 1
 171 414 226 441 296 441 c 0
 423 441 513 348 513 216 c 0
 513 77 416 -23 281 -23 c 0
 203 -23 141 8 103 65 c 0
 61 128 43 204 43 323 c 0
 43 452 63 539 107 608 c 1
 149 671 219 709 297 709 c 0
 405 709 481 640 498 524 c 1
285 363 m 0
 198 363 138 302 138 214 c 0
 138 123 200 55 282 55 c 0
 363 55 423 120 423 209 c 0
 423 304 370 363 285 363 c 0
EndSplineSet
EndChar

StartChar: seven
Encoding: 55 55 24
Width: 556
Flags: MW
HStem: 0 21<138 232 138 138> 622 87<46 429 46 520>
VStem: 46 474<635 709 635 709 635 709>
LayerCount: 2
Fore
SplineSet
520 709 m 1
 520 635 l 1
 360 422 271 227 232 0 c 1
 138 0 l 1
 191 233 260 381 429 622 c 1
 46 622 l 1
 46 709 l 1
 520 709 l 1
EndSplineSet
EndChar

StartChar: eight
Encoding: 56 56 25
Width: 556
Flags: W
HStem: -23 78<230 318 230 345> 334 74<238 312 238 319> 631 78<238 312.5>
VStem: 37 90<153.5 236> 62 90<487 553 485.5 575.5> 398 90<486.5 552.5> 423 90<153 235.5 131.5 236.5>
LayerCount: 2
Fore
SplineSet
391 373 m 1xec
 473 334 513 275 513 196 c 0
 513 67 415 -23 275 -23 c 0
 135 -23 37 67 37 197 c 0xf2
 37 275 77 334 158 373 c 1
 86 418 62 454 62 520 c 0
 62 631 150 709 275 709 c 0
 401 709 488 631 488 520 c 0
 488 453 464 417 391 373 c 1xec
275 631 m 0
 201 631 152 587 152 519 c 0
 152 452 201 408 275 408 c 0
 349 408 398 452 398 518 c 0
 398 587 350 631 275 631 c 0
275 334 m 0
 187 334 127 278 127 195 c 0
 127 112 187 55 273 55 c 0
 363 55 423 111 423 195 c 0xf2
 423 278 363 334 275 334 c 0
EndSplineSet
EndChar

StartChar: nine
Encoding: 57 57 26
Width: 556
Flags: MW
HStem: -23 78<229 293> 245 78<223.5 289.5> 632 77<228.5 309 202.5 310>
VStem: 38 90<429.5 522 429.5 539.5> 418 90
LayerCount: 2
Fore
SplineSet
53 162 m 1
 141 162 l 1
 155 94 198 55 260 55 c 0
 361 55 417 151 418 324 c 1
 372 269 323 245 256 245 c 0
 128 245 38 338 38 470 c 0
 38 609 135 709 270 709 c 0
 348 709 410 678 449 621 c 0
 491 558 509 482 509 363 c 0
 509 234 489 147 444 78 c 0
 403 15 332 -23 254 -23 c 0
 146 -23 70 46 53 162 c 1
269 632 m 0
 188 632 128 567 128 477 c 0
 128 382 181 323 266 323 c 0
 352 323 413 385 413 472 c 0
 413 564 351 632 269 632 c 0
EndSplineSet
EndChar

StartChar: colon
Encoding: 58 58 27
Width: 278
Flags: MW
HStem: 0 104<110 214 110 214> 420 104<110 214 110 214>
VStem: 110 104<0 104 0 104 420 524>
LayerCount: 2
Fore
SplineSet
214 104 m 1
 214 0 l 1
 110 0 l 1
 110 104 l 1
 214 104 l 1
214 524 m 1
 214 420 l 1
 110 420 l 1
 110 524 l 1
 214 524 l 1
EndSplineSet
EndChar

StartChar: semicolon
Encoding: 59 59 28
Width: 278
Flags: W
HStem: -147 38<110 145> 0 104<110 170 110 215> 420 104<111 215 111 215>
VStem: 110 105<-147 -16 -109 -16 0 104> 170 45<-18 -16 -16 0 0 0>
LayerCount: 2
Fore
SplineSet
215 524 m 1xf8
 215 420 l 1
 111 420 l 1
 111 524 l 1
 215 524 l 1xf8
110 104 m 1
 215 104 l 1
 215 -16 l 2
 215 -102 180 -147 110 -147 c 1
 110 -109 l 1
 157 -107 170 -87 170 -18 c 2
 170 0 l 1
 110 0 l 1
 110 104 l 1
EndSplineSet
EndChar

StartChar: less
Encoding: 60 60 29
Width: 584
Flags: W
LayerCount: 2
Fore
SplineSet
45 198 m 1
 45 267 l 1
 534 474 l 1
 534 395 l 1
 140 234 l 1
 534 70 l 1
 534 -9 l 1
 45 198 l 1
EndSplineSet
EndChar

StartChar: equal
Encoding: 61 61 30
Width: 584
Flags: MW
HStem: 111 70<50 534 50 534> 283 70<50 534 50 534>
VStem: 50 484<111 181 111 181 283 353 111 353>
LayerCount: 2
Fore
SplineSet
534 353 m 1
 534 283 l 1
 50 283 l 1
 50 353 l 1
 534 353 l 1
534 181 m 1
 534 111 l 1
 50 111 l 1
 50 181 l 1
 534 181 l 1
EndSplineSet
EndChar

StartChar: greater
Encoding: 62 62 31
Width: 584
Flags: W
LayerCount: 2
Fore
SplineSet
539 267 m 1
 539 198 l 1
 50 -9 l 1
 50 70 l 1
 444 231 l 1
 50 395 l 1
 50 474 l 1
 539 267 l 1
EndSplineSet
EndChar

StartChar: question
Encoding: 63 63 32
Width: 556
Flags: MW
HStem: 0 104<240 330 240 330> 663 78<264.5 329.5>
VStem: 77 85<507 530 507 584> 240 90<0 104 0 104 199 246> 419 90<526 583>
LayerCount: 2
Fore
SplineSet
330 199 m 1
 240 199 l 1
 240 254 l 2
 240 290 247 313 268 341 c 0
 285 364 285 364 344 417 c 0
 397 464 419 503 419 549 c 0
 419 617 368 663 291 663 c 0
 238 663 198 642 179 605 c 0
 167 581 162 553 162 507 c 1
 77 507 l 1
 77 661 152 741 296 741 c 0
 426 741 509 666 509 549 c 0
 509 483 484 438 409 370 c 0
 341 307 330 290 330 246 c 2
 330 199 l 1
330 104 m 1
 330 0 l 1
 240 0 l 1
 240 104 l 1
 330 104 l 1
EndSplineSet
EndChar

StartChar: at
Encoding: 64 64 33
Width: 1015
Flags: MW
HStem: -142 77<388 521 388 526> 57 70<682.5 716> 458 64<473 543> 664 77<465.5 607.5>
VStem: 34 85<177.5 323.5> 264 90<211 300 211 317.5> 864 87<330 440.5>
LayerCount: 2
Fore
SplineSet
665 501 m 1
 748 501 l 1
 658 221 l 2
 650 198 646 180 646 171 c 0
 646 147 669 127 696 127 c 0
 781 127 864 240 864 357 c 0
 864 524 703 664 512 664 c 0
 301 664 119 483 119 273 c 0
 119 82 282 -65 494 -65 c 0
 548 -65 605 -56 687 -33 c 1
 715 -100 l 1
 643 -127 563 -142 489 -142 c 0
 236 -142 34 36 34 258 c 0
 34 389 94 523 192 612 c 0
 280 692 406 741 525 741 c 0
 758 741 951 572 951 369 c 0
 951 291 920 210 865 146 c 0
 814 86 753 57 679 57 c 0
 616 57 578 83 569 134 c 1
 523 84 480 62 427 62 c 0
 334 62 264 141 264 245 c 0
 264 390 387 522 521 522 c 0
 576 522 618 492 643 435 c 1
 665 501 l 1
515 458 m 0
 431 458 354 356 354 244 c 0
 354 178 398 126 453 126 c 0
 490 126 527 150 555 191 c 0
 580 228 607 312 609 362 c 0
 612 416 571 458 515 458 c 0
EndSplineSet
EndChar

StartChar: B
Encoding: 66 66 35
Width: 667
Flags: W
HStem: 0 82<172 399 399 408> 333 82<172 352 352 378 172 399 172 352> 647 82<172 352 172 172>
VStem: 79 93<82 82 82 333 415 647> 498 93<511.5 551> 530 93<189.5 225>
LayerCount: 2
Fore
SplineSet
79 0 m 1xf4
 79 729 l 1
 375 729 l 2
 445 729 495 713 533 678 c 0
 571 644 591 597 591 544 c 0xf8
 591 470 556 416 490 385 c 1
 583 349 623 296 623 208 c 0
 623 151 603 99 567 61 c 0
 528 19 477 0 408 0 c 2
 79 0 l 1xf4
172 415 m 1
 352 415 l 2
 404 415 433 422 458 441 c 0
 484 461 498 492 498 531 c 0
 498 571 484 601 458 621 c 0
 433 640 404 647 352 647 c 2
 172 647 l 1
 172 415 l 1
172 82 m 1
 399 82 l 2
 444 82 474 93 496 117 c 0
 518 140 530 172 530 207 c 0xf4
 530 243 518 275 496 298 c 0
 474 322 444 333 399 333 c 2
 172 333 l 1
 172 82 l 1
EndSplineSet
EndChar

StartChar: C
Encoding: 67 67 36
Width: 722
Flags: MW
HStem: -23 82<329.5 417 305.5 466> 659 82<332 399.5>
VStem: 48 93<296 415>
LayerCount: 2
Fore
SplineSet
662 503 m 1
 567 503 l 1
 556 557 541 588 514 613 c 0
 484 641 429 659 370 659 c 0
 229 659 141 544 141 357 c 0
 141 175 233 59 378 59 c 0
 456 59 518 93 548 153 c 0
 563 182 573 216 581 266 c 1
 677 266 l 1
 655 73 555 -23 377 -23 c 0
 282 -23 210 4 154 62 c 0
 85 133 48 236 48 356 c 0
 48 474 84 578 150 650 c 0
 204 710 283 741 381 741 c 0
 541 741 633 663 662 503 c 1
EndSplineSet
EndChar

StartChar: D
Encoding: 68 68 37
Width: 722
Flags: MW
HStem: 0 82<182 354 354 370> 647 82<182 354 182 182>
VStem: 89 93<82 82 82 647> 574 93<272 457>
LayerCount: 2
Fore
SplineSet
89 0 m 1
 89 729 l 1
 370 729 l 2
 555 729 667 591 667 365 c 0
 667 138 554 0 370 0 c 2
 89 0 l 1
182 82 m 1
 354 82 l 2
 498 82 574 180 574 364 c 0
 574 550 498 647 354 647 c 2
 182 647 l 1
 182 82 l 1
EndSplineSet
EndChar

StartChar: F
Encoding: 70 70 39
Width: 611
Flags: W
HStem: 0 21<90 183 90 90> 332 82<183 531 183 531> 647 82<183 579 183 183>
VStem: 90 93<0 332 0 414 414 647> 90 489<647 729 647 729 647 729>
LayerCount: 2
Fore
SplineSet
183 332 m 1xf8
 183 0 l 1
 90 0 l 1
 90 729 l 1
 579 729 l 1
 579 647 l 1
 183 647 l 1
 183 414 l 1
 531 414 l 1
 531 332 l 1
 183 332 l 1xf8
EndSplineSet
EndChar

StartChar: G
Encoding: 71 71 40
Width: 778
Flags: W
HStem: -23 82<361 427.5> 303 82<405 627 405 709> 659 82<349.5 448.5>
VStem: 44 93<317 422.5> 405 304<303 385 -4 385> 627 82<93 93 283 303 303 303>
LayerCount: 2
Fore
SplineSet
709 385 m 1xfc
 709 -4 l 1
 650 -4 l 1
 627 93 l 1
 556 14 477 -23 378 -23 c 0
 181 -23 44 133 44 357 c 0
 44 488 92 601 176 671 c 0
 233 718 305 741 394 741 c 0
 561 741 673 656 699 508 c 1
 604 508 l 1
 584 602 504 659 393 659 c 0
 239 659 137 541 137 362 c 0
 137 272 166 185 214 133 c 0
 257 86 324 59 398 59 c 0
 531 59 627 153 627 283 c 2
 627 303 l 1
 405 303 l 1
 405 385 l 1
 709 385 l 1xfc
EndSplineSet
EndChar

StartChar: H
Encoding: 72 72 41
Width: 722
Flags: MW
HStem: 0 21G<83 177 83 83 551 551 551 644> 332 82<177 551 177 177> 709 20G<83 176 176 176 551 644 644 644>
VStem: 83 93<414 729 414 729 414 729> 551 93<0 332 332 332 414 729 0 729>
LayerCount: 2
Fore
SplineSet
551 332 m 1
 177 332 l 1
 177 0 l 1
 83 0 l 1
 83 729 l 1
 176 729 l 1
 176 414 l 1
 551 414 l 1
 551 729 l 1
 644 729 l 1
 644 0 l 1
 551 0 l 1
 551 332 l 1
EndSplineSet
EndChar

StartChar: I
Encoding: 73 73 42
Width: 278
Flags: MW
HStem: 0 21<100 194 100 100> 709 20<100 194 194 194>
VStem: 100 94<0 729 0 729>
LayerCount: 2
Fore
SplineSet
194 729 m 1
 194 0 l 1
 100 0 l 1
 100 729 l 1
 194 729 l 1
EndSplineSet
EndChar

StartChar: J
Encoding: 74 74 43
Width: 500
Flags: MW
HStem: -23 78<186 239.5 186 283.5> 709 20<333 426 426 426>
VStem: 17 95<170 187 187 234 144.5 234> 333 93<216 729>
LayerCount: 2
Fore
SplineSet
333 729 m 1
 426 729 l 1
 426 182 l 2
 426 56 347 -23 220 -23 c 0
 95 -23 17 52 17 170 c 2
 17 234 l 1
 112 234 l 1
 112 187 l 2
 112 102 151 55 221 55 c 0
 258 55 292 72 310 100 c 0
 327 125 333 158 333 216 c 2
 333 729 l 1
EndSplineSet
EndChar

StartChar: K
Encoding: 75 75 44
Width: 667
Flags: MW
HStem: 0 21<79 172 79 79 548 548 548 658> 709 20<79 172 172 172 535 655 655 655>
VStem: 79 93<0 255 360 729>
LayerCount: 2
Fore
SplineSet
172 255 m 1
 172 0 l 1
 79 0 l 1
 79 729 l 1
 172 729 l 1
 172 360 l 1
 535 729 l 1
 655 729 l 1
 358 432 l 1
 658 0 l 1
 548 0 l 1
 291 374 l 1
 172 255 l 1
EndSplineSet
EndChar

StartChar: L
Encoding: 76 76 45
Width: 556
Flags: W
HStem: 0 82<173 533 173 533> 709 20<80 173 173 173>
VStem: 80 93<82 729 82 729 82 729> 80 453<0 82 0 729>
LayerCount: 2
Fore
SplineSet
173 729 m 1xe0
 173 82 l 1xe0
 533 82 l 1
 533 0 l 1
 80 0 l 1
 80 729 l 1xd0
 173 729 l 1xe0
EndSplineSet
EndChar

StartChar: M
Encoding: 77 77 46
Width: 833
Flags: MW
HStem: 0 21<75 163 75 75 370 468 370 370 673 673 673 761> 709 20<75 204 204 204 632 761 761 761>
VStem: 75 88<0 611 0 729> 673 88<0 611 611 611>
LayerCount: 2
Fore
SplineSet
468 0 m 1
 370 0 l 1
 163 611 l 1
 163 0 l 1
 75 0 l 1
 75 729 l 1
 204 729 l 1
 420 94 l 1
 632 729 l 1
 761 729 l 1
 761 0 l 1
 673 0 l 1
 673 611 l 1
 468 0 l 1
EndSplineSet
EndChar

StartChar: N
Encoding: 78 78 47
Width: 722
Flags: MW
HStem: 0 21<76 164 76 76 541 646 541 541> 709 20<76 177 177 177 558 646 646 646>
VStem: 76 88<0 591 0 729> 558 88<133 729 0 729>
LayerCount: 2
Fore
SplineSet
646 729 m 1
 646 0 l 1
 541 0 l 1
 164 591 l 1
 164 0 l 1
 76 0 l 1
 76 729 l 1
 177 729 l 1
 558 133 l 1
 558 729 l 1
 646 729 l 1
EndSplineSet
EndChar

StartChar: P
Encoding: 80 80 49
Width: 667
Flags: MW
HStem: 0 21<91 184 91 91> 309 82<184 378 184 378 378 413> 647 82<184 378 184 184>
VStem: 91 93<0 309 391 647> 520 97<481.5 559>
LayerCount: 2
Fore
SplineSet
184 309 m 1
 184 0 l 1
 91 0 l 1
 91 729 l 1
 392 729 l 2
 536 729 617 652 617 515 c 0
 617 448 598 401 554 361 c 0
 515 326 470 309 413 309 c 2
 184 309 l 1
184 391 m 1
 378 391 l 2
 467 391 520 439 520 519 c 0
 520 599 467 647 378 647 c 2
 184 647 l 1
 184 391 l 1
EndSplineSet
EndChar

StartChar: Q
Encoding: 81 81 50
Width: 778
Flags: MW
HStem: -23 82<311.5 411 311.5 426> 659 82<312.5 467.5>
VStem: 38 93<269 449 269 473> 649 93<313 449.5>
LayerCount: 2
Fore
SplineSet
733 -1 m 1
 686 -59 l 1
 581 28 l 1
 522 -7 462 -23 390 -23 c 0
 180 -23 38 131 38 359 c 0
 38 587 180 741 390 741 c 0
 600 741 742 587 742 361 c 0
 742 246 708 152 639 76 c 1
 733 -1 l 1
481 205 m 1
 570 132 l 1
 624 193 649 266 649 360 c 0
 649 539 545 659 390 659 c 0
 235 659 131 539 131 359 c 0
 131 179 234 59 389 59 c 0
 433 59 466 67 509 87 c 1
 435 149 l 1
 481 205 l 1
EndSplineSet
EndChar

StartChar: R
Encoding: 82 82 51
Width: 722
Flags: W
HStem: 0 21<93 186 93 93 566 566 566 679> 314 82<186 411 186 411 411 426> 647 82<186 411 186 186>
VStem: 93 93<0 314 396 647> 546 89 554 97<492.5 543>
LayerCount: 2
Fore
SplineSet
186 314 m 1xf4
 186 0 l 1
 93 0 l 1
 93 729 l 1
 429 729 l 2
 572 729 651 660 651 534 c 0xf4
 651 451 618 400 536 360 c 1
 615 326 634 290 635 170 c 1
 637 73 644 47 679 23 c 1
 679 0 l 1
 566 0 l 1
 553 30 545 74 545 119 c 2
 546 184 l 1xf8
 546 274 509 314 426 314 c 2
 186 314 l 1xf4
186 396 m 1
 411 396 l 2
 510 396 554 435 554 521 c 0
 554 565 541 598 516 619 c 0
 493 639 463 647 411 647 c 2
 186 647 l 1
 186 396 l 1
EndSplineSet
EndChar

StartChar: T
Encoding: 84 84 53
Width: 611
Flags: MW
HStem: 0 21<261 354 261 261> 647 82<21 261 21 593 354 593 354 354>
VStem: 261 93<0 647 0 647>
LayerCount: 2
Fore
SplineSet
354 647 m 1
 354 0 l 1
 261 0 l 1
 261 647 l 1
 21 647 l 1
 21 729 l 1
 593 729 l 1
 593 647 l 1
 354 647 l 1
EndSplineSet
EndChar

StartChar: V
Encoding: 86 86 55
Width: 667
Flags: MW
HStem: 0 21<292 392 292 292> 709 20<30 130 130 130 546 645 645 645>
LayerCount: 2
Fore
SplineSet
392 0 m 1
 292 0 l 1
 30 729 l 1
 130 729 l 1
 344 112 l 1
 546 729 l 1
 645 729 l 1
 392 0 l 1
EndSplineSet
EndChar

StartChar: W
Encoding: 87 87 56
Width: 944
Flags: MW
HStem: 0 21<209 311 209 209 642 744 642 642> 709 20<22 126 126 126 425 525 525 525 825 929 929 929>
LayerCount: 2
Fore
SplineSet
744 0 m 1
 642 0 l 1
 474 599 l 1
 311 0 l 1
 209 0 l 1
 22 729 l 1
 126 729 l 1
 263 137 l 1
 425 729 l 1
 525 729 l 1
 691 137 l 1
 825 729 l 1
 929 729 l 1
 744 0 l 1
EndSplineSet
EndChar

StartChar: X
Encoding: 88 88 57
Width: 667
Flags: MW
HStem: 0 21<22 135 22 22 534 649 534 534> 709 20<38 151 151 151 526 637 637 637>
LayerCount: 2
Fore
SplineSet
391 374 m 1
 649 0 l 1
 534 0 l 1
 335 304 l 1
 135 0 l 1
 22 0 l 1
 280 374 l 1
 38 729 l 1
 151 729 l 1
 338 443 l 1
 526 729 l 1
 637 729 l 1
 391 374 l 1
EndSplineSet
EndChar

StartChar: Y
Encoding: 89 89 58
Width: 667
Flags: MW
HStem: 0 21<294 387 294 294> 709 20<13 128 128 128 550 661 661 661>
VStem: 294 93<0 286 0 286>
LayerCount: 2
Fore
SplineSet
387 286 m 1
 387 0 l 1
 294 0 l 1
 294 286 l 1
 13 729 l 1
 128 729 l 1
 342 374 l 1
 550 729 l 1
 661 729 l 1
 387 286 l 1
EndSplineSet
EndChar

StartChar: bracketleft
Encoding: 91 91 60
Width: 278
Flags: W
HStem: -212 72<147 250 147 250> 657 72<147 250 147 147>
VStem: 64 83<-140 657 -140 729 -140 729> 64 186<-212 -140 657 729>
LayerCount: 2
Fore
SplineSet
250 729 m 1xf0
 250 657 l 1
 147 657 l 1
 147 -140 l 1
 250 -140 l 1
 250 -212 l 1
 64 -212 l 1
 64 729 l 1
 250 729 l 1xf0
EndSplineSet
EndChar

StartChar: backslash
Encoding: 92 92 61
Width: 278
Flags: MW
HStem: 709 20<-8 47 47 47>
LayerCount: 2
Fore
SplineSet
47 729 m 1
 284 -20 l 1
 229 -20 l 1
 -8 729 l 1
 47 729 l 1
EndSplineSet
EndChar

StartChar: bracketright
Encoding: 93 93 62
Width: 278
Flags: MW
HStem: -212 72<23 126 23 126 23 209> 657 72<23 126 23 209>
VStem: 126 83<-140 657 657 657>
LayerCount: 2
Fore
SplineSet
23 -212 m 1
 23 -140 l 1
 126 -140 l 1
 126 657 l 1
 23 657 l 1
 23 729 l 1
 209 729 l 1
 209 -212 l 1
 23 -212 l 1
EndSplineSet
EndChar

StartChar: asciicircum
Encoding: 94 94 63
Width: 469
Flags: MW
HStem: 689 20G<197 270 270 270>
LayerCount: 2
Fore
SplineSet
197 709 m 1
 270 709 l 1
 425 329 l 1
 356 329 l 1
 234 629 l 1
 113 329 l 1
 44 329 l 1
 197 709 l 1
EndSplineSet
EndChar

StartChar: underscore
Encoding: 95 95 64
Width: 556
Flags: MW
HStem: -176 50<-22 578 -22 578>
VStem: -22 600<-176 -126 -176 -126>
LayerCount: 2
Fore
SplineSet
578 -126 m 1
 578 -176 l 1
 -22 -176 l 1
 -22 -126 l 1
 578 -126 l 1
EndSplineSet
EndChar

StartChar: grave
Encoding: 193 96 124
Width: 333
Flags: MW
HStem: 720 20<22 135 135 135>
LayerCount: 2
Fore
SplineSet
135 740 m 1
 231 592 l 1
 171 592 l 1
 22 740 l 1
 135 740 l 1
EndSplineSet
EndChar

StartChar: b
Encoding: 98 98 67
Width: 556
Flags: W
HStem: -23 78<258.5 328.5 239 364> 0 21<54 129 54 54> 461 78<263 329.5> 709 20<54 137 137 137>
VStem: 54 75<0 67 0 729> 54 83<196.5 319.5 453 729> 436 87<195.5 317.5>
LayerCount: 2
Fore
SplineSet
54 729 m 1x76
 137 729 l 1
 137 453 l 1
 176 512 227 539 299 539 c 0
 437 539 523 434 523 264 c 0
 523 90 433 -23 295 -23 c 0xb6
 222 -23 169 6 129 67 c 1
 129 0 l 1x7a
 54 0 l 1
 54 729 l 1x76
283 461 m 0
 195 461 137 381 137 258 c 0
 137 135 195 55 283 55 c 0
 374 55 436 136 436 255 c 0
 436 380 376 461 283 461 c 0
EndSplineSet
EndChar

StartChar: c
Encoding: 99 99 68
Width: 500
Flags: MW
HStem: -23 77<219 300.5 219 325.5> 462 77<217.5 298>
VStem: 31 87<191 318.5 191 340>
LayerCount: 2
Fore
SplineSet
471 348 m 1
 387 348 l 1
 377 421 333 462 263 462 c 0
 172 462 118 384 118 253 c 0
 118 129 173 54 265 54 c 0
 336 54 379 96 393 180 c 1
 477 180 l 1
 467 52 388 -23 263 -23 c 0
 121 -23 31 84 31 253 c 0
 31 427 123 539 264 539 c 0
 337 539 400 510 436 461 c 1
 456 432 467 399 471 348 c 1
EndSplineSet
EndChar

StartChar: d
Encoding: 100 100 69
Width: 556
Flags: W
HStem: -23 78<220 290> 0 21<421 495 421 421> 461 78<219.5 286 183 310> 709 20<412 495 495 495>
VStem: 26 87<197 319 197 346.5> 412 83<195.5 318.5 458 729 0 729> 421 74<0 69 69 69>
LayerCount: 2
Fore
SplineSet
495 729 m 1x7a
 495 0 l 1
 421 0 l 1
 421 69 l 1x7a
 376 4 326 -23 254 -23 c 0
 113 -23 26 86 26 263 c 0
 26 430 115 539 251 539 c 0
 321 539 377 511 412 458 c 1
 412 729 l 1xbc
 495 729 l 1x7a
265 461 m 0
 174 461 113 380 113 258 c 0
 113 136 174 55 266 55 c 0
 354 55 412 135 412 256 c 0xbc
 412 381 355 461 265 461 c 0
EndSplineSet
EndChar

StartChar: f
Encoding: 102 102 71
Width: 278
Flags: W
HStem: 0 21<88 171 88 88> 456 68<18 88 18 88 171 258> 659 73<210 219.5 172.5 232.5>
VStem: 18 240<456 524 456 524> 88 83<0 456 0 456 524 606>
LayerCount: 2
Fore
SplineSet
258 524 m 1xf8
 258 456 l 1
 171 456 l 1
 171 0 l 1
 88 0 l 1
 88 456 l 1
 18 456 l 1
 18 524 l 1
 88 524 l 1
 88 613 l 2
 88 688 134 732 211 732 c 0
 228 732 239 731 258 727 c 1
 258 658 l 1
 239 659 236 659 229 659 c 0
 191 659 171 641 171 606 c 2
 171 524 l 1
 258 524 l 1xf8
EndSplineSet
EndChar

StartChar: g
Encoding: 103 103 72
Width: 556
Flags: W
HStem: -218 70<239 283.5 239 294> -23 77<217.5 278> 462 77<216.5 285.5 185.5 306> 504 20<412 489 489 489>
VStem: 29 87<210 321 194.5 338> 404 84 412 77<448 524>
LayerCount: 2
Fore
SplineSet
412 524 m 1xda
 489 524 l 1
 489 86 l 2xda
 489 -37 474 -103 434 -151 c 0
 400 -193 333 -218 255 -218 c 0
 132 -218 55 -159 46 -60 c 1
 131 -60 l 1
 136 -91 144 -105 163 -120 c 0
 186 -138 220 -148 258 -148 c 0
 309 -148 352 -130 374 -99 c 0
 395 -70 404 -27 404 44 c 2
 404 71 l 1
 357 5 311 -23 245 -23 c 0
 190 -23 134 3 95 47 c 0
 52 97 29 167 29 253 c 0
 29 423 119 539 252 539 c 0xec
 319 539 370 510 412 448 c 1
 412 524 l 1xda
261 462 m 0xec
 172 462 116 384 116 258 c 0
 116 131 171 54 262 54 c 0
 350 54 404 130 404 255 c 0
 404 386 351 462 261 462 c 0xec
EndSplineSet
EndChar

StartChar: h
Encoding: 104 104 73
Width: 556
Flags: MW
HStem: 0 21<70 153 70 70 403 486 403 403> 466 72 709 20<70 153 153 153>
VStem: 70 83<0 289 452 729> 403 83<0 363 363 381.5>
LayerCount: 2
Fore
SplineSet
70 729 m 1
 153 729 l 1
 153 452 l 1
 202 516 247 539 321 539 c 0
 423 539 486 484 486 396 c 2
 486 0 l 1
 403 0 l 1
 403 363 l 2
 403 400 393 425 369 442 c 0
 349 457 322 466 295 466 c 0
 209 466 153 396 153 289 c 2
 153 0 l 1
 70 0 l 1
 70 729 l 1
EndSplineSet
EndChar

StartChar: i
Encoding: 105 105 74
Width: 222
Flags: MW
HStem: 0 21G<67 150 67 67> 504 20G<67 150 150 150> 709 20G<66 150 150 150>
VStem: 66 84<624 729>
LayerCount: 2
Fore
SplineSet
150 524 m 1
 150 0 l 1
 67 0 l 1
 67 524 l 1
 150 524 l 1
150 729 m 1
 150 624 l 1
 66 624 l 1
 66 729 l 1
 150 729 l 1
EndSplineSet
EndChar

StartChar: j
Encoding: 106 106 75
Width: 222
Flags: MW
HStem: -218 73<3.5 27.5 0.5 57> 504 20<70 153 153 153> 624 105<70 153 70 153>
VStem: 70 83<-76 524 624 729>
LayerCount: 2
Fore
SplineSet
70 524 m 1
 153 524 l 1
 153 -109 l 2
 153 -180 104 -218 10 -218 c 0
 -3 -218 -8 -217 -18 -215 c 1
 -18 -144 l 1
 -1 -145 -1 -145 2 -145 c 0
 53 -145 70 -128 70 -76 c 2
 70 524 l 1
153 729 m 1
 153 624 l 1
 70 624 l 1
 70 729 l 1
 153 729 l 1
EndSplineSet
EndChar

StartChar: k
Encoding: 107 107 76
Width: 500
Flags: MW
HStem: 0 21<58 141 58 58 399 502 399 399> 504 20<363 470 470 470> 709 20<58 141 141 141>
VStem: 58 83<0 204 302 729>
LayerCount: 2
Fore
SplineSet
141 729 m 1
 141 302 l 1
 363 524 l 1
 470 524 l 1
 288 343 l 1
 502 0 l 1
 399 0 l 1
 222 284 l 1
 141 204 l 1
 141 0 l 1
 58 0 l 1
 58 729 l 1
 141 729 l 1
EndSplineSet
EndChar

StartChar: l
Encoding: 108 108 77
Width: 222
Flags: MW
HStem: 0 21<68 152 68 68> 709 20<68 152 152 152>
VStem: 68 84<0 729 0 729>
LayerCount: 2
Fore
SplineSet
152 729 m 1
 152 0 l 1
 68 0 l 1
 68 729 l 1
 152 729 l 1
EndSplineSet
EndChar

StartChar: m
Encoding: 109 109 78
Width: 833
Flags: W
HStem: 0 21G<70 154 70 70 374 458 374 374 678 762 678 678> 466 73<273 308 575 611.5>
VStem: 70 77<450 524 450 524 450 524> 70 84<0 329 0 524> 374 84<0 329 0 361 0 394.5> 678 84<0 361 361 393 0 394>
LayerCount: 2
Fore
SplineSet
70 524 m 1xec
 147 524 l 1
 147 450 l 1xec
 192 513 238 539 308 539 c 0
 376 539 418 515 449 459 c 1
 498 518 540 539 610 539 c 0
 708 539 762 487 762 393 c 2
 762 0 l 1
 678 0 l 1
 678 361 l 2
 678 427 642 466 581 466 c 0
 513 466 458 405 458 329 c 2
 458 0 l 1
 374 0 l 1
 374 361 l 2
 374 428 339 466 277 466 c 0
 209 466 154 405 154 329 c 2
 154 0 l 1
 70 0 l 1xdc
 70 524 l 1xec
EndSplineSet
EndChar

StartChar: n
Encoding: 110 110 79
Width: 556
Flags: W
HStem: 0 21G<70 154 70 70 404 487 404 404> 466 73<282 329>
VStem: 70 77<436 524 436 524 436 524> 70 84<0 289 0 524> 404 83<0 363 363 394.5>
LayerCount: 2
Fore
SplineSet
70 524 m 1xe8
 147 524 l 1
 147 436 l 1xe8
 193 509 243 539 321 539 c 0
 422 539 487 483 487 396 c 2
 487 0 l 1
 404 0 l 1
 404 363 l 2
 404 426 362 466 296 466 c 0
 210 466 154 396 154 289 c 2
 154 0 l 1
 70 0 l 1xd8
 70 524 l 1xe8
EndSplineSet
EndChar

StartChar: p
Encoding: 112 112 81
Width: 556
Flags: W
HStem: -23 78<265 329.5> 461 78<262.5 330>
VStem: 54 77<445 524 445 524 445 524> 54 84<-218 55 196.5 319.5> 436 87<195.5 317.5>
LayerCount: 2
Fore
SplineSet
54 -218 m 1xd8
 54 524 l 1
 131 524 l 1
 131 445 l 1xe8
 170 507 227 539 298 539 c 0
 437 539 523 429 523 253 c 0
 523 86 434 -23 299 -23 c 0
 231 -23 182 1 138 55 c 1
 138 -218 l 1
 54 -218 l 1xd8
284 461 m 0
 196 461 138 381 138 258 c 0xd8
 138 135 196 55 284 55 c 0
 375 55 436 136 436 255 c 0
 436 380 376 461 284 461 c 0
EndSplineSet
EndChar

StartChar: q
Encoding: 113 113 82
Width: 556
Flags: W
HStem: -218 21<412 495 412 412> -23 78<220 286.5> 461 78<220 288.5 185 310.5> 504 20<421 495 495 495>
VStem: 26 87<197 318.5 197 339> 412 83<-218 60 60 60 195 318> 421 74<454 524>
LayerCount: 2
Fore
SplineSet
495 -218 m 1xda
 412 -218 l 1
 412 60 l 1
 373 3 323 -23 250 -23 c 0
 112 -23 26 82 26 252 c 0
 26 426 116 539 254 539 c 0xec
 323 539 382 509 421 454 c 1
 421 524 l 1
 495 524 l 1
 495 -218 l 1xda
266 461 m 0
 174 461 113 379 113 258 c 0
 113 136 174 55 266 55 c 0
 354 55 412 135 412 255 c 0
 412 381 355 461 266 461 c 0
EndSplineSet
EndChar

StartChar: r
Encoding: 114 114 83
Width: 333
Flags: W
HStem: 0 21G<69 153 69 69> 451 88<262 321>
VStem: 69 77<429 524 429 524 429 524> 69 84<0 272 0 524>
LayerCount: 2
Fore
SplineSet
69 524 m 1xe0
 146 524 l 1
 146 429 l 1xe0
 194 507 235 539 289 539 c 0
 300 539 307 538 321 536 c 1
 321 451 l 1
 263 450 238 444 212 425 c 0
 172 396 153 347 153 272 c 2
 153 0 l 1
 69 0 l 1xd0
 69 524 l 1xe0
EndSplineSet
EndChar

StartChar: s
Encoding: 115 115 84
Width: 500
Flags: MW
HStem: -23 77<227.5 286.5 227.5 309> 462 77<211 278.5>
VStem: 47 87<364.5 407 364.5 427.5> 372 87<111.5 155>
LayerCount: 2
Fore
SplineSet
438 378 m 1
 350 378 l 1
 348 433 312 462 245 462 c 0
 177 462 134 431 134 383 c 0
 134 346 163 324 231 308 c 2
 311 289 l 2
 415 264 459 221 459 143 c 0
 459 42 375 -23 243 -23 c 0
 106 -23 38 35 34 156 c 1
 122 156 l 1
 127 119 133 104 146 89 c 0
 167 67 205 54 250 54 c 0
 323 54 372 87 372 136 c 0
 372 174 349 195 291 209 c 2
 213 228 l 2
 89 258 47 297 47 379 c 0
 47 476 126 539 248 539 c 0
 369 539 437 481 438 378 c 1
EndSplineSet
EndChar

StartChar: t
Encoding: 116 116 85
Width: 278
Flags: W
HStem: -23 73<153.5 222> 456 68<14 85 14 85 168 254>
VStem: 14 240<456 524> 85 83<78.5 97 97 456 524 668>
LayerCount: 2
Fore
SplineSet
254 524 m 1xf0
 254 456 l 1
 168 456 l 1
 168 97 l 2
 168 60 178 50 214 50 c 0
 230 50 243 51 254 54 c 1
 254 -16 l 1
 226 -21 206 -23 186 -23 c 0
 121 -23 85 7 85 60 c 2
 85 456 l 1
 14 456 l 1
 14 524 l 1
 85 524 l 1
 85 668 l 1
 168 668 l 1
 168 524 l 1
 254 524 l 1xf0
EndSplineSet
EndChar

StartChar: v
Encoding: 118 118 87
Width: 500
Flags: MW
HStem: 0 21<194 285 194 194> 504 20<10 104 104 104 392 486 486 486>
LayerCount: 2
Fore
SplineSet
285 0 m 1
 194 0 l 1
 10 524 l 1
 104 524 l 1
 244 99 l 1
 392 524 l 1
 486 524 l 1
 285 0 l 1
EndSplineSet
EndChar

StartChar: w
Encoding: 119 119 88
Width: 722
Flags: MW
HStem: 0 21<158 252 158 158 459 554 459 459> 504 20<6 98 98 98 305 407 407 407 614 708 708 708>
LayerCount: 2
Fore
SplineSet
554 0 m 1
 459 0 l 1
 353 411 l 1
 252 0 l 1
 158 0 l 1
 6 524 l 1
 98 524 l 1
 205 116 l 1
 305 524 l 1
 407 524 l 1
 510 116 l 1
 614 524 l 1
 708 524 l 1
 554 0 l 1
EndSplineSet
EndChar

StartChar: x
Encoding: 120 120 89
Width: 500
Flags: MW
HStem: 0 21<17 112 17 17 376 473 376 376> 504 20<27 122 122 122 374 468 468 468>
LayerCount: 2
Fore
SplineSet
292 271 m 1
 473 0 l 1
 376 0 l 1
 245 201 l 1
 112 0 l 1
 17 0 l 1
 202 267 l 1
 27 524 l 1
 122 524 l 1
 248 334 l 1
 374 524 l 1
 468 524 l 1
 292 271 l 1
EndSplineSet
EndChar

StartChar: y
Encoding: 121 121 90
Width: 500
Flags: MW
HStem: -218 82<99 115.5 92 123.5> 504 20<20 109 109 109 388 478 478 478>
LayerCount: 2
Fore
SplineSet
388 524 m 1
 478 524 l 1
 245 -110 l 2
 229 -152 214 -174 188 -193 c 0
 166 -209 137 -218 110 -218 c 0
 88 -218 71 -214 54 -205 c 1
 54 -130 l 1
 72 -134 86 -136 98 -136 c 0
 133 -136 152 -122 165 -85 c 1
 197 -2 l 1
 20 524 l 1
 109 524 l 1
 243 116 l 1
 388 524 l 1
EndSplineSet
EndChar

StartChar: z
Encoding: 122 122 91
Width: 500
Flags: W
HStem: 0 73<132 457 132 457> 451 73<52 344 52 443>
VStem: 31 426<0 73 0 75 0 75> 52 391<451 524 450 524>
LayerCount: 2
Fore
SplineSet
443 524 m 1xd0
 443 450 l 1xd0
 132 73 l 1
 457 73 l 1
 457 0 l 1
 31 0 l 1
 31 75 l 1xe0
 344 451 l 1
 52 451 l 1
 52 524 l 1
 443 524 l 1xd0
EndSplineSet
EndChar

StartChar: braceleft
Encoding: 123 123 92
Width: 334
Flags: MW
HStem: -212 65<195.5 276 261 276 261 276> 664 65<236.5 261 261 276>
VStem: 121 77<-81 -80 -80 86 86 101 431 597>
LayerCount: 2
Fore
SplineSet
276 729 m 1
 276 664 l 1
 261 664 l 2
 212 664 198 649 198 597 c 2
 198 416 l 2
 198 324 177 283 116 259 c 1
 172 233 198 184 198 101 c 2
 198 -80 l 2
 198 -132 212 -147 261 -147 c 2
 276 -147 l 1
 276 -212 l 1
 230 -212 l 2
 161 -212 121 -164 121 -81 c 2
 121 86 l 2
 121 178 102 212 43 224 c 1
 43 293 l 1
 102 305 121 338 121 431 c 2
 121 598 l 2
 121 681 161 729 230 729 c 2
 276 729 l 1
EndSplineSet
EndChar

StartChar: bar
Encoding: 124 124 93
Width: 260
Flags: MW
HStem: -212 941<100 160 100 160>
VStem: 100 60<-212 729 -212 729>
LayerCount: 2
Fore
SplineSet
100 729 m 1
 160 729 l 1
 160 -212 l 1
 100 -212 l 1
 100 729 l 1
EndSplineSet
EndChar

StartChar: braceright
Encoding: 125 125 94
Width: 334
Flags: MW
HStem: -212 65<29 45 29 45 45 70 29 76> 664 65<29 45 29 76>
VStem: 109 77<-80 86 416 431 431 597 597 598>
LayerCount: 2
Fore
SplineSet
29 -212 m 1
 29 -147 l 1
 45 -147 l 2
 95 -147 109 -132 109 -80 c 2
 109 101 l 2
 109 184 135 233 191 258 c 1
 135 284 109 334 109 416 c 2
 109 597 l 2
 109 649 95 664 45 664 c 2
 29 664 l 1
 29 729 l 1
 76 729 l 2
 146 729 186 681 186 598 c 2
 186 431 l 2
 186 339 205 305 262 293 c 1
 262 224 l 1
 205 212 186 178 186 86 c 2
 186 -81 l 2
 186 -164 146 -212 76 -212 c 2
 29 -212 l 1
EndSplineSet
EndChar

StartChar: asciitilde
Encoding: 126 126 95
Width: 584
Flags: MW
HStem: 268 68<397 422.5 397 435> 371 67<172 186>
VStem: 455 53<356.5 411>
LayerCount: 2
Fore
SplineSet
455 411 m 1
 508 411 l 1
 508 395 l 2
 508 318 467 268 403 268 c 0
 378 268 348 278 322 294 c 2
 224 357 l 2
 214 363 191 371 181 371 c 0
 163 371 146 358 136 336 c 0
 132 326 130 316 128 293 c 1
 75 293 l 1
 80 387 118 438 183 438 c 0
 201 438 220 432 237 422 c 2
 354 353 l 2
 374 341 390 336 404 336 c 0
 441 336 456 358 455 411 c 1
EndSplineSet
EndChar

StartChar: exclamdown
Encoding: 161 161 96
Width: 333
Flags: MW
HStem: 504 20G<121 205 205 205>
VStem: 121 84<420 524>
LayerCount: 2
Fore
SplineSet
122 -205 m 1
 122 133 l 1
 144 356 l 1
 183 356 l 1
 205 133 l 1
 205 -205 l 1
 122 -205 l 1
121 420 m 1
 121 524 l 1
 205 524 l 1
 205 420 l 1
 121 420 l 1
EndSplineSet
EndChar

StartChar: cent
Encoding: 162 162 97
Width: 556
Flags: MW
HStem: -120 748<270 312 270 312>
VStem: 52 87<196.5 313.5 196.5 334.5> 270 42<-120 -23 -120 -22 -120 -22 55 461 461 461 539 628>
LayerCount: 2
Fore
SplineSet
312 462 m 1
 312 53 l 1
 376 60 414 101 426 180 c 1
 510 180 l 1
 503 60 428 -17 312 -23 c 1
 312 -120 l 1
 270 -120 l 1
 270 -22 l 1
 135 -10 52 94 52 253 c 0
 52 416 135 524 270 538 c 1
 270 628 l 1
 312 628 l 1
 312 539 l 1
 429 531 498 462 504 348 c 1
 420 348 l 1
 413 415 373 457 312 462 c 1
270 55 m 1
 270 461 l 1
 184 445 139 374 139 253 c 0
 139 140 187 68 270 55 c 1
EndSplineSet
EndChar

StartChar: sterling
Encoding: 163 163 98
Width: 556
Flags: W
HStem: -23 92<401 423 401 430> 23 77<174.5 262> 321 55<26 107 26 136 26 107 230 366 230 230> 651 78<245.5 331.5>
VStem: 54 93<504.5 561.5 504.5 575.5> 160 85<224 255.5>
LayerCount: 2
Fore
SplineSet
366 376 m 1x7c
 366 321 l 1
 230 321 l 1
 240 292 245 269 245 250 c 0
 245 198 217 152 127 61 c 1
 166 87 206 100 249 100 c 0x7c
 275 100 293 97 331 85 c 0
 372 73 392 69 410 69 c 0
 436 69 464 79 493 99 c 1
 535 33 l 1
 495 -6 456 -23 404 -23 c 0xbc
 367 -23 341 -17 258 12 c 0
 237 19 213 23 192 23 c 0
 157 23 121 11 83 -14 c 1
 35 52 l 1
 127 131 160 182 160 243 c 0
 160 268 151 296 136 321 c 1
 26 321 l 1
 26 376 l 1
 107 376 l 1
 61 452 54 471 54 515 c 0
 54 636 158 729 292 729 c 0
 377 729 448 692 484 630 c 0
 503 597 511 558 512 497 c 1
 424 497 l 1
 421 600 375 651 288 651 c 0
 203 651 147 600 147 523 c 0
 147 486 153 469 190 404 c 1
 193 401 200 388 206 376 c 1
 366 376 l 1x7c
EndSplineSet
EndChar

StartChar: currency
Encoding: 168 164 103
Width: 556
Flags: MW
HStem: 159 77<257.5 293.5> 445 77<257 293.5 257 304>
VStem: 89 79<323 359> 381 79<324 357 324 368.5>
LayerCount: 2
Fore
SplineSet
485 190 m 1
 427 136 l 1
 374 189 l 1
 347 169 313 159 274 159 c 0
 241 159 206 168 180 184 c 1
 129 133 l 1
 73 190 l 1
 121 239 l 1
 101 266 89 305 89 341 c 0
 89 377 101 415 121 443 c 1
 67 498 l 1
 123 551 l 1
 178 496 l 1
 207 513 239 522 275 522 c 0
 312 522 347 512 373 494 c 1
 432 547 l 1
 489 489 l 1
 434 434 l 1
 450 409 460 373 460 341 c 0
 460 307 450 275 431 244 c 1
 485 190 l 1
274 445 m 0
 216 445 168 398 168 340 c 0
 168 283 216 236 275 236 c 0
 332 236 381 283 381 339 c 0
 381 398 334 445 274 445 c 0
EndSplineSet
EndChar

StartChar: yen
Encoding: 165 165 100
Width: 556
Flags: W
HStem: 0 21<237 325 237 237> 175 51<65 237 65 237 325 495> 303 51<65 216 65 237 65 216 344 495>
VStem: 65 430<175 226 175 226 303 354 175 354> 237 88<0 175 0 175 226 303>
LayerCount: 2
Fore
SplineSet
495 354 m 1xf8
 495 303 l 1
 325 303 l 1
 325 226 l 1
 495 226 l 1
 495 175 l 1
 325 175 l 1
 325 0 l 1
 237 0 l 1
 237 175 l 1
 65 175 l 1
 65 226 l 1
 237 226 l 1
 237 303 l 1
 65 303 l 1
 65 354 l 1
 216 354 l 1
 11 709 l 1
 96 709 l 1
 281 387 l 1
 460 709 l 1
 545 709 l 1
 344 354 l 1
 495 354 l 1xf8
EndSplineSet
EndChar

StartChar: brokenbar
Encoding: 420 166 314
Width: 260
Flags: MW
HStem: -212 401<100 160 100 160> 328 401<100 160 100 160>
VStem: 100 60<-212 189 -212 189 328 729>
LayerCount: 2
Fore
SplineSet
100 729 m 1
 160 729 l 1
 160 328 l 1
 100 328 l 1
 100 729 l 1
100 189 m 1
 160 189 l 1
 160 -212 l 1
 100 -212 l 1
 100 189 l 1
EndSplineSet
EndChar

StartChar: section
Encoding: 167 167 102
Width: 556
Flags: W
HStem: -213 77<246 292.5 246 316.5> -34 20G<77 162 162 162> 524 21G<380 464 380 380> 652 77<257.5 312.5>
VStem: 43 79<308 345> 104 90<552.5 591.5 552.5 610> 360 90<-75.5 -32.5> 380 84<524 532 532 533 533 550 550 552 524 581> 427 79<191 228.5>
LayerCount: 2
Fore
SplineSet
464 524 m 1xf5
 380 524 l 1
 380 533 l 1
 380 550 l 2xf5
 380 612 342 652 283 652 c 0
 232 652 194 616 194 567 c 0
 194 538 209 518 251 490 c 2
 397 396 l 2
 478 344 506 301 506 229 c 0xf480
 506 153 469 100 397 73 c 1
 437 28 450 -2 450 -45 c 0
 450 -141 370 -213 263 -213 c 0
 179 -213 112 -170 88 -100 c 0
 79 -73 77 -61 77 -14 c 1
 162 -14 l 1
 162 -53 166 -73 180 -92 c 1
 199 -121 228 -136 264 -136 c 0
 321 -136 360 -101 360 -50 c 0
 360 -15 344 11 305 38 c 2
 135 155 l 2
 70 200 43 247 43 312 c 0xfa
 43 378 74 423 148 462 c 1
 117 498 104 526 104 564 c 0
 104 656 185 729 289 729 c 0
 393 729 464 658 464 552 c 2
 464 532 l 1
 464 524 l 1xf5
188 229 m 2
 354 106 l 1
 401 131 427 168 427 208 c 0
 427 249 403 286 354 320 c 2
 193 429 l 1
 141 395 122 368 122 328 c 0xf880
 122 288 135 268 188 229 c 2
EndSplineSet
EndChar

StartChar: dieresis
Encoding: 200 168 131
Width: 333
Flags: MW
HStem: 612 103<30 134 30 134 30 192 192 296>
VStem: 30 104<612 715 612 715> 192 104<612 715 612 715>
LayerCount: 2
Fore
SplineSet
134 715 m 1
 134 612 l 1
 30 612 l 1
 30 715 l 1
 134 715 l 1
296 715 m 1
 296 612 l 1
 192 612 l 1
 192 715 l 1
 296 715 l 1
EndSplineSet
EndChar

StartChar: copyright
Encoding: 409 169 303
Width: 737
Flags: MW
HStem: -22 62<280.5 454 280.5 472> 126 62<359 403 359 403.5> 530 62<337 401.5> 680 62<282.5 455.5>
VStem: -13 68<273 448 273 465.5> 181 69<332.5 410.5 332.5 427> 683 68<271.5 448.5>
LayerCount: 2
Fore
SplineSet
544 437 m 1
 473 437 l 1
 456 503 428 530 375 530 c 0
 299 530 250 463 250 358 c 0
 250 307 263 263 286 234 c 0
 307 206 343 188 375 188 c 0
 431 188 468 231 481 312 c 1
 552 312 l 1
 540 252 530 224 511 196 c 0
 478 149 432 126 375 126 c 0
 260 126 181 221 181 357 c 0
 181 497 260 592 378 592 c 0
 467 592 520 543 544 437 c 1
369 742 m 0
 580 742 751 571 751 361 c 0
 751 147 580 -22 364 -22 c 0
 159 -22 -13 152 -13 360 c 0
 -13 571 158 742 369 742 c 0
369 680 m 0
 196 680 55 536 55 360 c 0
 55 186 196 40 365 40 c 0
 543 40 683 182 683 361 c 0
 683 536 542 680 369 680 c 0
EndSplineSet
EndChar

StartChar: ordfeminine
Encoding: 227 170 139
Width: 370
Flags: MW
HStem: 303 51<43 320 43 320> 399 52<134 160.5> 690 52<153.5 197.5>
VStem: 37 58<483 514 483 516> 243 57<517 568 568 568 633 646 646 648>
LayerCount: 2
Fore
SplineSet
320 354 m 1
 320 303 l 1
 43 303 l 1
 43 354 l 1
 320 354 l 1
333 449 m 1
 333 405 l 1
 320 400 313 399 301 399 c 0
 268 399 252 411 246 442 c 1
 213 413 180 399 141 399 c 0
 77 399 37 436 37 495 c 0
 37 537 57 566 94 582 c 0
 111 589 152 597 194 600 c 0
 232 603 243 611 243 633 c 2
 243 646 l 2
 243 674 219 690 176 690 c 0
 131 690 115 677 108 634 c 1
 49 634 l 1
 51 705 96 742 178 742 c 0
 259 742 300 711 300 648 c 2
 300 469 l 2
 300 454 308 446 323 446 c 0
 326 446 329 447 333 449 c 1
243 517 m 2
 243 568 l 1
 229 562 216 560 167 552 c 1
 115 545 95 530 95 498 c 0
 95 468 116 451 152 451 c 0
 201 451 243 482 243 517 c 2
EndSplineSet
EndChar

StartChar: guillemotleft
Encoding: 171 171 106
Width: 556
Flags: W
LayerCount: 2
Fore
SplineSet
98 227 m 1
 98 316 l 1
 250 438 l 1
 250 355 l 1
 144 272 l 1
 250 189 l 1
 250 106 l 1
 98 227 l 1
303 227 m 1
 303 316 l 1
 455 438 l 1
 455 355 l 1
 349 272 l 1
 455 189 l 1
 455 106 l 1
 303 227 l 1
EndSplineSet
EndChar

StartChar: logicalnot
Encoding: 417 172 311
Width: 584
Flags: MW
HStem: 305 70<40 474 40 544>
VStem: 474 70<86 305 305 305>
LayerCount: 2
Fore
SplineSet
40 375 m 1
 544 375 l 1
 544 86 l 1
 474 86 l 1
 474 305 l 1
 40 305 l 1
 40 375 l 1
EndSplineSet
EndChar

StartChar: registered
Encoding: 410 174 304
Width: 737
Flags: W
HStem: -22 62<280.5 454 280.5 472> 325 63<272 401 272 401 401 406> 522 63<272 401 272 272> 680 62<282.5 455.5>
VStem: -13 68<273 448 273 465.5> 202 70<140 325 388 522> 470 70 476 73<436 478.5> 683 68<271.5 448.5>
LayerCount: 2
Fore
SplineSet
272 325 m 1xfd80
 272 140 l 1
 202 140 l 1
 202 585 l 1
 408 585 l 2
 503 585 549 544 549 459 c 0xfd80
 549 413 536 390 495 360 c 1
 532 336 539 319 540 248 c 0
 541 190 545 178 563 165 c 1
 563 140 l 1
 484 140 l 1
 475 161 469 189 469 217 c 2
 470 257 l 1xfe80
 470 305 451 325 406 325 c 2
 272 325 l 1xfd80
272 388 m 1
 401 388 l 2
 453 388 476 409 476 455 c 0
 476 502 454 522 401 522 c 2
 272 522 l 1
 272 388 l 1
369 742 m 0
 580 742 751 571 751 361 c 0
 751 147 580 -22 364 -22 c 0
 159 -22 -13 152 -13 360 c 0
 -13 571 158 742 369 742 c 0
369 680 m 0
 196 680 55 536 55 360 c 0
 55 186 196 40 365 40 c 0
 543 40 683 182 683 361 c 0
 683 536 542 680 369 680 c 0
EndSplineSet
EndChar

StartChar: macron
Encoding: 197 175 128
Width: 333
Flags: MW
HStem: 631 70<28 302 28 302>
VStem: 28 274<631 701 631 701>
LayerCount: 2
Fore
SplineSet
302 701 m 1
 302 631 l 1
 28 631 l 1
 28 701 l 1
 302 701 l 1
EndSplineSet
EndChar

StartChar: degree
Encoding: 399 176 293
Width: 606
Flags: MW
HStem: 383 57<276 328 276 343.5> 629 57<277 329>
VStem: 151 57<509 560.5 509 576.5> 397 57<508.5 561>
LayerCount: 2
Fore
SplineSet
303 686 m 0
 386 686 454 618 454 535 c 0
 454 450 386 383 301 383 c 0
 219 383 151 452 151 535 c 0
 151 618 219 686 303 686 c 0
303 629 m 0
 251 629 208 586 208 535 c 0
 208 483 251 440 301 440 c 0
 355 440 397 482 397 535 c 0
 397 587 355 629 303 629 c 0
EndSplineSet
EndChar

StartChar: plusminus
Encoding: 404 177 298
Width: 584
Flags: W
HStem: -11 70<50 534 50 534> 346 70<50 257 50 257 327 534>
VStem: 50 484<-11 59 -11 59 346 416 -11 416> 257 70<139 346 139 346 416 623>
LayerCount: 2
Fore
SplineSet
534 416 m 1xf0
 534 346 l 1
 327 346 l 1
 327 139 l 1
 257 139 l 1
 257 346 l 1
 50 346 l 1
 50 416 l 1
 257 416 l 1
 257 623 l 1
 327 623 l 1
 327 416 l 1
 534 416 l 1xf0
534 59 m 1
 534 -11 l 1
 50 -11 l 1
 50 59 l 1
 534 59 l 1
EndSplineSet
EndChar

StartChar: twosuperior
Encoding: 397 178 291
Width: 351
Flags: MW
HStem: 284 58<94 323 94 323> 656 53<162 202>
VStem: 263 63<565.5 602.5>
LayerCount: 2
Fore
SplineSet
323 342 m 1
 323 284 l 1
 19 284 l 1
 24 381 50 420 146 471 c 2
 204 502 l 2
 243 523 263 550 263 581 c 0
 263 624 226 656 178 656 c 0
 146 656 118 641 104 617 c 0
 96 604 93 588 91 557 c 1
 29 557 l 1
 32 660 81 709 180 709 c 0
 266 709 326 657 326 583 c 0
 326 530 293 485 230 454 c 2
 167 422 l 1
 124 399 106 380 94 342 c 1
 323 342 l 1
EndSplineSet
EndChar

StartChar: threesuperior
Encoding: 398 179 292
Width: 351
Flags: W
HStem: 270 53<139 197 139 214> 656 53<152.5 192.5>
VStem: 245 63<569.5 609> 259 63<378.5 422>
LayerCount: 2
Fore
SplineSet
135 476 m 1xd0
 135 527 l 1
 221 527 245 541 245 588 c 0
 245 630 216 656 169 656 c 0
 136 656 109 643 97 621 c 0
 90 608 88 595 88 567 c 1
 25 567 l 1
 27 661 76 709 169 709 c 0
 255 709 308 663 308 589 c 0xe0
 308 550 288 521 251 504 c 1
 299 488 322 455 322 404 c 0
 322 323 261 270 167 270 c 0
 71 270 16 322 16 412 c 1
 78 412 l 1
 81 350 109 323 169 323 c 0
 225 323 259 353 259 404 c 0
 259 440 236 468 201 474 c 0
 186 476 170 476 135 476 c 1xd0
EndSplineSet
EndChar

StartChar: acute
Encoding: 194 180 125
Width: 333
Flags: MW
HStem: 720 20<188 301 301 301>
LayerCount: 2
Fore
SplineSet
188 740 m 1
 301 740 l 1
 152 592 l 1
 92 592 l 1
 188 740 l 1
EndSplineSet
EndChar

StartChar: paragraph
Encoding: 182 182 115
Width: 537
Flags: MW
HStem: 665 64<319 401 319 319 465 522 465 465>
VStem: 255 64<-177 259 259 259> 401 64<-177 665 -177 665>
LayerCount: 2
Fore
SplineSet
522 729 m 1
 522 665 l 1
 465 665 l 1
 465 -177 l 1
 401 -177 l 1
 401 665 l 1
 319 665 l 1
 319 -177 l 1
 255 -177 l 1
 255 259 l 1
 200 262 165 274 130 303 c 0
 78 346 48 415 48 489 c 0
 48 624 146 729 272 729 c 2
 522 729 l 1
EndSplineSet
EndChar

StartChar: periodcentered
Encoding: 180 183 114
Width: 278
Flags: MW
HStem: 302 125<87 211 87 211>
VStem: 87 124<302 427 302 427>
LayerCount: 2
Fore
SplineSet
211 427 m 1
 211 302 l 1
 87 302 l 1
 87 427 l 1
 211 427 l 1
EndSplineSet
EndChar

StartChar: cedilla
Encoding: 203 184 133
Width: 333
Flags: MW
HStem: -214 41<145 173.5 145 202> -91 91<165 180.5>
VStem: 212 75<-141 -116.5>
LayerCount: 2
Fore
SplineSet
165 0 m 1
 203 0 l 1
 180 -56 l 1
 193 -54 200 -54 208 -54 c 0
 258 -54 287 -78 287 -121 c 0
 287 -178 240 -214 164 -214 c 0
 125 -214 101 -207 39 -180 c 1
 60 -140 l 1
 69 -144 l 1
 115 -167 132 -173 158 -173 c 0
 189 -173 212 -154 212 -128 c 0
 212 -105 195 -91 166 -91 c 0
 154 -91 147 -93 135 -99 c 1
 123 -92 l 1
 165 0 l 1
EndSplineSet
EndChar

StartChar: onesuperior
Encoding: 396 185 290
Width: 351
Flags: MW
HStem: 284 425<179 222 179 222 160 222>
VStem: 160 62<284 580 580 580>
LayerCount: 2
Fore
SplineSet
160 580 m 1
 61 580 l 1
 61 626 l 1
 76 627 l 1
 148 634 162 645 179 709 c 1
 222 709 l 1
 222 284 l 1
 160 284 l 1
 160 580 l 1
EndSplineSet
EndChar

StartChar: ordmasculine
Encoding: 235 186 143
Width: 365
Flags: MW
HStem: 303 51<51 314 51 314> 399 52<156 208 156 226.5> 690 52<156 208.5>
VStem: 40 58<533.5 608 533.5 625> 266 58<532.5 607>
LayerCount: 2
Fore
SplineSet
314 354 m 1
 314 303 l 1
 51 303 l 1
 51 354 l 1
 314 354 l 1
182 742 m 0
 273 742 324 680 324 568 c 0
 324 462 271 399 182 399 c 0
 92 399 40 462 40 571 c 0
 40 679 92 742 182 742 c 0
182 690 m 0
 130 690 98 645 98 571 c 0
 98 496 130 451 182 451 c 0
 234 451 266 496 266 569 c 0
 266 645 235 690 182 690 c 0
EndSplineSet
EndChar

StartChar: guillemotright
Encoding: 187 187 120
Width: 556
Flags: W
LayerCount: 2
Fore
SplineSet
252 317 m 1
 252 228 l 1
 98 106 l 1
 98 189 l 1
 206 272 l 1
 98 355 l 1
 98 438 l 1
 252 317 l 1
451 317 m 1
 451 228 l 1
 297 106 l 1
 297 189 l 1
 405 272 l 1
 297 355 l 1
 297 438 l 1
 451 317 l 1
EndSplineSet
EndChar

StartChar: onequarter
Encoding: 406 188 300
Width: 869
Flags: MW
HStem: 0 21<720 782 720 720> 100 53<591 720 591 720 782 849> 284 425<179 222 179 222 160 222>
VStem: 160 62<284 580 580 580> 720 62<0 100 0 100 153 323 323 323>
LayerCount: 2
Fore
SplineSet
160 580 m 1
 61 580 l 1
 61 626 l 1
 76 627 l 1
 148 634 162 645 179 709 c 1
 222 709 l 1
 222 284 l 1
 160 284 l 1
 160 580 l 1
643 709 m 1
 701 709 l 1
 249 -20 l 1
 191 -20 l 1
 643 709 l 1
720 100 m 1
 532 100 l 1
 532 159 l 1
 736 425 l 1
 782 425 l 1
 782 153 l 1
 849 153 l 1
 849 100 l 1
 782 100 l 1
 782 0 l 1
 720 0 l 1
 720 100 l 1
720 153 m 1
 720 323 l 1
 591 153 l 1
 720 153 l 1
EndSplineSet
EndChar

StartChar: onehalf
Encoding: 405 189 299
Width: 869
Flags: W
HStem: 0 58<612 841 612 841> 284 425<179 222 179 222 160 222> 372 53<680 720>
VStem: 160 62<284 580 580 580> 781 63<281.5 318.5>
LayerCount: 2
Fore
SplineSet
160 580 m 1xd8
 61 580 l 1
 61 626 l 1
 76 627 l 1
 148 634 162 645 179 709 c 1
 222 709 l 1
 222 284 l 1
 160 284 l 1
 160 580 l 1xd8
619 709 m 1
 677 709 l 1
 225 -20 l 1
 167 -20 l 1
 619 709 l 1
841 58 m 1
 841 0 l 1
 537 0 l 1
 542 97 568 136 664 187 c 2
 722 218 l 2
 761 239 781 266 781 297 c 0
 781 340 744 372 696 372 c 0
 664 372 636 357 622 333 c 0
 614 320 611 304 609 273 c 1
 547 273 l 1
 550 376 599 425 698 425 c 0xb8
 784 425 844 373 844 299 c 0
 844 246 811 201 748 170 c 2
 685 138 l 1
 642 115 624 96 612 58 c 1
 841 58 l 1
EndSplineSet
EndChar

StartChar: threequarters
Encoding: 407 190 301
Width: 869
Flags: W
HStem: -20 21G<201 259 201 201> 100 53<591 720 591 720 782 849> 270 53<139 197 139 214> 656 53<152.5 192.5>
VStem: 245 63<569.5 609> 259 63<378.5 422> 720 62<0 100 0 100 153 323 323 323>
LayerCount: 2
Fore
SplineSet
135 476 m 1xf6
 135 527 l 1
 221 527 245 541 245 588 c 0
 245 630 216 656 169 656 c 0
 136 656 109 643 97 621 c 0
 90 608 88 595 88 567 c 1
 25 567 l 1
 27 661 76 709 169 709 c 0
 255 709 308 663 308 589 c 0xfa
 308 550 288 521 251 504 c 1
 299 488 322 455 322 404 c 0
 322 323 261 270 167 270 c 0
 71 270 16 322 16 412 c 1
 78 412 l 1
 81 350 109 323 169 323 c 0
 225 323 259 353 259 404 c 0
 259 440 236 468 201 474 c 0
 186 476 170 476 135 476 c 1xf6
653 709 m 1
 711 709 l 1
 259 -20 l 1xf6
 201 -20 l 1
 653 709 l 1
720 100 m 1
 532 100 l 1
 532 159 l 1
 736 425 l 1
 782 425 l 1
 782 153 l 1
 849 153 l 1
 849 100 l 1
 782 100 l 1
 782 0 l 1
 720 0 l 1
 720 100 l 1
720 153 m 1
 720 323 l 1
 591 153 l 1
 720 153 l 1
EndSplineSet
EndChar

StartChar: questiondown
Encoding: 191 191 123
Width: 611
Flags: MW
HStem: -217 78<275.5 340.5 275.5 381> 420 104<275 365 275 365>
VStem: 95 90<-59 -2 -59 8.5> 275 90<278 325 252 325 420 524> 443 85<-6 17>
LayerCount: 2
Fore
SplineSet
275 325 m 1
 365 325 l 1
 365 270 l 2
 365 234 358 211 337 183 c 0
 319 160 319 160 260 107 c 0
 207 60 185 21 185 -25 c 0
 185 -93 237 -139 314 -139 c 0
 367 -139 407 -118 426 -81 c 0
 438 -57 443 -29 443 17 c 1
 528 17 l 1
 528 -137 453 -217 309 -217 c 0
 178 -217 95 -142 95 -25 c 0
 95 42 120 86 195 154 c 0
 265 217 275 233 275 278 c 2
 275 325 l 1
275 420 m 1
 275 524 l 1
 365 524 l 1
 365 420 l 1
 275 420 l 1
EndSplineSet
EndChar

StartChar: Agrave
Encoding: 258 192 152
Width: 667
Flags: MW
HStem: 0 21<17 116 17 17 549 549 549 653> 219 78<216 448 216 474 193 448> 709 20<277 397 397 397>
LayerCount: 2
Fore
SplineSet
474 219 m 1
 193 219 l 1
 116 0 l 1
 17 0 l 1
 277 729 l 1
 397 729 l 1
 653 0 l 1
 549 0 l 1
 474 219 l 1
448 297 m 1
 336 629 l 1
 216 297 l 1
 448 297 l 1
304 939 m 1
 400 791 l 1
 340 791 l 1
 191 939 l 1
 304 939 l 1
EndSplineSet
EndChar

StartChar: Aacute
Encoding: 257 193 151
Width: 667
Flags: MW
HStem: 0 21<17 116 17 17 549 549 549 653> 219 78<216 448 216 474 193 448> 709 20<277 397 397 397>
LayerCount: 2
Fore
SplineSet
474 219 m 1
 193 219 l 1
 116 0 l 1
 17 0 l 1
 277 729 l 1
 397 729 l 1
 653 0 l 1
 549 0 l 1
 474 219 l 1
448 297 m 1
 336 629 l 1
 216 297 l 1
 448 297 l 1
370 939 m 1
 483 939 l 1
 334 791 l 1
 274 791 l 1
 370 939 l 1
EndSplineSet
EndChar

StartChar: Acircumflex
Encoding: 259 194 153
Width: 667
Flags: MW
HStem: 0 21<17 116 17 17 549 549 549 653> 219 78<216 448 216 474 193 448> 709 20<277 397 397 397>
LayerCount: 2
Fore
SplineSet
474 219 m 1
 193 219 l 1
 116 0 l 1
 17 0 l 1
 277 729 l 1
 397 729 l 1
 653 0 l 1
 549 0 l 1
 474 219 l 1
448 297 m 1
 336 629 l 1
 216 297 l 1
 448 297 l 1
288 940 m 1
 383 940 l 1
 479 790 l 1
 416 790 l 1
 335 886 l 1
 256 790 l 1
 192 790 l 1
 288 940 l 1
EndSplineSet
EndChar

StartChar: Atilde
Encoding: 261 195 155
Width: 667
Flags: MW
HStem: 0 21G<17 116 17 17 549 549 549 653> 219 78<216 448 216 474 193 448> 709 20G<277 397 397 397> 850 66<261.5 274.5>
LayerCount: 2
Fore
SplineSet
474 219 m 1
 193 219 l 1
 116 0 l 1
 17 0 l 1
 277 729 l 1
 397 729 l 1
 653 0 l 1
 549 0 l 1
 474 219 l 1
448 297 m 1
 336 629 l 1
 216 297 l 1
 448 297 l 1
434 916 m 1
 492 916 l 1
 482 847 452 812 403 812 c 0
 384 812 372 816 318 837 c 0
 294 846 280 850 269 850 c 0
 254 850 242 836 236 813 c 1
 178 813 l 1
 189 879 220 916 264 916 c 0
 285 916 292 914 334 897 c 1
 358 886 385 879 397 879 c 0
 415 879 426 891 434 916 c 1
EndSplineSet
EndChar

StartChar: Adieresis
Encoding: 256 196 150
Width: 667
Flags: MW
HStem: 0 21<17 116 17 17 549 549 549 653> 219 78<216 448 216 474 193 448> 709 20<277 397 397 397> 811 103<202 306 202 306 202 364 364 468>
VStem: 202 104<811 914 811 914> 364 104<811 914 811 914>
LayerCount: 2
Fore
SplineSet
474 219 m 1
 193 219 l 1
 116 0 l 1
 17 0 l 1
 277 729 l 1
 397 729 l 1
 653 0 l 1
 549 0 l 1
 474 219 l 1
448 297 m 1
 336 629 l 1
 216 297 l 1
 448 297 l 1
306 914 m 1
 306 811 l 1
 202 811 l 1
 202 914 l 1
 306 914 l 1
468 914 m 1
 468 811 l 1
 364 811 l 1
 364 914 l 1
 468 914 l 1
EndSplineSet
EndChar

StartChar: Ccedilla
Encoding: 264 199 158
Width: 722
Flags: MW
HStem: -214 41<331.5 359.5 331.5 388> -23 81<341 341 379 417 305.5 467> 659 82<332 400>
VStem: 48 93<285 414.5> 398 75<-141 -116.5>
LayerCount: 2
Fore
SplineSet
379 -23 m 1
 366 -56 l 1
 379 -54 386 -54 394 -54 c 0
 444 -54 473 -78 473 -121 c 0
 473 -178 426 -214 350 -214 c 0
 312 -214 286 -207 225 -180 c 1
 246 -140 l 1
 255 -144 l 1
 300 -167 319 -173 344 -173 c 0
 375 -173 398 -154 398 -128 c 0
 398 -105 381 -91 352 -91 c 0
 340 -91 333 -93 321 -99 c 1
 310 -92 l 1
 341 -23 l 1
 265 -12 235 -1 192 29 c 0
 101 94 48 214 48 356 c 0
 48 473 84 578 150 650 c 0
 204 710 283 741 381 741 c 0
 541 741 633 663 662 503 c 1
 567 503 l 1
 556 557 541 588 514 613 c 0
 484 641 429 659 371 659 c 0
 229 659 141 544 141 357 c 0
 141 174 233 58 378 58 c 0
 456 58 518 92 548 152 c 0
 563 182 573 216 581 266 c 1
 677 266 l 1
 655 75 555 -23 379 -23 c 1
EndSplineSet
EndChar

StartChar: Egrave
Encoding: 270 200 164
Width: 667
Flags: W
HStem: 0 82<183 613 183 613> 332 82<183 580 183 580> 647 82<183 595 183 183>
VStem: 90 93<82 332 82 414 414 647> 90 505<647 729 647 729 647 729> 90 523<0 82 0 729>
LayerCount: 2
Fore
SplineSet
183 332 m 1xf8
 183 82 l 1xf8
 613 82 l 1
 613 0 l 1
 90 0 l 1
 90 729 l 1xe4
 595 729 l 1
 595 647 l 1
 183 647 l 1
 183 414 l 1
 580 414 l 1
 580 332 l 1
 183 332 l 1xf8
320 939 m 1
 416 791 l 1
 356 791 l 1
 207 939 l 1
 320 939 l 1
EndSplineSet
EndChar

StartChar: Edieresis
Encoding: 268 203 162
Width: 667
Flags: MW
HStem: 0 82<183 613 183 613> 332 82<183 580 183 580> 647 82<183 595 183 183>
VStem: 90 93<82 332 82 414 414 647>
LayerCount: 2
Fore
SplineSet
183 332 m 1
 183 82 l 1
 613 82 l 1
 613 0 l 1
 90 0 l 1
 90 729 l 1
 595 729 l 1
 595 647 l 1
 183 647 l 1
 183 414 l 1
 580 414 l 1
 580 332 l 1
 183 332 l 1
315 914 m 1
 315 811 l 1
 211 811 l 1
 211 914 l 1
 315 914 l 1
477 914 m 1
 477 811 l 1
 373 811 l 1
 373 914 l 1
 477 914 l 1
EndSplineSet
EndChar

StartChar: Igrave
Encoding: 278 204 172
Width: 278
Flags: MW
HStem: 0 21<100 193 100 100> 709 20<100 193 193 193>
VStem: 100 93<0 729 0 729>
LayerCount: 2
Fore
SplineSet
193 729 m 1
 193 0 l 1
 100 0 l 1
 100 729 l 1
 193 729 l 1
114 939 m 1
 210 791 l 1
 150 791 l 1
 1 939 l 1
 114 939 l 1
EndSplineSet
EndChar

StartChar: Iacute
Encoding: 277 205 171
Width: 278
Flags: MW
HStem: 0 21<100 193 100 100> 709 20<100 193 193 193>
VStem: 100 93<0 729 0 729>
LayerCount: 2
Fore
SplineSet
193 729 m 1
 193 0 l 1
 100 0 l 1
 100 729 l 1
 193 729 l 1
167 939 m 1
 280 939 l 1
 131 791 l 1
 71 791 l 1
 167 939 l 1
EndSplineSet
EndChar

StartChar: Icircumflex
Encoding: 279 206 173
Width: 278
Flags: MW
HStem: 0 21<100 193 100 100> 709 20<100 193 193 193>
VStem: 100 93<0 729 0 729>
LayerCount: 2
Fore
SplineSet
193 729 m 1
 193 0 l 1
 100 0 l 1
 100 729 l 1
 193 729 l 1
95 940 m 1
 190 940 l 1
 286 790 l 1
 223 790 l 1
 142 886 l 1
 63 790 l 1
 -1 790 l 1
 95 940 l 1
EndSplineSet
EndChar

StartChar: Idieresis
Encoding: 276 207 170
Width: 278
Flags: MW
HStem: 0 21G<100 193 100 100> 709 20G<100 193 193 193>
VStem: 100 93<0 729 0 729>
LayerCount: 2
Fore
SplineSet
193 729 m 1
 193 0 l 1
 100 0 l 1
 100 729 l 1
 193 729 l 1
113 907 m 1
 113 804 l 1
 9 804 l 1
 9 907 l 1
 113 907 l 1
275 907 m 1
 275 804 l 1
 171 804 l 1
 171 907 l 1
 275 907 l 1
EndSplineSet
EndChar

StartChar: Ntilde
Encoding: 285 209 179
Width: 722
Flags: MW
HStem: 0 21G<76 164 76 76 541 646 541 541> 709 20G<76 177 177 177 558 646 646 646> 850 66<294.5 307.5>
VStem: 76 88<0 591 0 729> 558 88<133 729 0 729>
LayerCount: 2
Fore
SplineSet
646 729 m 1
 646 0 l 1
 541 0 l 1
 164 591 l 1
 164 0 l 1
 76 0 l 1
 76 729 l 1
 177 729 l 1
 558 133 l 1
 558 729 l 1
 646 729 l 1
467 916 m 1
 525 916 l 1
 515 847 485 812 436 812 c 0
 417 812 405 816 351 837 c 0
 327 846 313 850 302 850 c 0
 287 850 275 836 269 813 c 1
 211 813 l 1
 222 879 253 916 297 916 c 0
 318 916 325 914 367 897 c 1
 391 886 418 879 430 879 c 0
 448 879 459 891 467 916 c 1
EndSplineSet
EndChar

StartChar: Ocircumflex
Encoding: 289 212 183
Width: 778
Flags: MW
HStem: -23 82<312.5 434> 659 82<312 468>
VStem: 38 93<269 449 269 473> 649 93<293.5 447>
LayerCount: 2
Fore
SplineSet
389 741 m 0
 603 741 742 588 742 353 c 0
 742 234 695 121 616 54 c 0
 557 4 478 -23 390 -23 c 0
 180 -23 38 131 38 359 c 0
 38 587 180 741 389 741 c 0
389 659 m 0
 235 659 131 539 131 359 c 0
 131 179 235 59 390 59 c 0
 544 59 649 179 649 355 c 0
 649 539 547 659 389 659 c 0
343 940 m 1
 438 940 l 1
 534 790 l 1
 471 790 l 1
 390 886 l 1
 311 790 l 1
 247 790 l 1
 343 940 l 1
EndSplineSet
EndChar

StartChar: Otilde
Encoding: 290 213 184
Width: 778
Flags: MW
HStem: -23 82<312.5 434> 659 82<312 468> 850 66<319.5 332.5>
VStem: 38 93<269 449 269 473> 649 93<293.5 447>
LayerCount: 2
Fore
SplineSet
389 741 m 0
 603 741 742 588 742 353 c 0
 742 234 695 121 616 54 c 0
 557 4 478 -23 390 -23 c 0
 180 -23 38 131 38 359 c 0
 38 587 180 741 389 741 c 0
389 659 m 0
 235 659 131 539 131 359 c 0
 131 179 235 59 390 59 c 0
 544 59 649 179 649 355 c 0
 649 539 547 659 389 659 c 0
492 916 m 1
 550 916 l 1
 540 847 510 812 461 812 c 0
 442 812 430 816 376 837 c 0
 352 846 338 850 327 850 c 0
 312 850 300 836 294 813 c 1
 236 813 l 1
 247 879 278 916 322 916 c 0
 343 916 350 914 392 897 c 1
 416 886 443 879 455 879 c 0
 473 879 484 891 492 916 c 1
EndSplineSet
EndChar

StartChar: multiply
Encoding: 401 215 295
Width: 584
Flags: W
LayerCount: 2
Fore
SplineSet
438 427 m 1
 487 377 l 1
 341 231 l 1
 488 84 l 1
 438 34 l 1
 291 181 l 1
 145 35 l 1
 95 84 l 1
 242 231 l 1
 96 377 l 1
 145 426 l 1
 291 281 l 1
 438 427 l 1
EndSplineSet
EndChar

StartChar: Oslash
Encoding: 233 216 141
Width: 778
Flags: MW
HStem: -23 82<351.5 464.5 351.5 492> 659 82<309.5 419.5>
VStem: 35 93<325.5 449.5 325.5 473.5> 646 93<268.5 395.5>
LayerCount: 2
Fore
SplineSet
30 19 m 1
 111 108 l 1
 61 178 35 263 35 360 c 0
 35 587 177 741 387 741 c 0
 478 741 555 714 617 660 c 1
 704 755 l 1
 744 719 l 1
 655 622 l 1
 709 554 739 460 739 358 c 0
 739 131 597 -23 387 -23 c 0
 290 -23 212 6 146 67 c 1
 69 -17 l 1
 30 19 l 1
174 176 m 1
 558 595 l 1
 510 637 452 659 387 659 c 0
 232 659 128 539 128 360 c 0
 128 291 144 228 174 176 c 1
593 554 m 1
 206 133 l 1
 255 84 316 59 387 59 c 0
 542 59 646 179 646 358 c 0
 646 433 628 500 593 554 c 1
EndSplineSet
EndChar

StartChar: Ugrave
Encoding: 300 217 194
Width: 722
Flags: MW
HStem: -23 82<337 422.5 337 449.5> 709 20<85 178 178 178 552 645 645 645>
VStem: 85 93<217 729> 552 93<217 729>
LayerCount: 2
Fore
SplineSet
552 729 m 1
 645 729 l 1
 645 217 l 2
 645 71 535 -23 364 -23 c 0
 191 -23 85 69 85 217 c 2
 85 729 l 1
 178 729 l 1
 178 217 l 2
 178 162 195 125 231 97 c 1
 266 72 310 59 364 59 c 0
 481 59 552 119 552 217 c 2
 552 729 l 1
334 939 m 1
 430 791 l 1
 370 791 l 1
 221 939 l 1
 334 939 l 1
EndSplineSet
EndChar

StartChar: Uacute
Encoding: 299 218 193
Width: 722
Flags: MW
HStem: -23 82<337 422.5 337 449.5> 709 20<85 178 178 178 552 645 645 645>
VStem: 85 93<217 729> 552 93<217 729>
LayerCount: 2
Fore
SplineSet
552 729 m 1
 645 729 l 1
 645 217 l 2
 645 71 535 -23 364 -23 c 0
 191 -23 85 69 85 217 c 2
 85 729 l 1
 178 729 l 1
 178 217 l 2
 178 162 195 125 231 97 c 1
 266 72 310 59 364 59 c 0
 481 59 552 119 552 217 c 2
 552 729 l 1
387 939 m 1
 500 939 l 1
 351 791 l 1
 291 791 l 1
 387 939 l 1
EndSplineSet
EndChar

StartChar: Ucircumflex
Encoding: 301 219 195
Width: 722
Flags: MW
HStem: -23 82<337 422.5 337 449.5> 709 20<85 178 178 178 552 645 645 645>
VStem: 85 93<217 729> 552 93<217 729>
LayerCount: 2
Fore
SplineSet
552 729 m 1
 645 729 l 1
 645 217 l 2
 645 71 535 -23 364 -23 c 0
 191 -23 85 69 85 217 c 2
 85 729 l 1
 178 729 l 1
 178 217 l 2
 178 162 195 125 231 97 c 1
 266 72 310 59 364 59 c 0
 481 59 552 119 552 217 c 2
 552 729 l 1
318 940 m 1
 413 940 l 1
 509 790 l 1
 446 790 l 1
 365 886 l 1
 286 790 l 1
 222 790 l 1
 318 940 l 1
EndSplineSet
EndChar

StartChar: Yacute
Encoding: 304 221 198
Width: 666
Flags: MW
HStem: 0 21<294 387 294 294> 709 20<13 128 128 128 550 661 661 661>
VStem: 294 93<0 286 0 286>
LayerCount: 2
Fore
SplineSet
387 286 m 1
 387 0 l 1
 294 0 l 1
 294 286 l 1
 13 729 l 1
 128 729 l 1
 342 374 l 1
 550 729 l 1
 661 729 l 1
 387 286 l 1
365 939 m 1
 478 939 l 1
 329 791 l 1
 269 791 l 1
 365 939 l 1
EndSplineSet
EndChar

StartChar: Thorn
Encoding: 391 222 285
Width: 666
Flags: MW
HStem: 0 21<91 184 91 91> 189 82<184 378 184 378 378 413> 527 82<184 378 184 392> 709 20<91 184 184 184>
VStem: 91 93<0 189 271 527 609 729> 516 100<359 439>
LayerCount: 2
Fore
SplineSet
184 189 m 1
 184 0 l 1
 91 0 l 1
 91 729 l 1
 184 729 l 1
 184 609 l 1
 392 609 l 2
 531 609 616 529 616 397 c 0
 616 275 532 189 413 189 c 2
 184 189 l 1
184 271 m 1
 378 271 l 2
 465 271 516 319 516 399 c 0
 516 479 465 527 378 527 c 2
 184 527 l 1
 184 271 l 1
EndSplineSet
EndChar

StartChar: germandbls
Encoding: 251 223 149
Width: 611
Flags: W
HStem: -20 82<333.5 334 334 377 298 410.5> 349 82<302 311 311 331> 651 78<306.5 364.5>
VStem: 126 83<0 538 0 569.5> 448 87<509.5 574> 479 87<168.5 247>
LayerCount: 2
Fore
SplineSet
302 349 m 1xf4
 302 431 l 1
 311 431 l 2
 391 431 448 477 448 542 c 0
 448 606 399 651 330 651 c 0
 257 651 209 607 209 538 c 2
 209 0 l 1
 126 0 l 1
 126 538 l 2
 126 601 142 642 178 674 c 0
 219 709 276 729 337 729 c 0
 455 729 535 655 535 545 c 0xf8
 535 474 500 428 426 401 c 1
 523 368 566 312 566 219 c 0
 566 72 479 -20 342 -20 c 0
 325 -20 315 -19 298 -16 c 1
 298 62 l 1
 306 62 l 1
 334 62 l 2
 420 62 479 124 479 213 c 0
 479 281 445 330 388 343 c 0
 362 348 360 349 302 349 c 1xf4
EndSplineSet
EndChar

StartChar: acircumflex
Encoding: 325 226 219
Width: 556
Flags: W
HStem: -23 70<451 519.5> -23 73<199.5 247> 462 77<237 309.5> 721 20<228 323 323 323>
VStem: 42 87<107.5 161.5 107.5 166> 389 83<165 259 259 259 362 384 384 396>
LayerCount: 2
Fore
SplineSet
535 49 m 1xbc
 535 -14 l 1
 508 -21 495 -23 478 -23 c 0xbc
 424 -23 398 1 392 54 c 1
 333 0 280 -23 214 -23 c 0x7c
 108 -23 42 37 42 132 c 0
 42 200 73 247 134 272 c 0
 166 285 184 289 302 304 c 0
 368 312 389 327 389 362 c 2
 389 384 l 2
 389 434 347 462 272 462 c 0
 194 462 156 433 149 369 c 1
 65 369 l 1
 67 421 77 451 101 478 c 0
 136 517 199 539 275 539 c 0
 404 539 472 489 472 396 c 2
 472 88 l 2
 472 62 488 47 517 47 c 0
 522 47 526 47 535 49 c 1xbc
389 165 m 2
 389 259 l 1
 361 246 343 242 255 230 c 0
 166 217 129 189 129 134 c 0
 129 81 167 50 232 50 c 0x7c
 281 50 322 66 356 97 c 0
 381 120 389 137 389 165 c 2
228 741 m 1
 323 741 l 1
 419 591 l 1
 356 591 l 1
 275 687 l 1
 196 591 l 1
 132 591 l 1
 228 741 l 1
EndSplineSet
EndChar

StartChar: atilde
Encoding: 327 227 221
Width: 556
Flags: MW
HStem: -23 73<199.5 247> 462 77<237 309.5> 651 66<201.5 214.5>
VStem: 42 87<107.5 161.5 107.5 166> 389 83<165 259 259 259 362 384 384 396>
LayerCount: 2
Fore
SplineSet
535 49 m 1
 535 -14 l 1
 508 -21 495 -23 478 -23 c 0
 424 -23 398 1 392 54 c 1
 333 0 280 -23 214 -23 c 0
 108 -23 42 37 42 132 c 0
 42 200 73 247 134 272 c 0
 166 285 184 289 302 304 c 0
 368 312 389 327 389 362 c 2
 389 384 l 2
 389 434 347 462 272 462 c 0
 194 462 156 433 149 369 c 1
 65 369 l 1
 67 421 77 451 101 478 c 0
 136 517 199 539 275 539 c 0
 404 539 472 489 472 396 c 2
 472 88 l 2
 472 62 488 47 517 47 c 0
 522 47 526 47 535 49 c 1
389 165 m 2
 389 259 l 1
 361 246 343 242 255 230 c 0
 166 217 129 189 129 134 c 0
 129 81 167 50 232 50 c 0
 281 50 322 66 356 97 c 0
 381 120 389 137 389 165 c 2
374 717 m 1
 432 717 l 1
 422 648 392 613 343 613 c 0
 324 613 312 617 258 638 c 0
 234 647 220 651 209 651 c 0
 194 651 182 637 176 614 c 1
 118 614 l 1
 129 680 160 717 204 717 c 0
 225 717 232 715 274 698 c 1
 298 687 325 680 337 680 c 0
 355 680 366 692 374 717 c 1
EndSplineSet
EndChar

StartChar: aring
Encoding: 328 229 222
Width: 556
Flags: MW
HStem: -23 73<199.5 247> 462 77<237 309.5> 579 44<263 287 263 299> 710 44<263 287.5>
VStem: 42 87<107.5 161.5 107.5 166> 187 44<655 678.5 655 690.5> 319 44<654.5 678.5> 389 83<165 259 259 259 362 384 384 396>
LayerCount: 2
Fore
SplineSet
535 49 m 1
 535 -14 l 1
 508 -21 495 -23 478 -23 c 0
 424 -23 398 1 392 54 c 1
 333 0 280 -23 214 -23 c 0
 108 -23 42 37 42 132 c 0
 42 200 73 247 134 272 c 0
 166 285 184 289 302 304 c 0
 368 312 389 327 389 362 c 2
 389 384 l 2
 389 434 347 462 272 462 c 0
 194 462 156 433 149 369 c 1
 65 369 l 1
 67 421 77 451 101 478 c 0
 136 517 199 539 275 539 c 0
 404 539 472 489 472 396 c 2
 472 88 l 2
 472 62 488 47 517 47 c 0
 522 47 526 47 535 49 c 1
389 165 m 2
 389 259 l 1
 361 246 343 242 255 230 c 0
 166 217 129 189 129 134 c 0
 129 81 167 50 232 50 c 0
 281 50 322 66 356 97 c 0
 381 120 389 137 389 165 c 2
275 754 m 0
 324 754 363 715 363 666 c 0
 363 618 323 579 275 579 c 0
 227 579 187 619 187 667 c 0
 187 714 227 754 275 754 c 0
275 710 m 0
 251 710 231 690 231 667 c 0
 231 643 251 623 275 623 c 0
 299 623 319 643 319 666 c 0
 319 691 300 710 275 710 c 0
EndSplineSet
EndChar

StartChar: ccedilla
Encoding: 332 231 226
Width: 500
Flags: MW
HStem: -214 41<216.5 244.5 216.5 273> -23 76<264 300.5 219 325.5> 462 77<217.5 298>
VStem: 31 87<200.5 318 190 340> 283 75<-141 -116.5>
LayerCount: 2
Fore
SplineSet
264 -23 m 1
 251 -56 l 1
 265 -54 271 -54 279 -54 c 0
 329 -54 358 -79 358 -121 c 0
 358 -178 311 -214 235 -214 c 0
 196 -214 174 -208 110 -181 c 1
 131 -140 l 1
 140 -144 l 1
 184 -167 204 -173 229 -173 c 0
 260 -173 283 -154 283 -128 c 0
 283 -105 266 -91 237 -91 c 0
 225 -91 218 -93 206 -99 c 1
 194 -92 l 1
 225 -21 l 1
 182 -13 159 -4 132 16 c 0
 67 62 31 148 31 253 c 0
 31 427 123 539 264 539 c 0
 337 539 400 510 436 461 c 1
 456 432 467 399 471 348 c 1
 387 348 l 1
 377 421 333 462 263 462 c 0
 172 462 118 384 118 252 c 0
 118 128 173 53 265 53 c 0
 336 53 379 96 393 180 c 1
 477 180 l 1
 470 55 387 -23 264 -23 c 1
EndSplineSet
EndChar

StartChar: eacute
Encoding: 335 233 229
Width: 556
Flags: W
HStem: -23 77<254.5 314.5 254.5 338> 234 68<129 423 129 513 127 423> 462 77<237 320> 720 20<308 421 421 421>
VStem: 40 473<234 274 234 341> 41 86
LayerCount: 2
Fore
SplineSet
513 234 m 1xfc
 127 234 l 1
 128 182 135 152 155 122 c 0
 183 78 228 54 281 54 c 0
 348 54 395 90 418 159 c 1
 502 159 l 1
 481 45 398 -23 278 -23 c 0
 131 -23 40 83 40 255 c 0
 40 427 134 539 280 539 c 0
 378 539 458 487 492 401 c 0
 507 362 513 314 513 234 c 1xfc
129 302 m 1
 423 302 l 1
 424 304 424 306 424 308 c 0
 424 394 361 462 279 462 c 0
 195 462 136 399 129 302 c 1
308 740 m 1
 421 740 l 1
 272 592 l 1
 212 592 l 1
 308 740 l 1
EndSplineSet
EndChar

StartChar: ecircumflex
Encoding: 337 234 231
Width: 556
Flags: W
HStem: -23 77<254.5 314.5 254.5 338> 234 68<129 423 129 513 127 423> 462 77<237 320> 721 20<239 334 334 334>
VStem: 40 473<234 274 234 341> 41 86
LayerCount: 2
Fore
SplineSet
513 234 m 1xfc
 127 234 l 1
 128 182 135 152 155 122 c 0
 183 78 228 54 281 54 c 0
 348 54 395 90 418 159 c 1
 502 159 l 1
 481 45 398 -23 278 -23 c 0
 131 -23 40 83 40 255 c 0
 40 427 134 539 280 539 c 0
 378 539 458 487 492 401 c 0
 507 362 513 314 513 234 c 1xfc
129 302 m 1
 423 302 l 1
 424 304 424 306 424 308 c 0
 424 394 361 462 279 462 c 0
 195 462 136 399 129 302 c 1
239 741 m 1
 334 741 l 1
 430 591 l 1
 367 591 l 1
 286 687 l 1
 207 591 l 1
 143 591 l 1
 239 741 l 1
EndSplineSet
EndChar

StartChar: iacute
Encoding: 343 237 237
Width: 278
Flags: MW
HStem: 0 21<94 177 94 94> 504 20<94 177 177 177> 720 20<161 274 274 274>
VStem: 94 83<0 524 0 524>
LayerCount: 2
Fore
SplineSet
177 524 m 1
 177 0 l 1
 94 0 l 1
 94 524 l 1
 177 524 l 1
161 740 m 1
 274 740 l 1
 125 592 l 1
 65 592 l 1
 161 740 l 1
EndSplineSet
EndChar

StartChar: icircumflex
Encoding: 345 238 239
Width: 278
Flags: MW
HStem: 0 21<94 177 94 94> 504 20<94 177 177 177> 721 20<89 184 184 184>
VStem: 94 83<0 524 0 524>
LayerCount: 2
Fore
SplineSet
177 524 m 1
 177 0 l 1
 94 0 l 1
 94 524 l 1
 177 524 l 1
89 741 m 1
 184 741 l 1
 280 591 l 1
 217 591 l 1
 136 687 l 1
 57 591 l 1
 -7 591 l 1
 89 741 l 1
EndSplineSet
EndChar

StartChar: idieresis
Encoding: 342 239 236
Width: 278
Flags: MW
HStem: 0 21G<94 177 94 94> 504 20G<94 177 177 177> 688 20G<3 107 107 107 165 269 269 269>
VStem: 94 83<0 524 0 524>
LayerCount: 2
Fore
SplineSet
177 524 m 1
 177 0 l 1
 94 0 l 1
 94 524 l 1
 177 524 l 1
107 708 m 1
 107 605 l 1
 3 605 l 1
 3 708 l 1
 107 708 l 1
269 708 m 1
 269 605 l 1
 165 605 l 1
 165 708 l 1
 269 708 l 1
EndSplineSet
EndChar

StartChar: eth
Encoding: 393 240 287
Width: 556
Flags: MW
HStem: -23 77<226.5 319 226.5 348.5> 462 75<234 263.5 234 320>
VStem: 36 87<195 316.5> 423 87<193.5 305 169 320>
LayerCount: 2
Fore
SplineSet
219 613 m 1
 122 568 l 1
 86 607 l 1
 171 647 l 1
 145 667 132 675 89 699 c 1
 133 743 l 1
 164 730 177 723 244 680 c 1
 341 725 l 1
 381 688 l 1
 291 647 l 1
 363 592 400 554 438 497 c 0
 489 419 510 351 510 259 c 0
 510 79 424 -23 273 -23 c 0
 122 -23 36 79 36 258 c 0
 36 375 71 458 140 502 c 1
 174 525 214 537 254 537 c 0
 273 537 287 534 317 524 c 1
 282 559 271 569 219 613 c 1
273 462 m 0
 180 462 123 384 123 258 c 0
 123 132 180 54 273 54 c 0
 365 54 423 132 423 255 c 0
 423 385 367 462 273 462 c 0
EndSplineSet
EndChar

StartChar: ntilde
Encoding: 350 241 244
Width: 556
Flags: W
HStem: 0 21G<70 154 70 70 404 487 404 404> 466 73<282 329> 613 67<337.5 350 335 371.5> 651 66<205.5 218.5>
VStem: 70 77<436 524 436 524 436 524> 70 84<0 289 0 524> 404 83<0 363 363 394.5>
LayerCount: 2
Fore
SplineSet
70 524 m 1xca
 147 524 l 1
 147 436 l 1xca
 193 509 243 539 321 539 c 0
 422 539 487 483 487 396 c 2
 487 0 l 1
 404 0 l 1
 404 363 l 2
 404 426 362 466 296 466 c 0
 210 466 154 396 154 289 c 2
 154 0 l 1
 70 0 l 1xc6
 70 524 l 1xca
378 717 m 1xd2
 436 717 l 1xd2
 426 648 396 613 347 613 c 0xe2
 328 613 316 617 262 638 c 0
 238 647 224 651 213 651 c 0
 198 651 186 637 180 614 c 1
 122 614 l 1
 133 680 164 717 208 717 c 0xd2
 229 717 236 715 278 698 c 1
 302 687 329 680 341 680 c 0xe2
 359 680 370 692 378 717 c 1xd2
EndSplineSet
EndChar

StartChar: ograve
Encoding: 353 242 247
Width: 556
Flags: MW
HStem: -23 77<226.5 319 226.5 346.5> 462 77<226.5 320> 720 20<132 245 245 245>
VStem: 36 87<194.5 321 194.5 346> 423 87<193.5 320>
LayerCount: 2
Fore
SplineSet
272 539 m 0
 423 539 510 435 510 254 c 0
 510 82 420 -23 273 -23 c 0
 124 -23 36 82 36 258 c 0
 36 434 125 539 272 539 c 0
273 462 m 0
 180 462 123 384 123 258 c 0
 123 131 180 54 273 54 c 0
 365 54 423 132 423 255 c 0
 423 385 367 462 273 462 c 0
245 740 m 1
 341 592 l 1
 281 592 l 1
 132 740 l 1
 245 740 l 1
EndSplineSet
EndChar

StartChar: oacute
Encoding: 352 243 246
Width: 556
Flags: MW
HStem: -23 77<226.5 319 226.5 346.5> 462 77<226.5 320> 720 20<298 411 411 411>
VStem: 36 87<194.5 321 194.5 346> 423 87<193.5 320>
LayerCount: 2
Fore
SplineSet
272 539 m 0
 423 539 510 435 510 254 c 0
 510 82 420 -23 273 -23 c 0
 124 -23 36 82 36 258 c 0
 36 434 125 539 272 539 c 0
273 462 m 0
 180 462 123 384 123 258 c 0
 123 131 180 54 273 54 c 0
 365 54 423 132 423 255 c 0
 423 385 367 462 273 462 c 0
298 740 m 1
 411 740 l 1
 262 592 l 1
 202 592 l 1
 298 740 l 1
EndSplineSet
EndChar

StartChar: ocircumflex
Encoding: 354 244 248
Width: 556
Flags: MW
HStem: -23 77<226.5 319 226.5 346.5> 462 77<226.5 320> 721 20<226 321 321 321>
VStem: 36 87<194.5 321 194.5 346> 423 87<193.5 320>
LayerCount: 2
Fore
SplineSet
272 539 m 0
 423 539 510 435 510 254 c 0
 510 82 420 -23 273 -23 c 0
 124 -23 36 82 36 258 c 0
 36 434 125 539 272 539 c 0
273 462 m 0
 180 462 123 384 123 258 c 0
 123 131 180 54 273 54 c 0
 365 54 423 132 423 255 c 0
 423 385 367 462 273 462 c 0
226 741 m 1
 321 741 l 1
 417 591 l 1
 354 591 l 1
 273 687 l 1
 194 591 l 1
 130 591 l 1
 226 741 l 1
EndSplineSet
EndChar

StartChar: otilde
Encoding: 355 245 249
Width: 556
Flags: MW
HStem: -23 77<226.5 319 226.5 346.5> 462 77<226.5 320> 651 66<202.5 215.5>
VStem: 36 87<194.5 321 194.5 346> 423 87<193.5 320>
LayerCount: 2
Fore
SplineSet
272 539 m 0
 423 539 510 435 510 254 c 0
 510 82 420 -23 273 -23 c 0
 124 -23 36 82 36 258 c 0
 36 434 125 539 272 539 c 0
273 462 m 0
 180 462 123 384 123 258 c 0
 123 131 180 54 273 54 c 0
 365 54 423 132 423 255 c 0
 423 385 367 462 273 462 c 0
375 717 m 1
 433 717 l 1
 423 648 393 613 344 613 c 0
 325 613 313 617 259 638 c 0
 235 647 221 651 210 651 c 0
 195 651 183 637 177 614 c 1
 119 614 l 1
 130 680 161 717 205 717 c 0
 226 717 233 715 275 698 c 1
 299 687 326 680 338 680 c 0
 356 680 367 692 375 717 c 1
EndSplineSet
EndChar

StartChar: odieresis
Encoding: 351 246 245
Width: 556
Flags: MW
HStem: -23 77<226.5 319 226.5 346.5> 462 77<226.5 320>
VStem: 36 87<194.5 321 194.5 346> 423 87<193.5 320>
LayerCount: 2
Fore
SplineSet
272 539 m 0
 423 539 510 435 510 254 c 0
 510 82 420 -23 273 -23 c 0
 124 -23 36 82 36 258 c 0
 36 434 125 539 272 539 c 0
273 462 m 0
 180 462 123 384 123 258 c 0
 123 131 180 54 273 54 c 0
 365 54 423 132 423 255 c 0
 423 385 367 462 273 462 c 0
244 715 m 1
 244 612 l 1
 140 612 l 1
 140 715 l 1
 244 715 l 1
406 715 m 1
 406 612 l 1
 302 612 l 1
 302 715 l 1
 406 715 l 1
EndSplineSet
EndChar

StartChar: divide
Encoding: 402 247 296
Width: 584
Flags: MW
HStem: 0 104<240 344 240 344> 201 70<50 534 50 534> 368 104<240 344 240 344>
VStem: 240 104<0 104 0 104 368 472>
LayerCount: 2
Fore
SplineSet
534 271 m 1
 534 201 l 1
 50 201 l 1
 50 271 l 1
 534 271 l 1
344 104 m 1
 344 0 l 1
 240 0 l 1
 240 104 l 1
 344 104 l 1
344 472 m 1
 344 368 l 1
 240 368 l 1
 240 472 l 1
 344 472 l 1
EndSplineSet
EndChar

StartChar: oslash
Encoding: 249 248 147
Width: 611
Flags: MW
HStem: -23 77<252 319.5 252 348> 462 77<226.5 295>
VStem: 36 87<234.5 321 234.5 346> 423 87<195 280>
LayerCount: 2
Fore
SplineSet
529 511 m 1
 466 440 l 1
 496 390 510 334 510 258 c 0
 510 82 422 -23 274 -23 c 0
 207 -23 151 -2 111 39 c 1
 50 -30 l 1
 18 -2 l 1
 84 72 l 1
 51 121 36 180 36 258 c 0
 36 434 125 539 273 539 c 0
 342 539 394 519 439 474 c 1
 497 539 l 1
 529 511 l 1
405 371 m 1
 167 102 l 1
 196 70 231 54 273 54 c 0
 366 54 423 132 423 258 c 0
 423 302 417 340 405 371 c 1
144 141 m 1
 383 410 l 1
 357 443 317 462 273 462 c 0
 180 462 123 384 123 258 c 0
 123 211 130 174 144 141 c 1
EndSplineSet
EndChar

StartChar: ucircumflex
Encoding: 365 251 259
Width: 556
Flags: W
HStem: -23 73<223 270.5> 504 20G<65 148 148 148 399 482 482 482> 721 20G<227 322 322 322>
VStem: 65 83<121.5 153 153 524> 399 83<227 524> 407 75<0 73 73 73>
LayerCount: 2
Fore
SplineSet
482 0 m 1xf4
 407 0 l 1
 407 73 l 1xf4
 358 4 309 -23 232 -23 c 0
 130 -23 65 33 65 120 c 2
 65 524 l 1
 148 524 l 1
 148 153 l 2
 148 90 190 50 256 50 c 0
 343 50 399 120 399 227 c 2
 399 524 l 1
 482 524 l 1xf8
 482 0 l 1xf4
227 741 m 1
 322 741 l 1
 418 591 l 1
 355 591 l 1
 274 687 l 1
 195 591 l 1
 131 591 l 1
 227 741 l 1
EndSplineSet
EndChar

StartChar: udieresis
Encoding: 362 252 256
Width: 556
Flags: W
HStem: -23 73<223 270.5> 504 20G<65 148 148 148 399 482 482 482>
VStem: 65 83<121.5 153 153 524> 399 83<227 524> 407 75<0 73 73 73>
LayerCount: 2
Fore
SplineSet
482 0 m 1xe8
 407 0 l 1
 407 73 l 1xe8
 358 4 309 -23 232 -23 c 0
 130 -23 65 33 65 120 c 2
 65 524 l 1
 148 524 l 1
 148 153 l 2
 148 90 190 50 256 50 c 0
 343 50 399 120 399 227 c 2
 399 524 l 1
 482 524 l 1xf0
 482 0 l 1xe8
245 715 m 1
 245 612 l 1
 141 612 l 1
 141 715 l 1
 245 715 l 1
407 715 m 1
 407 612 l 1
 303 612 l 1
 303 715 l 1
 407 715 l 1
EndSplineSet
EndChar

StartChar: thorn
Encoding: 394 254 288
Width: 555
Flags: MW
HStem: -23 78<264 328.5> 461 78<264.5 329>
VStem: 54 83<-218 55 196.5 319.5 459 714> 435 87<195.5 317.5>
LayerCount: 2
Fore
SplineSet
54 -218 m 1
 54 714 l 1
 137 714 l 1
 137 459 l 1
 173 510 231 539 298 539 c 0
 434 539 522 427 522 253 c 0
 522 86 433 -23 298 -23 c 0
 230 -23 181 1 137 55 c 1
 137 -218 l 1
 54 -218 l 1
283 461 m 0
 195 461 137 381 137 258 c 0
 137 135 195 55 283 55 c 0
 374 55 435 136 435 255 c 0
 435 380 375 461 283 461 c 0
EndSplineSet
EndChar

StartChar: ydieresis
Encoding: 372 255 266
Width: 500
Flags: MW
HStem: -218 82<99 115.5 92 123.5> 504 20<20 109 109 109 388 478 478 478> 612 103<113 217 113 217 113 275 275 379>
VStem: 113 104<612 715 612 715> 275 104<612 715 612 715>
LayerCount: 2
Fore
SplineSet
388 524 m 1
 478 524 l 1
 245 -110 l 2
 229 -152 214 -174 188 -193 c 0
 166 -209 137 -218 110 -218 c 0
 88 -218 71 -214 54 -205 c 1
 54 -130 l 1
 72 -134 86 -136 98 -136 c 0
 133 -136 152 -122 165 -85 c 1
 197 -2 l 1
 20 524 l 1
 109 524 l 1
 243 116 l 1
 388 524 l 1
217 715 m 1
 217 612 l 1
 113 612 l 1
 113 715 l 1
 217 715 l 1
379 715 m 1
 379 612 l 1
 275 612 l 1
 275 715 l 1
 379 715 l 1
EndSplineSet
EndChar

StartChar: Amacron
Encoding: 308 256 202
Width: 667
Flags: MW
HStem: 0 21<17 116 17 17 549 549 549 653> 219 78<216 448 216 474 193 448> 709 20<277 397 397 397> 830 70<198 472 198 472>
VStem: 198 274<830 900 830 900>
LayerCount: 2
Fore
SplineSet
474 219 m 1
 193 219 l 1
 116 0 l 1
 17 0 l 1
 277 729 l 1
 397 729 l 1
 653 0 l 1
 549 0 l 1
 474 219 l 1
448 297 m 1
 336 629 l 1
 216 297 l 1
 448 297 l 1
472 900 m 1
 472 830 l 1
 198 830 l 1
 198 900 l 1
 472 900 l 1
EndSplineSet
EndChar

StartChar: amacron
Encoding: 374 257 268
Width: 556
Flags: W
HStem: -23 70<451 519.5> -23 73<199.5 247> 462 77<237 309.5> 631 70<137 411 137 411>
VStem: 42 87<107.5 161.5 107.5 166> 137 274<631 701 631 701> 389 83<165 259 259 259 362 384 384 396>
LayerCount: 2
Fore
SplineSet
535 49 m 1xba
 535 -14 l 1
 508 -21 495 -23 478 -23 c 0xba
 424 -23 398 1 392 54 c 1
 333 0 280 -23 214 -23 c 0x7a
 108 -23 42 37 42 132 c 0
 42 200 73 247 134 272 c 0
 166 285 184 289 302 304 c 0
 368 312 389 327 389 362 c 2
 389 384 l 2
 389 434 347 462 272 462 c 0
 194 462 156 433 149 369 c 1
 65 369 l 1
 67 421 77 451 101 478 c 0
 136 517 199 539 275 539 c 0
 404 539 472 489 472 396 c 2
 472 88 l 2
 472 62 488 47 517 47 c 0
 522 47 526 47 535 49 c 1xba
389 165 m 2
 389 259 l 1
 361 246 343 242 255 230 c 0
 166 217 129 189 129 134 c 0
 129 81 167 50 232 50 c 0x7a
 281 50 322 66 356 97 c 0
 381 120 389 137 389 165 c 2
411 701 m 1x3c
 411 631 l 1
 137 631 l 1
 137 701 l 1
 411 701 l 1x3c
EndSplineSet
EndChar

StartChar: Abreve
Encoding: 260 258 154
Width: 667
Flags: MW
HStem: 0 21<17 116 17 17 549 549 549 653> 219 78<216 448 216 474 193 448> 709 20<277 397 397 397> 796 69<307.5 363 307.5 380.5>
LayerCount: 2
Fore
SplineSet
474 219 m 1
 193 219 l 1
 116 0 l 1
 17 0 l 1
 277 729 l 1
 397 729 l 1
 653 0 l 1
 549 0 l 1
 474 219 l 1
448 297 m 1
 336 629 l 1
 216 297 l 1
 448 297 l 1
185 931 m 1
 244 931 l 1
 249 887 279 865 336 865 c 0
 390 865 423 889 427 931 c 1
 486 931 l 1
 479 842 427 796 334 796 c 0
 278 796 233 816 206 853 c 0
 191 873 186 892 185 931 c 1
EndSplineSet
EndChar

StartChar: abreve
Encoding: 326 259 220
Width: 556
Flags: W
HStem: -23 70<451 519.5> -23 73<199.5 247> 462 77<237 309.5> 597 69<247.5 303 247.5 320.5> 712 20<125 184 184 184 367 426 426 426>
VStem: 42 87<107.5 161.5 107.5 166> 389 83<165 259 259 259 362 384 384 396>
LayerCount: 2
Fore
SplineSet
535 49 m 1xbe
 535 -14 l 1
 508 -21 495 -23 478 -23 c 0xbe
 424 -23 398 1 392 54 c 1
 333 0 280 -23 214 -23 c 0x7e
 108 -23 42 37 42 132 c 0
 42 200 73 247 134 272 c 0
 166 285 184 289 302 304 c 0
 368 312 389 327 389 362 c 2
 389 384 l 2
 389 434 347 462 272 462 c 0
 194 462 156 433 149 369 c 1
 65 369 l 1
 67 421 77 451 101 478 c 0
 136 517 199 539 275 539 c 0
 404 539 472 489 472 396 c 2
 472 88 l 2
 472 62 488 47 517 47 c 0
 522 47 526 47 535 49 c 1xbe
389 165 m 2
 389 259 l 1
 361 246 343 242 255 230 c 0
 166 217 129 189 129 134 c 0
 129 81 167 50 232 50 c 0x7e
 281 50 322 66 356 97 c 0
 381 120 389 137 389 165 c 2
125 732 m 1
 184 732 l 1
 189 688 219 666 276 666 c 0
 330 666 363 690 367 732 c 1
 426 732 l 1
 419 643 367 597 274 597 c 0
 218 597 173 617 146 654 c 0
 132 674 126 693 125 732 c 1
EndSplineSet
EndChar

StartChar: Aogonek
Encoding: 263 260 157
Width: 667
Flags: MW
HStem: -205 45<605.5 625.5> 0 21<17 116 17 17 549 549 549 585 653 653> 219 78<216 448 216 474 193 448> 709 20<277 397 397 397>
VStem: 484 73<-123 -87>
LayerCount: 2
Fore
SplineSet
474 219 m 1
 193 219 l 1
 116 0 l 1
 17 0 l 1
 277 729 l 1
 397 729 l 1
 653 0 l 1
 588 -31 557 -64 557 -105 c 0
 557 -141 582 -160 629 -160 c 0
 653 -160 674 -157 692 -150 c 1
 692 -195 l 1
 668 -200 635 -205 616 -205 c 0
 594 -205 569 -200 547 -192 c 0
 505 -176 484 -150 484 -111 c 0
 484 -63 514 -31 585 0 c 1
 549 0 l 1
 474 219 l 1
448 297 m 1
 336 629 l 1
 216 297 l 1
 448 297 l 1
EndSplineSet
EndChar

StartChar: aogonek
Encoding: 329 261 223
Width: 556
Flags: W
HStem: -205 45<515 533> -23 73<199.5 248> 462 77<238 311>
VStem: 43 86<107.5 161.5 107.5 166> 388 72<-123 -93> 389 84<165 259 259 259>
LayerCount: 2
Fore
SplineSet
536 49 m 1xf4
 536 -14 l 1
 488 -33 460 -66 460 -105 c 0
 460 -141 485 -160 532 -160 c 0
 557 -160 578 -157 596 -150 c 1
 596 -195 l 1
 571 -201 541 -205 525 -205 c 0
 505 -205 474 -199 451 -192 c 0
 411 -179 388 -150 388 -112 c 0xf8
 388 -74 406 -50 456 -23 c 1
 418 -16 397 10 393 54 c 1
 337 1 281 -23 215 -23 c 0
 109 -23 43 37 43 132 c 0
 43 200 74 246 136 272 c 0
 167 285 185 289 304 304 c 0
 369 312 390 326 390 362 c 2
 390 384 l 2
 390 435 349 462 273 462 c 0
 195 462 157 433 151 369 c 1
 67 369 l 1
 69 421 79 451 102 478 c 1
 138 517 200 539 276 539 c 0
 405 539 473 489 473 396 c 2
 473 88 l 2
 473 62 489 47 518 47 c 0
 523 47 527 47 536 49 c 1xf4
389 165 m 2xf4
 389 259 l 1
 361 246 343 242 255 230 c 0
 166 217 129 189 129 134 c 0
 129 81 167 50 232 50 c 0
 281 50 322 66 356 97 c 0
 381 120 389 137 389 165 c 2xf4
EndSplineSet
EndChar

StartChar: Ccircumflex
Encoding: 624 264 518
Width: 722
Flags: MW
HStem: -23 82<329.5 417 305.5 466> 659 82<332 399.5>
VStem: 48 93<296 415>
LayerCount: 2
Fore
SplineSet
330 929 m 1
 425 929 l 1
 521 779 l 1
 458 779 l 1
 377 875 l 1
 298 779 l 1
 234 779 l 1
 330 929 l 1
662 503 m 1
 567 503 l 1
 556 557 541 588 514 613 c 0
 484 641 429 659 370 659 c 0
 229 659 141 544 141 357 c 0
 141 175 233 59 378 59 c 0
 456 59 518 93 548 153 c 0
 563 182 573 216 581 266 c 1
 677 266 l 1
 655 73 555 -23 377 -23 c 0
 282 -23 210 4 154 62 c 0
 85 133 48 236 48 356 c 0
 48 474 84 578 150 650 c 0
 204 710 283 741 381 741 c 0
 541 741 633 663 662 503 c 1
EndSplineSet
EndChar

StartChar: ccircumflex
Encoding: 625 265 519
Width: 500
Flags: MW
HStem: -23 77<219 300.5 219 325.5> 462 77<217.5 298>
VStem: 31 87<191 318.5 191 340> 387 84<348 348>
LayerCount: 2
Fore
SplineSet
217 714 m 1
 312 714 l 1
 408 564 l 1
 345 564 l 1
 264 660 l 1
 185 564 l 1
 121 564 l 1
 217 714 l 1
471 348 m 1
 387 348 l 1
 377 421 333 462 263 462 c 0
 172 462 118 384 118 253 c 0
 118 129 173 54 265 54 c 0
 336 54 379 96 393 180 c 1
 477 180 l 1
 467 52 388 -23 263 -23 c 0
 121 -23 31 84 31 253 c 0
 31 427 123 539 264 539 c 0
 337 539 400 510 436 461 c 1
 456 432 467 399 471 348 c 1
EndSplineSet
EndChar

StartChar: cdotaccent
Encoding: 627 267 521
Width: 500
Flags: MW
HStem: -23 77<219 300.5 219 325.5> 462 77<217.5 298> 564 104<213 317 213 317>
VStem: 31 87<191 318.5 191 340> 213 104<564 668 564 668> 387 84<348 348>
LayerCount: 2
Fore
SplineSet
317 668 m 1
 317 564 l 1
 213 564 l 1
 213 668 l 1
 317 668 l 1
471 348 m 1
 387 348 l 1
 377 421 333 462 263 462 c 0
 172 462 118 384 118 253 c 0
 118 129 173 54 265 54 c 0
 336 54 379 96 393 180 c 1
 477 180 l 1
 467 52 388 -23 263 -23 c 0
 121 -23 31 84 31 253 c 0
 31 427 123 539 264 539 c 0
 337 539 400 510 436 461 c 1
 456 432 467 399 471 348 c 1
EndSplineSet
EndChar

StartChar: ccaron
Encoding: 331 269 225
Width: 500
Flags: MW
HStem: -23 77<219 300.5 219 325.5> 462 77<217.5 298> 721 20<122 185 185 185 345 409 409 409>
VStem: 31 87<191 318.5 191 340>
LayerCount: 2
Fore
SplineSet
471 348 m 1
 387 348 l 1
 377 421 333 462 263 462 c 0
 172 462 118 384 118 253 c 0
 118 129 173 54 265 54 c 0
 336 54 379 96 393 180 c 1
 477 180 l 1
 467 52 388 -23 263 -23 c 0
 121 -23 31 84 31 253 c 0
 31 427 123 539 264 539 c 0
 337 539 400 510 436 461 c 1
 456 432 467 399 471 348 c 1
313 591 m 1
 218 591 l 1
 122 741 l 1
 185 741 l 1
 266 645 l 1
 345 741 l 1
 409 741 l 1
 313 591 l 1
EndSplineSet
EndChar

StartChar: Dcaron
Encoding: 267 270 161
Width: 722
Flags: MW
HStem: 0 82<182 354 354 370> 647 82<182 354 182 182>
VStem: 89 93<82 82 82 647> 574 93<272 457>
LayerCount: 2
Fore
SplineSet
89 0 m 1
 89 729 l 1
 370 729 l 2
 555 729 667 591 667 365 c 0
 667 138 554 0 370 0 c 2
 89 0 l 1
182 82 m 1
 354 82 l 2
 498 82 574 180 574 364 c 0
 574 550 498 647 354 647 c 2
 182 647 l 1
 182 82 l 1
386 790 m 1
 291 790 l 1
 195 940 l 1
 258 940 l 1
 339 844 l 1
 418 940 l 1
 482 940 l 1
 386 790 l 1
EndSplineSet
EndChar

StartChar: dcaron
Encoding: 333 271 227
Width: 635
Flags: W
HStem: -23 78<220 290> 461 78<219.5 286 183 310> 505 38<548 556 548 567> 629 100<548 603 412 548>
VStem: 26 87<197 319 197 346.5> 412 83<195.5 318.5 458 729 0 729> 421 74<0 69 69 69> 548 100<505 626 543 626 629 729> 603 45<629 629>
LayerCount: 2
Fore
SplineSet
495 729 m 1xdc
 495 0 l 1
 421 0 l 1
 421 69 l 1xda
 376 4 326 -23 254 -23 c 0
 113 -23 26 86 26 263 c 0
 26 430 115 539 251 539 c 0
 321 539 377 511 412 458 c 1
 412 729 l 1
 495 729 l 1xdc
265 461 m 0
 174 461 113 380 113 258 c 0
 113 136 174 55 266 55 c 0
 354 55 412 135 412 256 c 0xdc
 412 381 355 461 265 461 c 0
548 729 m 1xb9
 648 729 l 1xb9
 648 626 l 2xb880
 648 556 610 505 556 505 c 2
 548 505 l 1
 548 543 l 1xb9
 586 543 605 574 603 629 c 1xb880
 548 629 l 1
 548 729 l 1xb9
EndSplineSet
EndChar

StartChar: Dcroat
Encoding: 390 272 284
Width: 722
Flags: W
HStem: 0 82<182 355 355 371> 339 67<20 89 20 89 182 353> 647 82<182 355 182 182>
VStem: 20 333<339 406 339 406> 89 93<82 339 82 339 82 339 406 647> 574 93<272 457.5>
LayerCount: 2
Fore
SplineSet
89 339 m 1xfc
 20 339 l 1
 20 406 l 1
 89 406 l 1
 89 729 l 1
 371 729 l 2
 555 729 667 591 667 365 c 0
 667 138 555 0 371 0 c 2
 89 0 l 1
 89 339 l 1xfc
182 339 m 1
 182 82 l 1
 355 82 l 2
 498 82 574 179 574 365 c 0
 574 550 498 647 355 647 c 2
 182 647 l 1
 182 406 l 1
 353 406 l 1
 353 339 l 1
 182 339 l 1
EndSplineSet
EndChar

StartChar: dcroat
Encoding: 392 273 286
Width: 556
Flags: W
HStem: -23 82<219.5 285.5> 0 21<420 494 420 420> 457 82<219.5 284 182.5 309.5> 600 53<261 411 261 411 494 557> 709 20<411 494 494 494>
VStem: 26 87<198.5 317.5 198.5 347> 261 296<600 653 600 653> 411 83<196.5 317.5 461 600 0 600 653 729> 420 74<0 59 59 59>
LayerCount: 2
Fore
SplineSet
494 653 m 1x7f
 557 653 l 1
 557 600 l 1
 494 600 l 1xbd
 494 0 l 1
 420 0 l 1x7c80
 420 59 l 1xbc80
 372 3 319 -23 252 -23 c 0
 116 -23 26 91 26 264 c 0
 26 430 115 539 250 539 c 0
 318 539 367 515 411 461 c 1
 411 600 l 1
 261 600 l 1
 261 653 l 1
 411 653 l 1
 411 729 l 1xbd
 494 729 l 1x7c80
 494 653 l 1x7f
265 457 m 0
 174 457 113 377 113 258 c 0
 113 139 174 59 265 59 c 0
 353 59 411 137 411 256 c 0
 411 379 354 457 265 457 c 0
EndSplineSet
EndChar

StartChar: Emacron
Encoding: 311 274 205
Width: 667
Flags: W
HStem: 0 82<183 613 183 613> 332 82<183 580 183 580> 647 82<183 595 183 183> 830 70<208 482 208 482>
VStem: 90 93<82 332 82 414 414 647> 90 505<647 729 647 729 647 729> 90 523<0 82 0 729> 208 274<830 900 830 900>
LayerCount: 2
Fore
SplineSet
183 332 m 1xfc
 183 82 l 1xfc
 613 82 l 1
 613 0 l 1
 90 0 l 1
 90 729 l 1xf2
 595 729 l 1
 595 647 l 1
 183 647 l 1
 183 414 l 1
 580 414 l 1
 580 332 l 1
 183 332 l 1xfc
482 900 m 1xf1
 482 830 l 1
 208 830 l 1
 208 900 l 1
 482 900 l 1xf1
EndSplineSet
EndChar

StartChar: ebreve
Encoding: 629 277 523
Width: 556
Flags: W
HStem: -23 77<254.5 314.5 254.5 338> 234 68<129 423 129 513 127 423> 462 77<237 320> 564 69<292.5 348 292.5 365.5> 679 20G<170 229 229 229 412 471 471 471>
VStem: 170 59<699 699> 412 59<699 699> 424 89<234 351>
LayerCount: 2
Fore
SplineSet
170 699 m 1xfe
 229 699 l 1
 234 655 264 633 321 633 c 0
 375 633 408 657 412 699 c 1
 471 699 l 1
 464 610 412 564 319 564 c 0
 263 564 218 584 191 621 c 0
 177 641 171 660 170 699 c 1xfe
513 234 m 1xfd
 127 234 l 1
 128 182 135 152 155 122 c 0
 183 78 228 54 281 54 c 0
 348 54 395 90 418 159 c 1
 502 159 l 1
 481 45 398 -23 278 -23 c 0
 131 -23 40 83 40 255 c 0
 40 427 134 539 280 539 c 0
 378 539 458 487 492 401 c 0
 507 362 513 314 513 234 c 1xfd
129 302 m 1
 423 302 l 1
 424 304 424 306 424 308 c 0
 424 394 361 462 279 462 c 0
 195 462 136 399 129 302 c 1
EndSplineSet
EndChar

StartChar: Edotaccent
Encoding: 273 278 167
Width: 667
Flags: MW
HStem: 0 82<183 613 183 613> 332 82<183 580 183 580> 647 82<183 595 183 183>
VStem: 90 93<82 332 82 414 414 647>
LayerCount: 2
Fore
SplineSet
183 332 m 1
 183 82 l 1
 613 82 l 1
 613 0 l 1
 90 0 l 1
 90 729 l 1
 595 729 l 1
 595 647 l 1
 183 647 l 1
 183 414 l 1
 580 414 l 1
 580 332 l 1
 183 332 l 1
397 915 m 1
 397 811 l 1
 293 811 l 1
 293 915 l 1
 397 915 l 1
EndSplineSet
EndChar

StartChar: edotaccent
Encoding: 339 279 233
Width: 556
Flags: MW
HStem: -23 77<254.5 314.5 254.5 338> 234 68<129 423 129 513 127 423> 462 77<237 320> 612 104<233 337 233 337>
VStem: 41 86 233 104<612 716 612 716>
LayerCount: 2
Fore
SplineSet
513 234 m 1
 127 234 l 1
 128 182 135 152 155 122 c 0
 183 78 228 54 281 54 c 0
 348 54 395 90 418 159 c 1
 502 159 l 1
 481 45 398 -23 278 -23 c 0
 131 -23 40 83 40 255 c 0
 40 427 134 539 280 539 c 0
 378 539 458 487 492 401 c 0
 507 362 513 314 513 234 c 1
129 302 m 1
 423 302 l 1
 424 304 424 306 424 308 c 0
 424 394 361 462 279 462 c 0
 195 462 136 399 129 302 c 1
337 716 m 1
 337 612 l 1
 233 612 l 1
 233 716 l 1
 337 716 l 1
EndSplineSet
EndChar

StartChar: Eogonek
Encoding: 274 280 168
Width: 667
Flags: W
HStem: -205 45<566 586> 0 82<183 545 183 613> 332 82<183 580 183 580> 647 82<183 595 183 183>
VStem: 90 93<82 332 82 414 414 647> 90 505<647 729 647 729 647 729> 90 523<0 82 0 729> 444 73<-123.5 -87>
LayerCount: 2
Fore
SplineSet
183 332 m 1xfc
 183 82 l 1xfc
 613 82 l 1
 613 0 l 1xf2
 549 -30 517 -65 517 -106 c 0
 517 -141 542 -160 589 -160 c 0
 613 -160 634 -157 652 -150 c 1
 652 -195 l 1
 629 -200 595 -205 577 -205 c 0
 555 -205 530 -200 507 -192 c 0
 465 -176 444 -150 444 -111 c 0xf1
 444 -63 474 -30 545 0 c 1
 90 0 l 1
 90 729 l 1xf2
 595 729 l 1
 595 647 l 1
 183 647 l 1
 183 414 l 1
 580 414 l 1
 580 332 l 1
 183 332 l 1xfc
EndSplineSet
EndChar

StartChar: eogonek
Encoding: 340 281 234
Width: 556
Flags: W
HStem: -204 44<400.5 429> -23 77<255 290.5> 234 68<130 424 130 513 127 424> 462 77<237 320>
VStem: 40 473<234 234 234 340.5> 41 86 279 72<-125 -104.5>
LayerCount: 2
Fore
SplineSet
513 234 m 1xfc
 127 234 l 1
 128 182 136 152 155 122 c 0
 184 78 229 54 281 54 c 0
 348 54 395 90 419 159 c 1
 503 159 l 1
 493 104 468 61 422 15 c 1
 368 -41 351 -71 351 -109 c 0
 351 -141 378 -160 423 -160 c 0
 448 -160 469 -157 487 -150 c 1
 487 -195 l 1
 460 -201 440 -204 418 -204 c 0
 334 -204 279 -169 279 -116 c 0
 279 -93 290 -67 307 -48 c 0
 314 -41 321 -35 347 -15 c 1
 317 -21 302 -23 279 -23 c 0xf6
 130 -23 40 81 40 254 c 0
 40 427 134 539 280 539 c 0
 378 539 459 487 492 401 c 0
 507 363 514 314 513 234 c 1xfc
424 302 m 1
 424 308 l 2
 424 394 361 462 279 462 c 0xf2
 195 462 136 399 130 302 c 1
 424 302 l 1
EndSplineSet
EndChar

StartChar: Ecaron
Encoding: 272 282 166
Width: 667
Flags: W
HStem: 0 82<183 613 183 613> 332 82<183 580 183 580> 647 82<183 595 183 183>
VStem: 90 93<82 332 82 414 414 647> 90 505<647 729 647 729 647 729> 90 523<0 82 0 729>
LayerCount: 2
Fore
SplineSet
183 332 m 1xf8
 183 82 l 1xf8
 613 82 l 1
 613 0 l 1
 90 0 l 1
 90 729 l 1xe4
 595 729 l 1
 595 647 l 1
 183 647 l 1
 183 414 l 1
 580 414 l 1
 580 332 l 1
 183 332 l 1xf8
392 790 m 1
 297 790 l 1
 201 940 l 1
 264 940 l 1
 345 844 l 1
 424 940 l 1
 488 940 l 1
 392 790 l 1
EndSplineSet
EndChar

StartChar: ecaron
Encoding: 338 283 232
Width: 556
Flags: W
HStem: -23 77<254.5 314.5 254.5 338> 234 68<129 423 129 513 127 423> 462 77<237 320> 721 20<143 206 206 206 366 430 430 430>
VStem: 40 473<234 274 234 341> 41 86
LayerCount: 2
Fore
SplineSet
513 234 m 1xfc
 127 234 l 1
 128 182 135 152 155 122 c 0
 183 78 228 54 281 54 c 0
 348 54 395 90 418 159 c 1
 502 159 l 1
 481 45 398 -23 278 -23 c 0
 131 -23 40 83 40 255 c 0
 40 427 134 539 280 539 c 0
 378 539 458 487 492 401 c 0
 507 362 513 314 513 234 c 1xfc
129 302 m 1
 423 302 l 1
 424 304 424 306 424 308 c 0
 424 394 361 462 279 462 c 0
 195 462 136 399 129 302 c 1
334 591 m 1
 239 591 l 1
 143 741 l 1
 206 741 l 1
 287 645 l 1
 366 741 l 1
 430 741 l 1
 334 591 l 1
EndSplineSet
EndChar

StartChar: Gcircumflex
Encoding: 630 284 524
Width: 778
Flags: MW
HStem: -23 82<361 427.5> 303 82<405 627 405 709> 659 82<349.5 448.5>
VStem: 44 93<317 422.5> 627 82<93 93 283 303 303 303>
LayerCount: 2
Fore
SplineSet
346 939 m 1
 441 939 l 1
 537 789 l 1
 474 789 l 1
 393 885 l 1
 314 789 l 1
 250 789 l 1
 346 939 l 1
709 385 m 1
 709 -4 l 1
 650 -4 l 1
 627 93 l 1
 556 14 477 -23 378 -23 c 0
 181 -23 44 133 44 357 c 0
 44 488 92 601 176 671 c 0
 233 718 305 741 394 741 c 0
 561 741 673 656 699 508 c 1
 604 508 l 1
 584 602 504 659 393 659 c 0
 239 659 137 541 137 362 c 0
 137 272 166 185 214 133 c 0
 257 86 324 59 398 59 c 0
 531 59 627 153 627 283 c 2
 627 303 l 1
 405 303 l 1
 405 385 l 1
 709 385 l 1
EndSplineSet
EndChar

StartChar: Gbreve
Encoding: 275 286 169
Width: 778
Flags: W
HStem: -23 82<361 427.5> 303 82<405 627 405 709> 659 82<349.5 448.5> 796 69<371.5 427 371.5 444.5>
VStem: 44 93<317 422.5> 405 304<303 385 -4 385> 627 82<93 93 283 303 303 303>
LayerCount: 2
Fore
SplineSet
709 385 m 1xfe
 709 -4 l 1
 650 -4 l 1
 627 93 l 1
 556 14 477 -23 378 -23 c 0
 181 -23 44 133 44 357 c 0
 44 488 92 601 176 671 c 0
 233 718 305 741 394 741 c 0
 561 741 673 656 699 508 c 1
 604 508 l 1
 584 602 504 659 393 659 c 0
 239 659 137 541 137 362 c 0
 137 272 166 185 214 133 c 0
 257 86 324 59 398 59 c 0
 531 59 627 153 627 283 c 2
 627 303 l 1
 405 303 l 1
 405 385 l 1
 709 385 l 1xfe
249 931 m 1
 308 931 l 1
 313 887 343 865 400 865 c 0
 454 865 487 889 491 931 c 1
 550 931 l 1
 543 842 491 796 398 796 c 0
 342 796 297 816 270 853 c 0
 255 873 250 892 249 931 c 1
EndSplineSet
EndChar

StartChar: gbreve
Encoding: 341 287 235
Width: 556
Flags: W
HStem: -218 70<239 283.5 239 294> -23 77<217.5 278> 462 77<216.5 285.5 185.5 306> 504 20<412 489 489 489> 597 69<254.5 310 254.5 327.5> 712 20<132 191 191 191 374 433 433 433>
VStem: 29 87<210 321 194.5 338> 404 84 412 77<448 524>
LayerCount: 2
Fore
SplineSet
412 524 m 1xde80
 489 524 l 1
 489 86 l 2xde80
 489 -37 474 -103 434 -151 c 0
 400 -193 333 -218 255 -218 c 0
 132 -218 55 -159 46 -60 c 1
 131 -60 l 1
 136 -91 144 -105 163 -120 c 0
 186 -138 220 -148 258 -148 c 0
 309 -148 352 -130 374 -99 c 0
 395 -70 404 -27 404 44 c 2
 404 71 l 1
 357 5 311 -23 245 -23 c 0
 190 -23 134 3 95 47 c 0
 52 97 29 167 29 253 c 0
 29 423 119 539 252 539 c 0xef
 319 539 370 510 412 448 c 1
 412 524 l 1xde80
261 462 m 0xef
 172 462 116 384 116 258 c 0
 116 131 171 54 262 54 c 0
 350 54 404 130 404 255 c 0
 404 386 351 462 261 462 c 0xef
132 732 m 1
 191 732 l 1
 196 688 226 666 283 666 c 0
 337 666 370 690 374 732 c 1
 433 732 l 1
 426 643 374 597 281 597 c 0
 225 597 180 617 153 654 c 0
 139 674 133 693 132 732 c 1
EndSplineSet
EndChar

StartChar: Gdotaccent
Encoding: 632 288 526
Width: 778
Flags: MW
HStem: -23 82<361 427.5> 303 82<405 627 405 709> 659 82<349.5 448.5> 789 104<332 445 332 445>
VStem: 44 93<317 422.5> 332 113<789 893 789 893> 627 82<93 93 283 303 303 303>
LayerCount: 2
Fore
SplineSet
445 893 m 1
 445 789 l 1
 332 789 l 1
 332 893 l 1
 445 893 l 1
709 385 m 1
 709 -4 l 1
 650 -4 l 1
 627 93 l 1
 556 14 477 -23 378 -23 c 0
 181 -23 44 133 44 357 c 0
 44 488 92 601 176 671 c 0
 233 718 305 741 394 741 c 0
 561 741 673 656 699 508 c 1
 604 508 l 1
 584 602 504 659 393 659 c 0
 239 659 137 541 137 362 c 0
 137 272 166 185 214 133 c 0
 257 86 324 59 398 59 c 0
 531 59 627 153 627 283 c 2
 627 303 l 1
 405 303 l 1
 405 385 l 1
 709 385 l 1
EndSplineSet
EndChar

StartChar: gdotaccent
Encoding: 633 289 527
Width: 556
Flags: W
HStem: -218 70<239 283.5 239 294> -23 77<217.5 278> 462 77<216.5 285.5 185.5 306> 594 104<231 335 231 335>
VStem: 29 87<210 321 194.5 338> 231 104<594 698 594 698> 404 85<44 71 71 71 192.5 320.5> 412 77<448 524>
LayerCount: 2
Fore
SplineSet
335 698 m 1xfc
 335 594 l 1
 231 594 l 1
 231 698 l 1
 335 698 l 1xfc
412 524 m 1xfd
 489 524 l 1
 489 86 l 2xfd
 489 -37 474 -103 434 -151 c 0
 400 -193 333 -218 255 -218 c 0
 132 -218 55 -159 46 -60 c 1
 131 -60 l 1
 136 -91 144 -105 163 -120 c 0
 186 -138 220 -148 258 -148 c 0
 309 -148 352 -130 374 -99 c 0
 395 -70 404 -27 404 44 c 2
 404 71 l 1xfe
 357 5 311 -23 245 -23 c 0
 190 -23 134 3 95 47 c 0
 52 97 29 167 29 253 c 0
 29 423 119 539 252 539 c 0
 319 539 370 510 412 448 c 1
 412 524 l 1xfd
261 462 m 0
 172 462 116 384 116 258 c 0
 116 131 171 54 262 54 c 0
 350 54 404 130 404 255 c 0xfe
 404 386 351 462 261 462 c 0
EndSplineSet
EndChar

StartChar: Gcommaaccent
Encoding: 319 290 213
Width: 778
Flags: W
HStem: -284 38<337 356> -160 100<337 392 337 437> -23 82<361 427.5> 303 82<405 627 405 709> 659 82<349.5 448.5>
VStem: 44 93<317 422.5> 337 100<-284 -163 -246 -163 -160 -60> 405 304<303 385 -4 385> 627 82<93 93 283 303 303 303>
LayerCount: 2
Fore
SplineSet
709 385 m 1xfd80
 709 -4 l 1
 650 -4 l 1
 627 93 l 1
 556 14 477 -23 378 -23 c 0
 181 -23 44 133 44 357 c 0
 44 488 92 601 176 671 c 0
 233 718 305 741 394 741 c 0
 561 741 673 656 699 508 c 1
 604 508 l 1
 584 602 504 659 393 659 c 0
 239 659 137 541 137 362 c 0
 137 272 166 185 214 133 c 0
 257 86 324 59 398 59 c 0
 531 59 627 153 627 283 c 2
 627 303 l 1
 405 303 l 1
 405 385 l 1
 709 385 l 1xfd80
337 -60 m 1xfe
 437 -60 l 1
 437 -163 l 2
 437 -238 399 -285 337 -284 c 1
 337 -246 l 1
 375 -246 394 -215 392 -160 c 1
 337 -160 l 1
 337 -60 l 1xfe
EndSplineSet
EndChar

StartChar: gcommaaccent
Encoding: 386 291 280
Width: 556
Flags: W
HStem: -218 70<239 283.5 239 294> -23 77<217.5 278> 462 77<216.5 285.5 185.5 306> 504 20<412 489 489 489> 592 100<277 332 277 332 232 332>
VStem: 29 87<210 321 194.5 338> 232 45<692 692 692 695 692 732.5> 232 100<592 692> 404 84 412 77<448 524>
LayerCount: 2
Fore
SplineSet
412 524 m 1xdc40
 489 524 l 1
 489 86 l 2xdc40
 489 -37 474 -103 434 -151 c 0
 400 -193 333 -218 255 -218 c 0
 132 -218 55 -159 46 -60 c 1
 131 -60 l 1
 136 -91 144 -105 163 -120 c 0
 186 -138 220 -148 258 -148 c 0
 309 -148 352 -130 374 -99 c 0
 395 -70 404 -27 404 44 c 2
 404 71 l 1
 357 5 311 -23 245 -23 c 0
 190 -23 134 3 95 47 c 0
 52 97 29 167 29 253 c 0
 29 423 119 539 252 539 c 0xec80
 319 539 370 510 412 448 c 1
 412 524 l 1xdc40
261 462 m 0xec80
 172 462 116 384 116 258 c 0
 116 131 171 54 262 54 c 0
 350 54 404 130 404 255 c 0
 404 386 351 462 261 462 c 0xec80
332 592 m 1xcd
 232 592 l 1xcd
 232 695 l 2xce
 232 770 270 817 332 816 c 1
 332 778 l 1
 330 777 l 1
 293 776 275 747 277 692 c 1
 332 692 l 1
 332 592 l 1xcd
EndSplineSet
EndChar

StartChar: Hcircumflex
Encoding: 634 292 528
Width: 722
Flags: MW
HStem: 0 21G<83 177 83 83 551 551 551 644> 332 82<177 551 177 177> 709 20G<83 176 176 176 551 644 644 644>
VStem: 83 94<0 332 0 729> 551 93<0 332 332 332 414 729 0 729>
LayerCount: 2
Fore
SplineSet
316 919 m 1
 411 919 l 1
 507 769 l 1
 444 769 l 1
 363 865 l 1
 284 769 l 1
 220 769 l 1
 316 919 l 1
551 332 m 1
 177 332 l 1
 177 0 l 1
 83 0 l 1
 83 729 l 1
 176 729 l 1
 176 414 l 1
 551 414 l 1
 551 729 l 1
 644 729 l 1
 644 0 l 1
 551 0 l 1
 551 332 l 1
EndSplineSet
EndChar

StartChar: hcircumflex
Encoding: 635 293 529
Width: 556
Flags: MW
HStem: 0 21G<70 153 70 70 403 486 403 403> 466 73<284 308.5> 709 20G<70 153 153 153>
VStem: 70 83<0 289 452 729> 403 83<0 363 363 381.5>
LayerCount: 2
Fore
SplineSet
64 919 m 1
 159 919 l 1
 255 769 l 1
 192 769 l 1
 111 865 l 1
 32 769 l 1
 -32 769 l 1
 64 919 l 1
70 729 m 1
 153 729 l 1
 153 452 l 1
 202 516 247 539 321 539 c 0
 423 539 486 484 486 396 c 2
 486 0 l 1
 403 0 l 1
 403 363 l 2
 403 400 393 425 369 442 c 0
 349 457 322 466 295 466 c 0
 209 466 153 396 153 289 c 2
 153 0 l 1
 70 0 l 1
 70 729 l 1
EndSplineSet
EndChar

StartChar: Hbar
Encoding: 636 294 530
Width: 785
Flags: MW
HStem: 0 21G<113 207 113 113 581 674 581 581> 332 82<207 581 207 207> 531 70<38 113 38 113 206 581 674 752> 709 20G<113 206 206 206 581 674 674 674>
VStem: 113 94<0 332 0 531> 581 93<0 332 332 332 414 531 0 531 601 729>
LayerCount: 2
Fore
SplineSet
674 601 m 1
 752 601 l 1
 752 531 l 1
 674 531 l 1
 674 0 l 1
 581 0 l 1
 581 332 l 1
 207 332 l 1
 207 0 l 1
 113 0 l 1
 113 531 l 1
 38 531 l 1
 38 601 l 1
 113 601 l 1
 113 729 l 1
 206 729 l 1
 206 601 l 1
 581 601 l 1
 581 729 l 1
 674 729 l 1
 674 601 l 1
581 531 m 1
 206 531 l 1
 206 414 l 1
 581 414 l 1
 581 531 l 1
EndSplineSet
EndChar

StartChar: Itilde
Encoding: 638 296 532
Width: 278
Flags: W
HStem: 0 21G<100 194 100 100> 709 20G<100 194 194 194> 769 67<205.5 218 203 239.5> 769 104 807 66<73.5 86.5>
VStem: 100 94<0 729 0 729>
LayerCount: 2
Fore
SplineSet
246 873 m 1xd4
 304 873 l 1xcc
 294 804 264 769 215 769 c 0xe4
 196 769 184 773 130 794 c 0
 106 803 92 807 81 807 c 0
 66 807 54 793 48 770 c 1
 -10 770 l 1
 1 836 32 873 76 873 c 0xcc
 97 873 104 871 146 854 c 1
 170 843 197 836 209 836 c 0xe4
 227 836 238 848 246 873 c 1xd4
194 729 m 1
 194 0 l 1
 100 0 l 1
 100 729 l 1
 194 729 l 1
EndSplineSet
EndChar

StartChar: itilde
Encoding: 639 297 533
Width: 278
Flags: W
HStem: 0 21G<94 178 94 94> 504 20G<94 178 178 178> 564 67<194.5 207 192 228.5> 564 104 602 66<62.5 75.5>
VStem: 94 84<0 524 0 524>
LayerCount: 2
Fore
SplineSet
235 668 m 1xd4
 293 668 l 1xcc
 283 599 253 564 204 564 c 0xe4
 185 564 173 568 119 589 c 0
 95 598 81 602 70 602 c 0
 55 602 43 588 37 565 c 1
 -21 565 l 1
 -10 631 21 668 65 668 c 0xcc
 86 668 93 666 135 649 c 1
 159 638 186 631 198 631 c 0xe4
 216 631 227 643 235 668 c 1xd4
178 524 m 1
 178 0 l 1
 94 0 l 1
 94 524 l 1
 178 524 l 1
EndSplineSet
EndChar

StartChar: Imacron
Encoding: 312 298 206
Width: 278
Flags: MW
HStem: 0 21G<100 194 100 100> 709 20G<100 194 194 194> 830 70<20 274 20 274>
VStem: 100 94<0 729 0 729>
LayerCount: 2
Fore
SplineSet
194 729 m 1
 194 0 l 1
 100 0 l 1
 100 729 l 1
 194 729 l 1
274 900 m 1
 274 830 l 1
 20 830 l 1
 20 900 l 1
 274 900 l 1
EndSplineSet
EndChar

StartChar: imacron
Encoding: 376 299 270
Width: 222
Flags: MW
HStem: 0 21G<66 149 66 66> 504 20G<66 149 149 149> 631 70<-16 231 -16 231>
VStem: 66 83<0 524 0 524>
LayerCount: 2
Fore
SplineSet
149 524 m 1
 149 0 l 1
 66 0 l 1
 66 524 l 1
 149 524 l 1
231 701 m 1
 231 631 l 1
 -16 631 l 1
 -16 701 l 1
 231 701 l 1
EndSplineSet
EndChar

StartChar: Ibreve
Encoding: 640 300 534
Width: 278
Flags: MW
HStem: 0 21G<100 194 100 100> 709 20G<100 194 194 194> 769 69<118.5 174 118.5 191.5>
VStem: -4 59<904 904> 100 94<0 729 0 729> 238 59<904 904>
LayerCount: 2
Fore
SplineSet
-4 904 m 1
 55 904 l 1
 60 860 90 838 147 838 c 0
 201 838 234 862 238 904 c 1
 297 904 l 1
 290 815 238 769 145 769 c 0
 89 769 44 789 17 826 c 0
 3 846 -3 865 -4 904 c 1
194 729 m 1
 194 0 l 1
 100 0 l 1
 100 729 l 1
 194 729 l 1
EndSplineSet
EndChar

StartChar: ibreve
Encoding: 641 301 535
Width: 278
Flags: MW
HStem: 0 21G<94 178 94 94> 504 20G<94 178 178 178> 564 69<108.5 164 108.5 181.5> 679 20G<-14 45 45 45 228 287 287 287>
VStem: -14 59<699 699> 94 84<0 524 0 524> 228 59<699 699>
LayerCount: 2
Fore
SplineSet
-14 699 m 1
 45 699 l 1
 50 655 80 633 137 633 c 0
 191 633 224 657 228 699 c 1
 287 699 l 1
 280 610 228 564 135 564 c 0
 79 564 34 584 7 621 c 0
 -7 641 -13 660 -14 699 c 1
178 524 m 1
 178 0 l 1
 94 0 l 1
 94 524 l 1
 178 524 l 1
EndSplineSet
EndChar

StartChar: Iogonek
Encoding: 313 302 207
Width: 278
Flags: W
HStem: -204 45<173.5 184> 709 20<100 194 194 194>
VStem: 66 72<-122.5 -94> 100 94<0 729 0 729>
LayerCount: 2
Fore
SplineSet
194 729 m 1xd0
 194 0 l 1xd0
 158 -33 138 -71 138 -107 c 0
 138 -138 158 -159 189 -159 c 0
 203 -159 216 -156 234 -150 c 1
 234 -195 l 1
 216 -200 193 -204 175 -204 c 0
 110 -204 66 -169 66 -116 c 0xe0
 66 -72 86 -41 143 0 c 1
 100 0 l 1
 100 729 l 1
 194 729 l 1xd0
EndSplineSet
EndChar

StartChar: iogonek
Encoding: 387 303 281
Width: 222
Flags: W
HStem: -204 45<132 140.5> -20 20G<67 99 67 67 150 150> 504 20G<67 150 150 150> 709 20G<66 150 150 150>
VStem: 25 72<-119.5 -95> 66 84<624 729>
LayerCount: 2
Fore
SplineSet
150 524 m 1xf4
 150 0 l 1xf4
 120 -27 97 -71 97 -103 c 0
 97 -136 117 -159 147 -159 c 0
 160 -159 172 -156 190 -150 c 1
 190 -195 l 1
 173 -200 149 -204 132 -204 c 0
 69 -204 25 -168 25 -116 c 0xf8
 25 -74 43 -45 99 0 c 1
 67 0 l 1
 67 524 l 1
 150 524 l 1xf4
150 729 m 1
 150 624 l 1
 66 624 l 1
 66 729 l 1
 150 729 l 1
EndSplineSet
EndChar

StartChar: Idotaccent
Encoding: 280 304 174
Width: 278
Flags: MW
HStem: 0 21G<101 195 101 101> 709 20G<101 195 195 195>
VStem: 101 94<0 729 0 729>
LayerCount: 2
Fore
SplineSet
195 729 m 1
 195 0 l 1
 101 0 l 1
 101 729 l 1
 195 729 l 1
196 915 m 1
 196 811 l 1
 92 811 l 1
 92 915 l 1
 196 915 l 1
EndSplineSet
EndChar

StartChar: dotlessi
Encoding: 245 305 145
Width: 278
Flags: MW
HStem: 0 21<94 178 94 94> 504 20<94 178 178 178>
VStem: 94 84<0 524 0 524>
LayerCount: 2
Fore
SplineSet
178 524 m 1
 178 0 l 1
 94 0 l 1
 94 524 l 1
 178 524 l 1
EndSplineSet
EndChar

StartChar: IJ
Encoding: 642 306 536
Width: 700
Flags: MW
HStem: -23 78<386 439.5 386 483.5> 709 20G<100 194 194 194 533 626 626 626>
VStem: 100 94<0 729 0 729> 217 95<170 187 187 234 144.5 234> 533 93<216 729>
LayerCount: 2
Fore
SplineSet
194 729 m 1
 194 0 l 1
 100 0 l 1
 100 729 l 1
 194 729 l 1
533 729 m 1
 626 729 l 1
 626 182 l 2
 626 56 547 -23 420 -23 c 0
 295 -23 217 52 217 170 c 2
 217 234 l 1
 312 234 l 1
 312 187 l 2
 312 102 351 55 421 55 c 0
 458 55 492 72 510 100 c 0
 527 125 533 158 533 216 c 2
 533 729 l 1
EndSplineSet
Ligature2: "'liga' Standard Ligatures in Latin lookup 0 subtable" I J
EndChar

StartChar: ij
Encoding: 643 307 537
Width: 374
Flags: MW
HStem: -218 73<155.5 179.5 152.5 209> 0 21G<67 150 67 67> 504 20G<67 150 150 150 222 305 305 305> 624 105<66 150 66 150 66 222 222 305>
VStem: 67 83<0 524 0 524> 222 83<-76 524 624 729>
LayerCount: 2
Fore
SplineSet
150 524 m 1
 150 0 l 1
 67 0 l 1
 67 524 l 1
 150 524 l 1
150 729 m 1
 150 624 l 1
 66 624 l 1
 66 729 l 1
 150 729 l 1
222 524 m 1
 305 524 l 1
 305 -109 l 2
 305 -180 256 -218 162 -218 c 0
 149 -218 144 -217 134 -215 c 1
 134 -144 l 1
 151 -145 151 -145 154 -145 c 0
 205 -145 222 -128 222 -76 c 2
 222 524 l 1
305 729 m 1
 305 624 l 1
 222 624 l 1
 222 729 l 1
 305 729 l 1
EndSplineSet
Ligature2: "'liga' Standard Ligatures in Latin lookup 0 subtable" i j
EndChar

StartChar: Jcircumflex
Encoding: 644 308 538
Width: 500
Flags: MW
HStem: -23 78<186 239.5 186 283.5> 709 20G<333 426 426 426>
VStem: 17 95<170 187 187 234 144.5 234> 333 93<216 729>
LayerCount: 2
Fore
SplineSet
332 919 m 1
 427 919 l 1
 523 769 l 1
 460 769 l 1
 379 865 l 1
 300 769 l 1
 236 769 l 1
 332 919 l 1
333 729 m 1
 426 729 l 1
 426 182 l 2
 426 56 347 -23 220 -23 c 0
 95 -23 17 52 17 170 c 2
 17 234 l 1
 112 234 l 1
 112 187 l 2
 112 102 151 55 221 55 c 0
 258 55 292 72 310 100 c 0
 327 125 333 158 333 216 c 2
 333 729 l 1
EndSplineSet
EndChar

StartChar: Kcommaaccent
Encoding: 314 310 208
Width: 667
Flags: MW
HStem: -284 38<299 318> -160 100<299 354 299 399> 0 21<79 172 79 79 548 548 548 658> 709 20<79 172 172 172 535 655 655 655>
VStem: 79 93<0 255 360 729> 299 100<-284 -163 -246 -163 -160 -60>
LayerCount: 2
Fore
SplineSet
172 255 m 1
 172 0 l 1
 79 0 l 1
 79 729 l 1
 172 729 l 1
 172 360 l 1
 535 729 l 1
 655 729 l 1
 358 432 l 1
 658 0 l 1
 548 0 l 1
 291 374 l 1
 172 255 l 1
299 -60 m 1
 399 -60 l 1
 399 -163 l 2
 399 -238 361 -285 299 -284 c 1
 299 -246 l 1
 337 -246 356 -215 354 -160 c 1
 299 -160 l 1
 299 -60 l 1
EndSplineSet
EndChar

StartChar: kcommaaccent
Encoding: 377 311 271
Width: 500
Flags: MW
HStem: -284 38<217 236> -160 100<217 272 217 317> 0 21<58 141 58 58 399 502 399 399> 504 20<363 470 470 470> 709 20<58 141 141 141>
VStem: 58 83<0 204 302 729> 217 100<-284 -163 -246 -163 -160 -60>
LayerCount: 2
Fore
SplineSet
141 729 m 1
 141 302 l 1
 363 524 l 1
 470 524 l 1
 288 343 l 1
 502 0 l 1
 399 0 l 1
 222 284 l 1
 141 204 l 1
 141 0 l 1
 58 0 l 1
 58 729 l 1
 141 729 l 1
217 -60 m 1
 317 -60 l 1
 317 -163 l 2
 317 -238 279 -285 217 -284 c 1
 217 -246 l 1
 255 -246 274 -215 272 -160 c 1
 217 -160 l 1
 217 -60 l 1
EndSplineSet
EndChar

StartChar: Lacute
Encoding: 281 313 175
Width: 556
Flags: W
HStem: 0 82<173 533 173 533> 709 20<80 173 173 173>
VStem: 80 93<82 729 82 729 82 729> 80 453<0 82 0 729>
LayerCount: 2
Fore
SplineSet
173 729 m 1xe0
 173 82 l 1xe0
 533 82 l 1
 533 0 l 1
 80 0 l 1
 80 729 l 1xd0
 173 729 l 1xe0
166 939 m 1
 279 939 l 1
 130 791 l 1
 70 791 l 1
 166 939 l 1
EndSplineSet
EndChar

StartChar: lacute
Encoding: 346 314 240
Width: 222
Flags: MW
HStem: 0 21<68 152 68 68> 709 20<68 152 152 152>
VStem: 68 84<0 729 0 729>
LayerCount: 2
Fore
SplineSet
152 729 m 1
 152 0 l 1
 68 0 l 1
 68 729 l 1
 152 729 l 1
159 939 m 1
 272 939 l 1
 123 791 l 1
 63 791 l 1
 159 939 l 1
EndSplineSet
EndChar

StartChar: Lcommaaccent
Encoding: 315 315 209
Width: 556
Flags: W
HStem: -284 38<257 276> -160 100<257 312 257 357> 0 82<173 533 173 533> 709 20<80 173 173 173>
VStem: 80 93<82 729 82 729 82 729> 80 453<0 82 0 729> 257 100<-284 -163 -246 -163 -160 -60>
LayerCount: 2
Fore
SplineSet
173 729 m 1xf8
 173 82 l 1xf8
 533 82 l 1
 533 0 l 1
 80 0 l 1
 80 729 l 1xf4
 173 729 l 1xf8
257 -60 m 1xf2
 357 -60 l 1
 357 -163 l 2
 357 -238 319 -285 257 -284 c 1
 257 -246 l 1
 295 -246 314 -215 312 -160 c 1
 257 -160 l 1
 257 -60 l 1xf2
EndSplineSet
EndChar

StartChar: lcommaaccent
Encoding: 378 316 272
Width: 222
Flags: MW
HStem: -284 38<63 82> -160 100<63 118 63 163> 0 21<68 152 68 68> 709 20<68 152 152 152>
VStem: 68 84<0 729 0 729>
LayerCount: 2
Fore
SplineSet
152 729 m 1
 152 0 l 1
 68 0 l 1
 68 729 l 1
 152 729 l 1
63 -60 m 1
 163 -60 l 1
 163 -163 l 2
 163 -238 125 -285 63 -284 c 1
 63 -246 l 1
 101 -246 120 -215 118 -160 c 1
 63 -160 l 1
 63 -60 l 1
EndSplineSet
EndChar

StartChar: Lcaron
Encoding: 282 317 176
Width: 556
Flags: MW
HStem: 0 82<173 533 173 533> 505 38<273 281 273 292> 629 100<273 328>
VStem: 80 93<82 729 82 729 82 729> 273 100<505 626 543 626 629 729>
LayerCount: 2
Fore
SplineSet
173 729 m 1
 173 82 l 1
 533 82 l 1
 533 0 l 1
 80 0 l 1
 80 729 l 1
 173 729 l 1
273 729 m 1
 373 729 l 1
 373 626 l 2
 373 556 335 505 281 505 c 2
 273 505 l 1
 273 543 l 1
 311 543 330 574 328 629 c 1
 273 629 l 1
 273 729 l 1
EndSplineSet
EndChar

StartChar: lcaron
Encoding: 347 318 241
Width: 292
Flags: MW
HStem: 0 21G<68 152 68 68> 505 38<205 213 205 224> 629 100<205 260 68 205>
VStem: 68 84<0 729 0 729> 205 100<505 626 543 626 629 729>
LayerCount: 2
Fore
SplineSet
152 729 m 1
 152 0 l 1
 68 0 l 1
 68 729 l 1
 152 729 l 1
205 729 m 1
 305 729 l 1
 305 626 l 2
 305 556 267 505 213 505 c 2
 205 505 l 1
 205 543 l 1
 243 543 262 574 260 629 c 1
 205 629 l 1
 205 729 l 1
EndSplineSet
EndChar

StartChar: Ldot
Encoding: 647 319 541
Width: 556
Flags: MW
HStem: 0 82<173 533 173 533> 304 125<250 374 250 374> 709 20G<80 173 173 173>
VStem: 80 93<82 729 82 729 82 729> 250 124<304 429 304 429>
LayerCount: 2
Fore
SplineSet
374 429 m 1
 374 304 l 1
 250 304 l 1
 250 429 l 1
 374 429 l 1
173 729 m 1
 173 82 l 1
 533 82 l 1
 533 0 l 1
 80 0 l 1
 80 729 l 1
 173 729 l 1
EndSplineSet
Ligature2: "'liga' Standard Ligatures in Latin lookup 0 subtable" L periodcentered
EndChar

StartChar: ldot
Encoding: 648 320 542
Width: 404
Flags: MW
HStem: 0 21G<68 152 68 68> 304 125<233 357 233 357> 709 20G<68 152 152 152>
VStem: 68 84<0 729 0 729> 233 124<304 429 304 429>
LayerCount: 2
Fore
SplineSet
152 729 m 1
 152 0 l 1
 68 0 l 1
 68 729 l 1
 152 729 l 1
357 429 m 1
 357 304 l 1
 233 304 l 1
 233 429 l 1
 357 429 l 1
EndSplineSet
Ligature2: "'liga' Standard Ligatures in Latin lookup 0 subtable" l periodcentered
EndChar

StartChar: Lslash
Encoding: 232 321 140
Width: 556
Flags: W
HStem: 0 82<173 552 173 552> 709 20<80 173 173 173>
VStem: 80 93<82 280 280 280 406 729> 80 472<0 82 0 280 0 280 0 729>
LayerCount: 2
Fore
SplineSet
173 406 m 1xe0
 344 527 l 1
 344 451 l 1
 173 329 l 1
 173 82 l 1xe0
 552 82 l 1
 552 0 l 1
 80 0 l 1
 80 280 l 1
 0 223 l 1
 0 300 l 1
 80 356 l 1
 80 729 l 1xd0
 173 729 l 1
 173 406 l 1xe0
EndSplineSet
EndChar

StartChar: lslash
Encoding: 248 322 146
Width: 222
Flags: W
HStem: 0 21<63 146 63 63> 709 20<63 146 146 146>
VStem: 63 83<0 313 313 313 421 729> 63 149<0 472 313 472 408 472 408 729>
LayerCount: 2
Fore
SplineSet
146 421 m 1xf0
 212 472 l 1
 212 408 l 1
 146 357 l 1
 146 0 l 1
 63 0 l 1
 63 313 l 1
 0 263 l 1
 0 327 l 1
 63 377 l 1
 63 729 l 1
 146 729 l 1
 146 421 l 1xf0
EndSplineSet
EndChar

StartChar: Nacute
Encoding: 283 323 177
Width: 722
Flags: MW
HStem: 0 21<76 164 76 76 541 646 541 541> 709 20<76 177 177 177 558 646 646 646>
VStem: 76 88<0 591 0 729> 558 88<133 729 0 729>
LayerCount: 2
Fore
SplineSet
646 729 m 1
 646 0 l 1
 541 0 l 1
 164 591 l 1
 164 0 l 1
 76 0 l 1
 76 729 l 1
 177 729 l 1
 558 133 l 1
 558 729 l 1
 646 729 l 1
389 939 m 1
 502 939 l 1
 353 791 l 1
 293 791 l 1
 389 939 l 1
EndSplineSet
EndChar

StartChar: nacute
Encoding: 348 324 242
Width: 556
Flags: W
HStem: 0 21G<70 154 70 70 404 487 404 404> 466 73<282 329> 720 20G<310 423 423 423>
VStem: 70 77<436 524 436 524 436 524> 70 84<0 289 0 524> 404 83<0 363 363 394.5>
LayerCount: 2
Fore
SplineSet
70 524 m 1xf4
 147 524 l 1
 147 436 l 1xf4
 193 509 243 539 321 539 c 0
 422 539 487 483 487 396 c 2
 487 0 l 1
 404 0 l 1
 404 363 l 2
 404 426 362 466 296 466 c 0
 210 466 154 396 154 289 c 2
 154 0 l 1
 70 0 l 1xec
 70 524 l 1xf4
310 740 m 1
 423 740 l 1
 274 592 l 1
 214 592 l 1
 310 740 l 1
EndSplineSet
EndChar

StartChar: Ncommaaccent
Encoding: 316 325 210
Width: 722
Flags: MW
HStem: -284 38<298 317> -160 100<298 353 298 398> 0 21<76 164 76 76 541 646 541 541> 709 20<76 177 177 177 558 646 646 646>
VStem: 76 88<0 591 0 729> 298 100<-284 -163 -246 -163 -160 -60> 558 88<133 729 0 729>
LayerCount: 2
Fore
SplineSet
646 729 m 1
 646 0 l 1
 541 0 l 1
 164 591 l 1
 164 0 l 1
 76 0 l 1
 76 729 l 1
 177 729 l 1
 558 133 l 1
 558 729 l 1
 646 729 l 1
298 -60 m 1
 398 -60 l 1
 398 -163 l 2
 398 -238 360 -285 298 -284 c 1
 298 -246 l 1
 336 -246 355 -215 353 -160 c 1
 298 -160 l 1
 298 -60 l 1
EndSplineSet
EndChar

StartChar: ncommaaccent
Encoding: 379 326 273
Width: 556
Flags: W
HStem: -160 100<229 284 229 329> 0 21G<70 154 70 70 404 487 404 404> 466 73<282 329>
VStem: 70 77<436 524 436 524 436 524> 70 84<0 289 0 524> 229 100<-284 -163 -246 -163 -160 -60> 284 45<-160 -160> 404 83<0 363 363 394.5>
LayerCount: 2
Fore
SplineSet
70 524 m 1xf1
 147 524 l 1
 147 436 l 1xf1
 193 509 243 539 321 539 c 0
 422 539 487 483 487 396 c 2
 487 0 l 1
 404 0 l 1
 404 363 l 2
 404 426 362 466 296 466 c 0
 210 466 154 396 154 289 c 2
 154 0 l 1
 70 0 l 1xe9
 70 524 l 1xf1
229 -60 m 1xe5
 329 -60 l 1xe5
 329 -163 l 2xe3
 329 -238 291 -285 229 -284 c 1
 229 -246 l 1xe5
 267 -246 286 -215 284 -160 c 1xe3
 229 -160 l 1
 229 -60 l 1xe5
EndSplineSet
EndChar

StartChar: Ncaron
Encoding: 284 327 178
Width: 722
Flags: MW
HStem: 0 21<76 164 76 76 541 646 541 541> 709 20<76 177 177 177 558 646 646 646>
VStem: 76 88<0 591 0 729> 558 88<133 729 0 729>
LayerCount: 2
Fore
SplineSet
646 729 m 1
 646 0 l 1
 541 0 l 1
 164 591 l 1
 164 0 l 1
 76 0 l 1
 76 729 l 1
 177 729 l 1
 558 133 l 1
 558 729 l 1
 646 729 l 1
409 790 m 1
 314 790 l 1
 218 940 l 1
 281 940 l 1
 362 844 l 1
 441 940 l 1
 505 940 l 1
 409 790 l 1
EndSplineSet
EndChar

StartChar: ncaron
Encoding: 349 328 243
Width: 556
Flags: W
HStem: 0 21G<70 154 70 70 404 487 404 404> 466 73<282 329> 721 20G<135 198 198 198 358 422 422 422>
VStem: 70 77<436 524 436 524 436 524> 70 84<0 289 0 524> 404 83<0 363 363 394.5>
LayerCount: 2
Fore
SplineSet
70 524 m 1xf4
 147 524 l 1
 147 436 l 1xf4
 193 509 243 539 321 539 c 0
 422 539 487 483 487 396 c 2
 487 0 l 1
 404 0 l 1
 404 363 l 2
 404 426 362 466 296 466 c 0
 210 466 154 396 154 289 c 2
 154 0 l 1
 70 0 l 1xec
 70 524 l 1xf4
326 591 m 1
 231 591 l 1
 135 741 l 1
 198 741 l 1
 279 645 l 1
 358 741 l 1
 422 741 l 1
 326 591 l 1
EndSplineSet
EndChar

StartChar: napostrophe
Encoding: 649 329 543
Width: 556
Flags: W
HStem: 0 21G<70 154 70 70 404 487 404 404> 466 73<282 329> 665 20G<64 112 64 64>
VStem: 64 93<557 688 595 688 685 688 688 789> 70 77<436 524 436 524 436 524> 70 84<0 289 0 524> 404 83<0 363 363 394.5>
LayerCount: 2
Fore
SplineSet
64 789 m 1xf2
 157 789 l 1
 157 688 l 2
 157 608 124 562 64 557 c 1
 64 595 l 1
 99 600 113 627 112 685 c 1
 64 685 l 1
 64 789 l 1xf2
70 524 m 1xea
 147 524 l 1
 147 436 l 1xea
 193 509 243 539 321 539 c 0
 422 539 487 483 487 396 c 2
 487 0 l 1
 404 0 l 1
 404 363 l 2
 404 426 362 466 296 466 c 0
 210 466 154 396 154 289 c 2
 154 0 l 1
 70 0 l 1xe6
 70 524 l 1xea
EndSplineSet
EndChar

StartChar: Eng
Encoding: 650 330 544
Width: 722
Flags: MW
HStem: -174 82<409 457 457 461 409 457> 0 21G<76 164 76 76 541 541> 709 20G<76 177 177 177 558 646 646 646>
VStem: 76 88<0 591 0 729> 558 88<133 729>
LayerCount: 2
Fore
SplineSet
541 0 m 2
 164 591 l 1
 164 0 l 1
 76 0 l 1
 76 729 l 1
 177 729 l 1
 558 133 l 1
 558 729 l 1
 646 729 l 1
 646 18 l 2
 646 -98 587 -174 461 -174 c 2
 409 -174 l 1
 409 -92 l 1
 457 -92 l 2
 506 -92 550 -65 550 -29 c 0
 550 -20 547 -10 541 0 c 2
EndSplineSet
EndChar

StartChar: eng
Encoding: 651 331 545
Width: 556
Flags: W
HStem: 0 21G<70 154 70 70 487 487> 466 73<282 329>
VStem: 70 77<436 524 436 524 436 524> 70 84<0 289 0 524> 404 83<33 363 363 394.5>
LayerCount: 2
Fore
SplineSet
487 0 m 2xe8
 487 -88 424 -143 322 -143 c 2
 296 -143 l 1
 296 -70 l 1
 323 -70 350 -61 370 -46 c 0
 394 -29 404 -4 404 33 c 2
 404 363 l 2
 404 426 362 466 296 466 c 0
 210 466 154 396 154 289 c 2
 154 0 l 1
 70 0 l 1xd8
 70 524 l 1
 147 524 l 1
 147 436 l 1
 193 509 243 539 321 539 c 0
 422 539 487 483 487 396 c 2
 487 0 l 2xe8
EndSplineSet
EndChar

StartChar: Omacron
Encoding: 317 332 211
Width: 778
Flags: MW
HStem: -23 82<312.5 434> 659 82<312 468> 830 70<253 527 253 527>
VStem: 38 93<269 449 269 473> 253 274<830 900 830 900> 649 93<293.5 447>
LayerCount: 2
Fore
SplineSet
389 741 m 0
 603 741 742 588 742 353 c 0
 742 234 695 121 616 54 c 0
 557 4 478 -23 390 -23 c 0
 180 -23 38 131 38 359 c 0
 38 587 180 741 389 741 c 0
389 659 m 0
 235 659 131 539 131 359 c 0
 131 179 235 59 390 59 c 0
 544 59 649 179 649 355 c 0
 649 539 547 659 389 659 c 0
527 900 m 1
 527 830 l 1
 253 830 l 1
 253 900 l 1
 527 900 l 1
EndSplineSet
EndChar

StartChar: omacron
Encoding: 380 333 274
Width: 556
Flags: MW
HStem: -23 77<226.5 319 226.5 346.5> 462 77<226.5 320> 631 70<136 410 136 410>
VStem: 36 87<194.5 321 194.5 346> 136 274<631 701 631 701> 423 87<193.5 320>
LayerCount: 2
Fore
SplineSet
272 539 m 0
 423 539 510 435 510 254 c 0
 510 82 420 -23 273 -23 c 0
 124 -23 36 82 36 258 c 0
 36 434 125 539 272 539 c 0
273 462 m 0
 180 462 123 384 123 258 c 0
 123 131 180 54 273 54 c 0
 365 54 423 132 423 255 c 0
 423 385 367 462 273 462 c 0
410 701 m 1
 410 631 l 1
 136 631 l 1
 136 701 l 1
 410 701 l 1
EndSplineSet
EndChar

StartChar: Obreve
Encoding: 652 334 546
Width: 778
Flags: MW
HStem: -23 82<312.5 434> 659 82<312 468> 769 69<362.5 418 362.5 435.5>
VStem: 38 93<269 449 269 473> 240 59<904 904> 482 59<904 904> 649 93<293.5 447>
LayerCount: 2
Fore
SplineSet
240 904 m 1
 299 904 l 1
 304 860 334 838 391 838 c 0
 445 838 478 862 482 904 c 1
 541 904 l 1
 534 815 482 769 389 769 c 0
 333 769 288 789 261 826 c 0
 247 846 241 865 240 904 c 1
389 741 m 0
 603 741 742 588 742 353 c 0
 742 234 695 121 616 54 c 0
 557 4 478 -23 390 -23 c 0
 180 -23 38 131 38 359 c 0
 38 587 180 741 389 741 c 0
389 659 m 0
 235 659 131 539 131 359 c 0
 131 179 235 59 390 59 c 0
 544 59 649 179 649 355 c 0
 649 539 547 659 389 659 c 0
EndSplineSet
EndChar

StartChar: obreve
Encoding: 653 335 547
Width: 556
Flags: W
HStem: -23 77<226.5 319 226.5 346.5> 462 77<226.5 320> 564 69<244.5 300 244.5 317.5> 679 20G<122 181 181 181 364 423 423 423>
VStem: 36 87<194.5 321 194.5 346> 122 59<699 699> 364 59<699 699> 423 87<193.5 320>
LayerCount: 2
Fore
SplineSet
122 699 m 1xf7
 181 699 l 1
 186 655 216 633 273 633 c 0
 327 633 360 657 364 699 c 1
 423 699 l 1
 416 610 364 564 271 564 c 0
 215 564 170 584 143 621 c 0
 129 641 123 660 122 699 c 1xf7
272 539 m 0
 423 539 510 435 510 254 c 0
 510 82 420 -23 273 -23 c 0
 124 -23 36 82 36 258 c 0xfb
 36 434 125 539 272 539 c 0
273 462 m 0
 180 462 123 384 123 258 c 0
 123 131 180 54 273 54 c 0
 365 54 423 132 423 255 c 0
 423 385 367 462 273 462 c 0
EndSplineSet
EndChar

StartChar: OE
Encoding: 234 338 142
Width: 1000
Flags: W
HStem: -20 82<308 381.5> 0 82<618 959 618 959> 327 82<618 946 618 946> 647 82<618 954 618 618> 659 82<308.5 383 305.5 384>
VStem: 43 93<309.5 411 309.5 424> 525 93<0 327 74 327 182 327 82 409 409 539 539 539>
LayerCount: 2
Fore
SplineSet
618 327 m 1x76
 618 82 l 1
 959 82 l 1
 959 0 l 1
 525 0 l 1x76
 525 74 l 1
 479 9 422 -20 341 -20 c 0
 256 -20 182 12 130 72 c 0
 71 140 43 232 43 356 c 0
 43 492 78 596 146 663 c 0
 195 712 269 741 342 741 c 0xae
 424 741 483 713 525 653 c 1
 525 729 l 1
 954 729 l 1
 954 647 l 1
 618 647 l 1
 618 409 l 1
 946 409 l 1
 946 327 l 1
 618 327 l 1x76
525 182 m 1
 525 539 l 1
 485 620 426 659 342 659 c 0
 275 659 222 632 187 581 c 0
 151 527 136 462 136 360 c 0
 136 259 151 194 187 140 c 0
 222 89 275 62 341 62 c 0xae
 425 62 485 101 525 182 c 1
EndSplineSet
EndChar

StartChar: oe
Encoding: 250 339 148
Width: 944
Flags: MW
HStem: -23 77<230.5 321 640.5 700.5> 234 68<515 809 515 899 513 809> 462 77<230.5 321.5 201.5 324 625.5 707.5>
VStem: 40 87<195 322 195 348.5> 427 472<234 274 234 320.5>
LayerCount: 2
Fore
SplineSet
804 159 m 1
 888 159 l 1
 867 45 784 -23 665 -23 c 0
 580 -23 511 14 471 80 c 1
 429 11 365 -23 277 -23 c 0
 126 -23 40 79 40 259 c 0
 40 438 126 539 277 539 c 0
 366 539 433 503 473 433 c 1
 514 500 585 539 666 539 c 0
 764 539 844 487 878 401 c 0
 893 362 899 314 899 234 c 1
 513 234 l 1
 514 182 521 152 541 122 c 0
 569 78 614 54 667 54 c 0
 734 54 781 90 804 159 c 1
277 462 m 0
 184 462 127 385 127 259 c 0
 127 131 184 54 277 54 c 0
 369 54 427 131 427 256 c 0
 427 385 371 462 277 462 c 0
515 302 m 1
 809 302 l 1
 809 397 750 462 665 462 c 0
 581 462 522 399 515 302 c 1
EndSplineSet
EndChar

StartChar: racute
Encoding: 357 341 251
Width: 333
Flags: W
HStem: 0 21G<69 153 69 69> 451 88<262 321> 720 20G<218 331 331 331>
VStem: 69 77<429 524 429 524 429 524> 69 84<0 272 0 524>
LayerCount: 2
Fore
SplineSet
69 524 m 1xf0
 146 524 l 1
 146 429 l 1xf0
 194 507 235 539 289 539 c 0
 300 539 307 538 321 536 c 1
 321 451 l 1
 263 450 238 444 212 425 c 0
 172 396 153 347 153 272 c 2
 153 0 l 1
 69 0 l 1xe8
 69 524 l 1xf0
218 740 m 1
 331 740 l 1
 182 592 l 1
 122 592 l 1
 218 740 l 1
EndSplineSet
EndChar

StartChar: Rcommaaccent
Encoding: 318 342 212
Width: 722
Flags: W
HStem: -284 38<319 338> -160 100<319 374 319 419> 0 21<93 186 93 93 566 566 566 679> 314 82<186 411 186 411 411 426> 647 82<186 411 186 186>
VStem: 93 93<0 314 396 647> 319 100<-284 -163 -246 -163 -160 -60> 546 89 554 97<492.5 543>
LayerCount: 2
Fore
SplineSet
186 314 m 1xfc80
 186 0 l 1
 93 0 l 1
 93 729 l 1
 429 729 l 2
 572 729 651 660 651 534 c 0xfc80
 651 451 618 400 536 360 c 1
 615 326 634 290 635 170 c 1
 637 73 644 47 679 23 c 1
 679 0 l 1
 566 0 l 1
 553 30 545 74 545 119 c 2
 546 184 l 1xfd
 546 274 509 314 426 314 c 2
 186 314 l 1xfc80
186 396 m 1
 411 396 l 2
 510 396 554 435 554 521 c 0
 554 565 541 598 516 619 c 0
 493 639 463 647 411 647 c 2
 186 647 l 1
 186 396 l 1
319 -60 m 1xfe
 419 -60 l 1
 419 -163 l 2
 419 -238 381 -285 319 -284 c 1
 319 -246 l 1
 357 -246 376 -215 374 -160 c 1
 319 -160 l 1
 319 -60 l 1xfe
EndSplineSet
EndChar

StartChar: rcommaaccent
Encoding: 381 343 275
Width: 333
Flags: W
HStem: -160 100<65 120 65 165> 0 21G<69 153 69 69> 451 88<262 321>
VStem: 65 100<-284 -163 -246 -163 -160 -60> 69 77<429 524 429 524 429 524> 69 84<0 272 0 524> 120 45<-160 -160>
LayerCount: 2
Fore
SplineSet
69 524 m 1xe8
 146 524 l 1
 146 429 l 1xe8
 194 507 235 539 289 539 c 0
 300 539 307 538 321 536 c 1
 321 451 l 1
 263 450 238 444 212 425 c 0
 172 396 153 347 153 272 c 2
 153 0 l 1
 69 0 l 1xe4
 69 524 l 1xe8
65 -60 m 1xf0
 165 -60 l 1xf0
 165 -163 l 2xe2
 165 -238 127 -285 65 -284 c 1
 65 -246 l 1xf0
 103 -246 122 -215 120 -160 c 1xe2
 65 -160 l 1
 65 -60 l 1xf0
EndSplineSet
EndChar

StartChar: Rcaron
Encoding: 293 344 187
Width: 722
Flags: W
HStem: 0 21<93 186 93 93 566 566 566 679> 314 82<186 411 186 411 411 426> 647 82<186 411 186 186>
VStem: 93 93<0 314 396 647> 546 89 554 97<492.5 543>
LayerCount: 2
Fore
SplineSet
186 314 m 1xf4
 186 0 l 1
 93 0 l 1
 93 729 l 1
 429 729 l 2
 572 729 651 660 651 534 c 0xf4
 651 451 618 400 536 360 c 1
 615 326 634 290 635 170 c 1
 637 73 644 47 679 23 c 1
 679 0 l 1
 566 0 l 1
 553 30 545 74 545 119 c 2
 546 184 l 1xf8
 546 274 509 314 426 314 c 2
 186 314 l 1xf4
186 396 m 1
 411 396 l 2
 510 396 554 435 554 521 c 0
 554 565 541 598 516 619 c 0
 493 639 463 647 411 647 c 2
 186 647 l 1
 186 396 l 1
404 790 m 1
 309 790 l 1
 213 940 l 1
 276 940 l 1
 357 844 l 1
 436 940 l 1
 500 940 l 1
 404 790 l 1
EndSplineSet
EndChar

StartChar: rcaron
Encoding: 384 345 278
Width: 333
Flags: W
HStem: 0 21G<69 153 69 69> 451 88<262 321> 721 20G<48 111 111 111 271 335 335 335>
VStem: 69 77<429 524 429 524 429 524> 69 84<0 272 0 524>
LayerCount: 2
Fore
SplineSet
69 524 m 1xf0
 146 524 l 1
 146 429 l 1xf0
 194 507 235 539 289 539 c 0
 300 539 307 538 321 536 c 1
 321 451 l 1
 263 450 238 444 212 425 c 0
 172 396 153 347 153 272 c 2
 153 0 l 1
 69 0 l 1xe8
 69 524 l 1xf0
239 591 m 1
 144 591 l 1
 48 741 l 1
 111 741 l 1
 192 645 l 1
 271 741 l 1
 335 741 l 1
 239 591 l 1
EndSplineSet
EndChar

StartChar: Sacute
Encoding: 294 346 188
Width: 667
Flags: W
HStem: -23 82<302.5 371.5 302.5 379.5> 663 78<277 384>
VStem: 48 88<232 232> 70 93<512 577 512 593> 508 88<515 515> 528 93<171.5 219.5>
LayerCount: 2
Fore
SplineSet
596 515 m 1xd8
 508 515 l 1
 507 610 442 663 326 663 c 0
 228 663 163 614 163 540 c 0xd8
 163 484 195 456 283 432 c 2
 466 383 l 2
 565 356 621 290 621 200 c 0
 621 137 590 72 541 33 c 1
 494 -3 423 -23 336 -23 c 0
 225 -23 141 13 91 81 c 0
 62 121 49 165 48 232 c 1
 136 232 l 1
 135 187 147 152 174 120 c 0
 209 78 263 59 342 59 c 0
 401 59 447 70 476 90 c 0
 507 112 528 152 528 191 c 0xe4
 528 248 486 285 394 309 c 2
 213 357 l 2
 117 382 70 438 70 527 c 0
 70 659 169 741 329 741 c 0
 497 741 595 658 596 515 c 1xd8
362 939 m 1
 475 939 l 1
 326 791 l 1
 266 791 l 1
 362 939 l 1
EndSplineSet
EndChar

StartChar: sacute
Encoding: 358 347 252
Width: 500
Flags: MW
HStem: -23 77<227.5 286.5 227.5 309> 462 77<211 278.5> 720 20<275 388 388 388>
VStem: 47 87<364.5 407 364.5 427.5> 372 87<111.5 155>
LayerCount: 2
Fore
SplineSet
438 378 m 1
 350 378 l 1
 348 433 312 462 245 462 c 0
 177 462 134 431 134 383 c 0
 134 346 163 324 231 308 c 2
 311 289 l 2
 415 264 459 221 459 143 c 0
 459 42 375 -23 243 -23 c 0
 106 -23 38 35 34 156 c 1
 122 156 l 1
 127 119 133 104 146 89 c 0
 167 67 205 54 250 54 c 0
 323 54 372 87 372 136 c 0
 372 174 349 195 291 209 c 2
 213 228 l 2
 89 258 47 297 47 379 c 0
 47 476 126 539 248 539 c 0
 369 539 437 481 438 378 c 1
275 740 m 1
 388 740 l 1
 239 592 l 1
 179 592 l 1
 275 740 l 1
EndSplineSet
EndChar

StartChar: scircumflex
Encoding: 655 349 549
Width: 500
Flags: W
HStem: -23 77<227.5 286.5 227.5 309> 462 77<211 278.5>
VStem: 47 87<364.5 407 364.5 427.5> 350 88<378 378> 372 87<111.5 155>
LayerCount: 2
Fore
SplineSet
194 714 m 1xe0
 289 714 l 1
 385 564 l 1
 322 564 l 1
 241 660 l 1
 162 564 l 1
 98 564 l 1
 194 714 l 1xe0
438 378 m 1xf0
 350 378 l 1xf0
 348 433 312 462 245 462 c 0
 177 462 134 431 134 383 c 0
 134 346 163 324 231 308 c 2
 311 289 l 2
 415 264 459 221 459 143 c 0
 459 42 375 -23 243 -23 c 0
 106 -23 38 35 34 156 c 1
 122 156 l 1
 127 119 133 104 146 89 c 0
 167 67 205 54 250 54 c 0
 323 54 372 87 372 136 c 0xe8
 372 174 349 195 291 209 c 2
 213 228 l 2
 89 258 47 297 47 379 c 0
 47 476 126 539 248 539 c 0
 369 539 437 481 438 378 c 1xf0
EndSplineSet
EndChar

StartChar: Scedilla
Encoding: 296 350 190
Width: 667
Flags: W
HStem: -214 41<285.5 313.5 285.5 342> 663 78<277 384>
VStem: 48 88<232 232> 70 93<512 577 512 593> 352 75<-141 -116.5> 508 88<515 515> 528 93<171.5 219.5>
LayerCount: 2
Fore
SplineSet
335 -24 m 1xea
 320 -56 l 1
 334 -54 340 -54 348 -54 c 0
 398 -54 427 -78 427 -121 c 0
 427 -178 380 -214 304 -214 c 0
 266 -214 241 -207 179 -180 c 1
 200 -140 l 1
 209 -144 l 1
 254 -167 273 -173 298 -173 c 0
 329 -173 352 -154 352 -128 c 0
 352 -105 335 -91 306 -91 c 0
 295 -91 287 -93 275 -98 c 1
 264 -92 l 1
 295 -23 l 1
 289 -21 285 -20 284 -20 c 2
 240 -13 l 1
 119 13 45 108 48 232 c 1
 136 232 l 1
 135 187 147 152 174 120 c 0
 209 78 263 59 342 59 c 0
 401 59 447 70 476 90 c 0
 507 112 528 152 528 191 c 0xea
 528 248 486 285 394 309 c 2
 213 357 l 2
 117 382 70 438 70 527 c 0
 70 659 169 741 329 741 c 0
 497 741 595 658 596 515 c 1
 508 515 l 1
 507 610 442 663 326 663 c 0
 228 663 163 614 163 540 c 0xdc
 163 484 195 456 283 432 c 2
 466 383 l 2
 565 356 621 290 621 200 c 0
 621 114 568 35 487 2 c 0
 446 -14 406 -21 335 -24 c 1xea
EndSplineSet
EndChar

StartChar: scedilla
Encoding: 385 351 279
Width: 500
Flags: MW
HStem: -214 41<195.5 223.5 195.5 252> 462 77<211 278.5>
VStem: 47 87<364.5 407 364.5 427.5> 262 75<-141 -116.5> 372 87<112 155>
LayerCount: 2
Fore
SplineSet
244 -24 m 1
 230 -56 l 1
 244 -54 250 -54 258 -54 c 0
 308 -54 337 -78 337 -121 c 0
 337 -178 290 -214 214 -214 c 0
 176 -214 151 -207 89 -180 c 1
 110 -140 l 1
 119 -144 l 1
 164 -167 183 -173 208 -173 c 0
 239 -173 262 -154 262 -128 c 0
 262 -105 245 -91 216 -91 c 0
 204 -91 197 -93 185 -98 c 1
 174 -92 l 1
 205 -21 l 1
 93 -10 36 48 34 156 c 1
 122 156 l 1
 127 119 133 104 146 89 c 0
 167 67 205 54 250 54 c 0
 323 54 372 87 372 136 c 0
 372 174 349 195 291 209 c 2
 213 228 l 2
 89 258 47 297 47 379 c 0
 47 476 126 539 248 539 c 0
 369 539 437 481 438 378 c 1
 350 378 l 1
 348 433 312 462 245 462 c 0
 177 462 134 431 134 383 c 0
 134 346 163 324 231 308 c 2
 311 289 l 2
 415 264 459 221 459 143 c 0
 459 81 422 25 361 -2 c 0
 334 -14 304 -20 244 -24 c 1
EndSplineSet
EndChar

StartChar: Tcommaaccent
Encoding: 309 354 203
Width: 611
Flags: MW
HStem: -284 38<260 279> -160 100<260 315 260 360> 0 21<261 354 261 261> 647 82<21 261 21 593 354 593 354 354>
VStem: 261 93<0 647 0 647>
LayerCount: 2
Fore
SplineSet
354 647 m 1
 354 0 l 1
 261 0 l 1
 261 647 l 1
 21 647 l 1
 21 729 l 1
 593 729 l 1
 593 647 l 1
 354 647 l 1
260 -60 m 1
 360 -60 l 1
 360 -163 l 2
 360 -238 322 -285 260 -284 c 1
 260 -246 l 1
 298 -246 317 -215 315 -160 c 1
 260 -160 l 1
 260 -60 l 1
EndSplineSet
EndChar

StartChar: tcommaaccent
Encoding: 373 355 267
Width: 278
Flags: W
HStem: -284 38<111 130> -160 100<111 166 111 211> -23 73<153.5 222> 456 68<14 85 14 85 168 254>
VStem: 14 240<456 524> 85 83<78.5 97 97 456 524 668> 111 100<-284 -163 -246 -163 -160 -60>
LayerCount: 2
Fore
SplineSet
254 524 m 1xfc
 254 456 l 1
 168 456 l 1
 168 97 l 2
 168 60 178 50 214 50 c 0
 230 50 243 51 254 54 c 1
 254 -16 l 1
 226 -21 206 -23 186 -23 c 0
 121 -23 85 7 85 60 c 2
 85 456 l 1
 14 456 l 1
 14 524 l 1
 85 524 l 1
 85 668 l 1
 168 668 l 1
 168 524 l 1
 254 524 l 1xfc
111 -60 m 1xf2
 211 -60 l 1
 211 -163 l 2
 211 -238 173 -285 111 -284 c 1
 111 -246 l 1
 149 -246 168 -215 166 -160 c 1
 111 -160 l 1
 111 -60 l 1xf2
EndSplineSet
EndChar

StartChar: Tcaron
Encoding: 297 356 191
Width: 611
Flags: MW
HStem: 0 21<261 354 261 261> 647 82<21 261 21 593 354 593 354 354>
VStem: 261 93<0 647 0 647>
LayerCount: 2
Fore
SplineSet
354 647 m 1
 354 0 l 1
 261 0 l 1
 261 647 l 1
 21 647 l 1
 21 729 l 1
 593 729 l 1
 593 647 l 1
 354 647 l 1
355 790 m 1
 260 790 l 1
 164 940 l 1
 227 940 l 1
 308 844 l 1
 387 940 l 1
 451 940 l 1
 355 790 l 1
EndSplineSet
EndChar

StartChar: tcaron
Encoding: 361 357 255
Width: 308
Flags: W
HStem: -23 73<153.5 222> 456 68<14 85 14 85 168 254> 576 38<221 229 221 240> 700 100<221 276 221 321>
VStem: 14 240<456 524> 85 83<78.5 97 97 456 524 668> 221 100<576 697 614 697 700 800>
LayerCount: 2
Fore
SplineSet
254 524 m 1xfc
 254 456 l 1
 168 456 l 1
 168 97 l 2
 168 60 178 50 214 50 c 0
 230 50 243 51 254 54 c 1
 254 -16 l 1
 226 -21 206 -23 186 -23 c 0
 121 -23 85 7 85 60 c 2
 85 456 l 1
 14 456 l 1
 14 524 l 1
 85 524 l 1
 85 668 l 1
 168 668 l 1
 168 524 l 1
 254 524 l 1xfc
221 800 m 1xf2
 321 800 l 1
 321 697 l 2
 321 627 283 576 229 576 c 2
 221 576 l 1
 221 614 l 1
 259 614 278 645 276 700 c 1
 221 700 l 1
 221 800 l 1xf2
EndSplineSet
EndChar

StartChar: Tbar
Encoding: 656 358 550
Width: 611
Flags: MW
HStem: 0 21G<261 354 261 261> 347 70<172 261 172 261 354 446> 647 82<21 261 21 593 354 354 354 593>
VStem: 261 93<0 347 0 347 417 647>
LayerCount: 2
Fore
SplineSet
261 417 m 1
 261 647 l 1
 21 647 l 1
 21 729 l 1
 593 729 l 1
 593 647 l 1
 354 647 l 1
 354 417 l 1
 446 417 l 1
 446 347 l 1
 354 347 l 1
 354 0 l 1
 261 0 l 1
 261 347 l 1
 172 347 l 1
 172 417 l 1
 261 417 l 1
EndSplineSet
EndChar

StartChar: tbar
Encoding: 657 359 551
Width: 278
Flags: MW
HStem: -23 73<152.5 221> 252 70<13 84 13 85 167 253> 456 68<13 84 13 84 167 253>
VStem: 84 83<78.5 97 97 252 322 456 524 668>
LayerCount: 2
Fore
SplineSet
85 322 m 1
 84 322 l 1
 84 456 l 1
 13 456 l 1
 13 524 l 1
 84 524 l 1
 84 668 l 1
 167 668 l 1
 167 524 l 1
 253 524 l 1
 253 456 l 1
 167 456 l 1
 167 322 l 1
 253 322 l 1
 253 252 l 1
 167 252 l 1
 167 97 l 2
 167 60 177 50 213 50 c 0
 229 50 242 51 253 54 c 1
 253 -16 l 1
 225 -21 205 -23 185 -23 c 0
 120 -23 84 7 84 60 c 2
 84 252 l 1
 13 252 l 1
 13 322 l 1
 85 322 l 1
EndSplineSet
EndChar

StartChar: Utilde
Encoding: 658 360 552
Width: 722
Flags: W
HStem: -23 82<337 422.5 337 449.5> 709 20G<85 178 178 178 552 645 645 645> 769 67<423.5 436 421 457.5> 769 104 807 66<291.5 304.5>
VStem: 85 93<217 729> 552 93<217 729>
LayerCount: 2
Fore
SplineSet
464 873 m 1xd6
 522 873 l 1xce
 512 804 482 769 433 769 c 0xe6
 414 769 402 773 348 794 c 0
 324 803 310 807 299 807 c 0
 284 807 272 793 266 770 c 1
 208 770 l 1
 219 836 250 873 294 873 c 0xce
 315 873 322 871 364 854 c 1
 388 843 415 836 427 836 c 0xe6
 445 836 456 848 464 873 c 1xd6
552 729 m 1
 645 729 l 1
 645 217 l 2
 645 71 535 -23 364 -23 c 0
 191 -23 85 69 85 217 c 2
 85 729 l 1
 178 729 l 1
 178 217 l 2
 178 162 195 125 231 97 c 1
 266 72 310 59 364 59 c 0
 481 59 552 119 552 217 c 2
 552 729 l 1
EndSplineSet
EndChar

StartChar: utilde
Encoding: 659 361 553
Width: 556
Flags: W
HStem: -23 73<223 270.5> 504 20G<65 148 148 148 399 482 482 482> 564 67<332.5 345 330 366.5> 564 104 602 66<200.5 213.5>
VStem: 65 83<121.5 153 153 524> 399 83<227 524> 407 75<0 73 73 73>
LayerCount: 2
Fore
SplineSet
373 668 m 1xd4
 431 668 l 1xcc
 421 599 391 564 342 564 c 0xe4
 323 564 311 568 257 589 c 0
 233 598 219 602 208 602 c 0
 193 602 181 588 175 565 c 1
 117 565 l 1
 128 631 159 668 203 668 c 0xcc
 224 668 231 666 273 649 c 1
 297 638 324 631 336 631 c 0xe4
 354 631 365 643 373 668 c 1xd4
482 0 m 1xc5
 407 0 l 1
 407 73 l 1xc5
 358 4 309 -23 232 -23 c 0
 130 -23 65 33 65 120 c 2
 65 524 l 1
 148 524 l 1
 148 153 l 2
 148 90 190 50 256 50 c 0
 343 50 399 120 399 227 c 2
 399 524 l 1
 482 524 l 1xc6
 482 0 l 1xc5
EndSplineSet
EndChar

StartChar: Umacron
Encoding: 320 362 214
Width: 722
Flags: MW
HStem: -23 82<337 422.5 337 449.5> 709 20<85 178 178 178 552 645 645 645> 830 70<228 502 228 502>
VStem: 85 93<217 729> 228 274<830 900 830 900> 552 93<217 729>
LayerCount: 2
Fore
SplineSet
552 729 m 1
 645 729 l 1
 645 217 l 2
 645 71 535 -23 364 -23 c 0
 191 -23 85 69 85 217 c 2
 85 729 l 1
 178 729 l 1
 178 217 l 2
 178 162 195 125 231 97 c 1
 266 72 310 59 364 59 c 0
 481 59 552 119 552 217 c 2
 552 729 l 1
502 900 m 1
 502 830 l 1
 228 830 l 1
 228 900 l 1
 502 900 l 1
EndSplineSet
EndChar

StartChar: Ubreve
Encoding: 660 364 554
Width: 722
Flags: MW
HStem: -23 82<337 422.5 337 449.5> 709 20G<85 178 178 178 552 645 645 645> 769 69<337.5 393 337.5 410.5>
VStem: 85 93<217 729> 215 59<904 904> 457 59<904 904> 552 93<217 729>
LayerCount: 2
Fore
SplineSet
215 904 m 1
 274 904 l 1
 279 860 309 838 366 838 c 0
 420 838 453 862 457 904 c 1
 516 904 l 1
 509 815 457 769 364 769 c 0
 308 769 263 789 236 826 c 0
 222 846 216 865 215 904 c 1
552 729 m 1
 645 729 l 1
 645 217 l 2
 645 71 535 -23 364 -23 c 0
 191 -23 85 69 85 217 c 2
 85 729 l 1
 178 729 l 1
 178 217 l 2
 178 162 195 125 231 97 c 1
 266 72 310 59 364 59 c 0
 481 59 552 119 552 217 c 2
 552 729 l 1
EndSplineSet
EndChar

StartChar: ubreve
Encoding: 661 365 555
Width: 556
Flags: W
HStem: -23 73<223 270.5> 504 20G<65 148 148 148 399 482 482 482> 564 69<245.5 301 245.5 318.5> 679 20G<123 182 182 182 365 424 424 424>
VStem: 65 83<121.5 153 153 524> 123 59<699 699> 365 59<699 699> 399 83<227 524> 407 75<0 73 73 73>
LayerCount: 2
Fore
SplineSet
123 699 m 1xf6
 182 699 l 1
 187 655 217 633 274 633 c 0
 328 633 361 657 365 699 c 1
 424 699 l 1
 417 610 365 564 272 564 c 0
 216 564 171 584 144 621 c 0
 130 641 124 660 123 699 c 1xf6
482 0 m 1xf080
 407 0 l 1
 407 73 l 1xf080
 358 4 309 -23 232 -23 c 0
 130 -23 65 33 65 120 c 2
 65 524 l 1
 148 524 l 1
 148 153 l 2
 148 90 190 50 256 50 c 0
 343 50 399 120 399 227 c 2
 399 524 l 1
 482 524 l 1xf9
 482 0 l 1xf080
EndSplineSet
EndChar

StartChar: Uring
Encoding: 302 366 196
Width: 722
Flags: MW
HStem: -23 82<337 422.5 337 449.5> 709 20G<85 178 178 178 552 645 645 645> 778 44<353 377 353 389> 909 44<353 377.5>
VStem: 85 93<217 729> 277 44<854 877.5 854 889.5> 409 44<853.5 877.5> 552 93<217 729>
LayerCount: 2
Fore
SplineSet
552 729 m 1
 645 729 l 1
 645 217 l 2
 645 71 535 -23 364 -23 c 0
 191 -23 85 69 85 217 c 2
 85 729 l 1
 178 729 l 1
 178 217 l 2
 178 162 195 125 231 97 c 1
 266 72 310 59 364 59 c 0
 481 59 552 119 552 217 c 2
 552 729 l 1
365 953 m 0
 414 953 453 914 453 865 c 0
 453 817 413 778 365 778 c 0
 317 778 277 818 277 866 c 0
 277 913 317 953 365 953 c 0
365 909 m 0
 341 909 321 889 321 866 c 0
 321 842 341 822 365 822 c 0
 389 822 409 842 409 865 c 0
 409 890 390 909 365 909 c 0
EndSplineSet
EndChar

StartChar: uring
Encoding: 366 367 260
Width: 556
Flags: W
HStem: -23 73<223 270.5> 504 20G<65 148 148 148 399 482 482 482> 579 44<261 285 261 297> 710 44<261 285.5>
VStem: 65 83<121.5 153 153 524> 185 44<655 678.5 655 690.5> 317 44<654.5 678.5> 399 83<227 524> 407 75<0 73 73 73>
LayerCount: 2
Fore
SplineSet
482 0 m 1xfe80
 407 0 l 1
 407 73 l 1xfe80
 358 4 309 -23 232 -23 c 0
 130 -23 65 33 65 120 c 2
 65 524 l 1
 148 524 l 1
 148 153 l 2
 148 90 190 50 256 50 c 0
 343 50 399 120 399 227 c 2
 399 524 l 1
 482 524 l 1xff
 482 0 l 1xfe80
273 754 m 0
 322 754 361 715 361 666 c 0
 361 618 321 579 273 579 c 0
 225 579 185 619 185 667 c 0
 185 714 225 754 273 754 c 0
273 710 m 0
 249 710 229 690 229 667 c 0
 229 643 249 623 273 623 c 0
 297 623 317 643 317 666 c 0
 317 691 298 710 273 710 c 0
EndSplineSet
EndChar

StartChar: Uhungarumlaut
Encoding: 303 368 197
Width: 722
Flags: MW
HStem: -23 82<337 422.5 337 449.5> 709 20<85 178 178 178 552 645 645 645>
VStem: 85 93<217 729> 552 93<217 729>
LayerCount: 2
Fore
SplineSet
552 729 m 1
 645 729 l 1
 645 217 l 2
 645 71 535 -23 364 -23 c 0
 191 -23 85 69 85 217 c 2
 85 729 l 1
 178 729 l 1
 178 217 l 2
 178 162 195 125 231 97 c 1
 266 72 310 59 364 59 c 0
 481 59 552 119 552 217 c 2
 552 729 l 1
329 939 m 1
 442 939 l 1
 293 789 l 1
 233 789 l 1
 329 939 l 1
503 939 m 1
 616 939 l 1
 467 789 l 1
 407 789 l 1
 503 939 l 1
EndSplineSet
EndChar

StartChar: uhungarumlaut
Encoding: 367 369 261
Width: 556
Flags: W
HStem: -23 73<223 270.5> 504 20G<65 148 148 148 399 482 482 482> 720 20G<243 356 356 356 417 530 530 530>
VStem: 65 83<121.5 153 153 524> 399 83<227 524> 407 75<0 73 73 73>
LayerCount: 2
Fore
SplineSet
482 0 m 1xf4
 407 0 l 1
 407 73 l 1xf4
 358 4 309 -23 232 -23 c 0
 130 -23 65 33 65 120 c 2
 65 524 l 1
 148 524 l 1
 148 153 l 2
 148 90 190 50 256 50 c 0
 343 50 399 120 399 227 c 2
 399 524 l 1
 482 524 l 1xf8
 482 0 l 1xf4
243 740 m 1
 356 740 l 1
 207 590 l 1
 147 590 l 1
 243 740 l 1
417 740 m 1
 530 740 l 1
 381 590 l 1
 321 590 l 1
 417 740 l 1
EndSplineSet
EndChar

StartChar: Uogonek
Encoding: 321 370 215
Width: 722
Flags: MW
HStem: -205 45<516 536> -23 82<337 384> 709 20<85 178 178 178 552 645 645 645>
VStem: 85 93<217 729> 394 73<-123.5 -91.5> 552 93<217 729>
LayerCount: 2
Fore
SplineSet
602 -150 m 1
 602 -195 l 1
 578 -200 545 -205 527 -205 c 0
 505 -205 480 -200 457 -192 c 0
 415 -176 394 -150 394 -112 c 0
 394 -71 415 -42 467 -10 c 1
 423 -20 402 -23 366 -23 c 0
 192 -23 85 68 85 217 c 2
 85 729 l 1
 178 729 l 1
 178 217 l 2
 178 162 195 125 231 97 c 1
 266 72 310 59 364 59 c 0
 481 59 552 119 552 217 c 2
 552 729 l 1
 645 729 l 1
 645 217 l 2
 645 160 628 110 595 66 c 0
 580 46 577 43 532 0 c 0
 489 -41 467 -76 467 -106 c 0
 467 -141 492 -160 539 -160 c 0
 563 -160 584 -157 602 -150 c 1
EndSplineSet
EndChar

StartChar: uogonek
Encoding: 383 371 277
Width: 556
Flags: W
HStem: -204 44<451.5 475> -23 73<223 270.5> 504 20G<65 148 148 148 399 482 482 482>
VStem: 65 83<121.5 153 153 524> 333 72<-124 -89.5> 399 83<227 524 0 524> 407 75<0 73 73 73>
LayerCount: 2
Fore
SplineSet
482 524 m 1xf4
 482 0 l 1
 436 -26 405 -69 405 -108 c 0
 405 -140 431 -160 472 -160 c 0
 488 -160 500 -158 521 -150 c 1
 521 -195 l 1
 515 -196 510 -197 508 -198 c 0
 488 -203 481 -204 469 -204 c 0
 386 -204 333 -168 333 -111 c 0
 333 -68 363 -34 429 0 c 1
 407 0 l 1
 407 73 l 1xfa
 358 4 309 -23 232 -23 c 0
 130 -23 65 33 65 120 c 2
 65 524 l 1
 148 524 l 1
 148 153 l 2
 148 90 190 50 256 50 c 0
 343 50 399 120 399 227 c 2
 399 524 l 1
 482 524 l 1xf4
EndSplineSet
EndChar

StartChar: Wcircumflex
Encoding: 662 372 556
Width: 944
Flags: MW
HStem: 0 21G<209 311 209 209 642 744 642 642> 709 20G<22 126 126 126 425 525 525 525 825 929 929 929>
LayerCount: 2
Fore
SplineSet
428 919 m 1
 523 919 l 1
 619 769 l 1
 556 769 l 1
 475 865 l 1
 396 769 l 1
 332 769 l 1
 428 919 l 1
744 0 m 1
 642 0 l 1
 474 599 l 1
 311 0 l 1
 209 0 l 1
 22 729 l 1
 126 729 l 1
 263 137 l 1
 425 729 l 1
 525 729 l 1
 691 137 l 1
 825 729 l 1
 929 729 l 1
 744 0 l 1
EndSplineSet
EndChar

StartChar: wcircumflex
Encoding: 663 373 557
Width: 722
Flags: MW
HStem: 0 21G<158 252 158 158 459 554 459 459> 504 20G<6 98 98 98 305 407 407 407 614 708 708 708>
LayerCount: 2
Fore
SplineSet
310 714 m 1
 405 714 l 1
 501 564 l 1
 438 564 l 1
 357 660 l 1
 278 564 l 1
 214 564 l 1
 310 714 l 1
554 0 m 1
 459 0 l 1
 353 411 l 1
 252 0 l 1
 158 0 l 1
 6 524 l 1
 98 524 l 1
 205 116 l 1
 305 524 l 1
 407 524 l 1
 510 116 l 1
 614 524 l 1
 708 524 l 1
 554 0 l 1
EndSplineSet
EndChar

StartChar: Ycircumflex
Encoding: 664 374 558
Width: 667
Flags: MW
HStem: 0 21G<294 387 294 294> 709 20G<13 128 128 128 550 661 661 661>
VStem: 294 93<0 286 0 286>
LayerCount: 2
Fore
SplineSet
289 919 m 1
 384 919 l 1
 480 769 l 1
 417 769 l 1
 336 865 l 1
 257 769 l 1
 193 769 l 1
 289 919 l 1
387 286 m 1
 387 0 l 1
 294 0 l 1
 294 286 l 1
 13 729 l 1
 128 729 l 1
 342 374 l 1
 550 729 l 1
 661 729 l 1
 387 286 l 1
EndSplineSet
EndChar

StartChar: Ydieresis
Encoding: 310 376 204
Width: 667
Flags: W
HStem: 0 21<294 387 294 294> 709 20<13 128 128 128 550 661 661 661> 811 103<208 312 208 312 208 370 370 474>
VStem: 208 104<811 914 811 914> 294 93<0 286 0 286> 370 104<811 914 811 914>
LayerCount: 2
Fore
SplineSet
387 286 m 1xe8
 387 0 l 1
 294 0 l 1
 294 286 l 1
 13 729 l 1
 128 729 l 1
 342 374 l 1
 550 729 l 1
 661 729 l 1
 387 286 l 1xe8
312 914 m 1xf0
 312 811 l 1
 208 811 l 1
 208 914 l 1
 312 914 l 1xf0
474 914 m 1xe4
 474 811 l 1
 370 811 l 1
 370 914 l 1
 474 914 l 1xe4
EndSplineSet
EndChar

StartChar: Zacute
Encoding: 305 377 199
Width: 611
Flags: W
HStem: 0 82<145 583 28 28> 647 82<56 466 56 581>
VStem: 28 555<0 82 0 82> 56 525<647 729 645 729>
LayerCount: 2
Fore
SplineSet
581 729 m 1xd0
 581 645 l 1xd0
 145 82 l 1
 583 82 l 1
 583 0 l 1
 28 0 l 1
 28 82 l 1xe0
 466 647 l 1
 56 647 l 1
 56 729 l 1
 581 729 l 1xd0
347 939 m 1
 460 939 l 1
 311 791 l 1
 251 791 l 1
 347 939 l 1
EndSplineSet
EndChar

StartChar: zacute
Encoding: 369 378 263
Width: 500
Flags: W
HStem: 0 73<132 457 132 457> 451 73<52 344 52 443> 720 20<278 391 391 391>
VStem: 31 426<0 73 0 75 0 75> 52 391<451 524 450 524>
LayerCount: 2
Fore
SplineSet
443 524 m 1xe8
 443 450 l 1xe8
 132 73 l 1
 457 73 l 1
 457 0 l 1
 31 0 l 1
 31 75 l 1xf0
 344 451 l 1
 52 451 l 1
 52 524 l 1
 443 524 l 1xe8
278 740 m 1
 391 740 l 1
 242 592 l 1
 182 592 l 1
 278 740 l 1
EndSplineSet
EndChar

StartChar: Zdotaccent
Encoding: 307 379 201
Width: 611
Flags: W
HStem: 0 82<145 583 28 28> 647 82<56 466 56 581> 811 104<267 371 267 371>
VStem: 28 555<0 82 0 82> 56 525<647 729 645 729> 267 104<811 915 811 915>
LayerCount: 2
Fore
SplineSet
581 729 m 1xe8
 581 645 l 1xe8
 145 82 l 1
 583 82 l 1
 583 0 l 1
 28 0 l 1
 28 82 l 1xf0
 466 647 l 1
 56 647 l 1
 56 729 l 1
 581 729 l 1xe8
371 915 m 1xe4
 371 811 l 1
 267 811 l 1
 267 915 l 1
 371 915 l 1xe4
EndSplineSet
EndChar

StartChar: zdotaccent
Encoding: 371 380 265
Width: 500
Flags: W
HStem: 0 73<132 457 132 457> 451 73<52 344 52 443> 612 104<199 303 199 303>
VStem: 31 426<0 73 0 75 0 75> 52 391<451 524 450 524> 199 104<612 716 612 716>
LayerCount: 2
Fore
SplineSet
443 524 m 1xe8
 443 450 l 1xe8
 132 73 l 1
 457 73 l 1
 457 0 l 1
 31 0 l 1
 31 75 l 1xf0
 344 451 l 1
 52 451 l 1
 52 524 l 1
 443 524 l 1xe8
303 716 m 1xe4
 303 612 l 1
 199 612 l 1
 199 716 l 1
 303 716 l 1xe4
EndSplineSet
EndChar

StartChar: Zcaron
Encoding: 306 381 200
Width: 611
Flags: W
HStem: 0 82<145 583 28 28> 647 82<56 466 56 581>
VStem: 28 555<0 82 0 82> 56 525<647 729 645 729>
LayerCount: 2
Fore
SplineSet
581 729 m 1xd0
 581 645 l 1xd0
 145 82 l 1
 583 82 l 1
 583 0 l 1
 28 0 l 1
 28 82 l 1xe0
 466 647 l 1
 56 647 l 1
 56 729 l 1
 581 729 l 1xd0
366 790 m 1
 271 790 l 1
 175 940 l 1
 238 940 l 1
 319 844 l 1
 398 940 l 1
 462 940 l 1
 366 790 l 1
EndSplineSet
EndChar

StartChar: zcaron
Encoding: 370 382 264
Width: 500
Flags: W
HStem: 0 73<132 457 132 457> 451 73<52 344 52 443> 721 20<107 170 170 170 330 394 394 394>
VStem: 31 426<0 73 0 75 0 75> 52 391<451 524 450 524>
LayerCount: 2
Fore
SplineSet
443 524 m 1xe8
 443 450 l 1xe8
 132 73 l 1
 457 73 l 1
 457 0 l 1
 31 0 l 1
 31 75 l 1xf0
 344 451 l 1
 52 451 l 1
 52 524 l 1
 443 524 l 1xe8
298 591 m 1
 203 591 l 1
 107 741 l 1
 170 741 l 1
 251 645 l 1
 330 741 l 1
 394 741 l 1
 298 591 l 1
EndSplineSet
EndChar

StartChar: longs
Encoding: 666 383 560
Width: 278
Flags: MW
HStem: 0 21G<88 171 88 88> 456 68<18 88 18 88> 659 73<210 219.5 172.5 232.5>
VStem: 88 83<0 456 456 456 524 606>
LayerCount: 2
Fore
SplineSet
171 0 m 1
 88 0 l 1
 88 456 l 1
 18 456 l 1
 18 524 l 1
 88 524 l 1
 88 613 l 2
 88 688 134 732 211 732 c 0
 228 732 239 731 258 727 c 1
 258 658 l 1
 239 659 236 659 229 659 c 0
 191 659 171 641 171 606 c 2
 171 0 l 1
EndSplineSet
EndChar

StartChar: florin
Encoding: 166 402 101
Width: 556
Flags: MW
HStem: -212 78<69 91> 392 70<140 253 140 265 354 467> 658 80<443 467.5>
VStem: 140 327<392 462 392 462>
LayerCount: 2
Fore
SplineSet
467 462 m 1
 467 392 l 1
 341 392 l 1
 266 -5 l 2
 253 -75 233 -122 201 -155 c 0
 167 -190 116 -212 66 -212 c 0
 42 -212 24 -209 11 -202 c 1
 28 -118 l 1
 45 -129 59 -134 79 -134 c 0
 130 -134 160 -98 175 -21 c 2
 253 392 l 1
 140 392 l 1
 140 462 l 1
 265 462 l 1
 287 566 l 2
 298 622 318 661 348 690 c 0
 380 720 423 738 463 738 c 0
 489 738 512 732 542 719 c 1
 512 640 l 1
 487 654 475 658 460 658 c 0
 413 658 381 614 366 532 c 2
 354 462 l 1
 467 462 l 1
EndSplineSet
EndChar

StartChar: scommaaccent
Encoding: 360 537 254
Width: 500
Flags: MW
HStem: -284 38<197 216> -160 100<197 252 197 297> -23 77<227.5 286.5 227.5 309> 462 77<211 278.5>
VStem: 47 87<364.5 407 364.5 427.5> 197 100<-284 -163 -246 -163 -160 -60> 372 87<111.5 155>
LayerCount: 2
Fore
SplineSet
438 378 m 1
 350 378 l 1
 348 433 312 462 245 462 c 0
 177 462 134 431 134 383 c 0
 134 346 163 324 231 308 c 2
 311 289 l 2
 415 264 459 221 459 143 c 0
 459 42 375 -23 243 -23 c 0
 106 -23 38 35 34 156 c 1
 122 156 l 1
 127 119 133 104 146 89 c 0
 167 67 205 54 250 54 c 0
 323 54 372 87 372 136 c 0
 372 174 349 195 291 209 c 2
 213 228 l 2
 89 258 47 297 47 379 c 0
 47 476 126 539 248 539 c 0
 369 539 437 481 438 378 c 1
197 -60 m 1
 297 -60 l 1
 297 -163 l 2
 297 -238 259 -285 197 -284 c 1
 197 -246 l 1
 235 -246 254 -215 252 -160 c 1
 197 -160 l 1
 197 -60 l 1
EndSplineSet
EndChar

StartChar: circumflex
Encoding: 195 710 126
Width: 333
Flags: MW
HStem: 721 20<116 211 211 211>
LayerCount: 2
Fore
SplineSet
116 741 m 1
 211 741 l 1
 307 591 l 1
 244 591 l 1
 163 687 l 1
 84 591 l 1
 20 591 l 1
 116 741 l 1
EndSplineSet
EndChar

StartChar: caron
Encoding: 207 711 136
Width: 333
Flags: MW
HStem: 721 20<19 82 82 82 242 306 306 306>
LayerCount: 2
Fore
SplineSet
210 591 m 1
 115 591 l 1
 19 741 l 1
 82 741 l 1
 163 645 l 1
 242 741 l 1
 306 741 l 1
 210 591 l 1
EndSplineSet
EndChar

StartChar: breve
Encoding: 198 728 129
Width: 333
Flags: MW
HStem: 597 69<137.5 193 137.5 210.5> 712 20<15 74 74 74 257 316 316 316>
LayerCount: 2
Fore
SplineSet
15 732 m 1
 74 732 l 1
 79 688 109 666 166 666 c 0
 220 666 253 690 257 732 c 1
 316 732 l 1
 309 643 257 597 164 597 c 0
 108 597 63 617 36 654 c 0
 22 674 16 693 15 732 c 1
EndSplineSet
EndChar

StartChar: dotaccent
Encoding: 199 729 130
Width: 333
Flags: MW
HStem: 612 104<115 219 115 219>
VStem: 115 104<612 716 612 716>
LayerCount: 2
Fore
SplineSet
219 716 m 1
 219 612 l 1
 115 612 l 1
 115 716 l 1
 219 716 l 1
EndSplineSet
EndChar

StartChar: ring
Encoding: 202 730 132
Width: 333
Flags: MW
HStem: 579 44<155 179 155 191> 710 44<155 179.5>
VStem: 79 44<655 678.5 655 690.5> 211 44<654.5 678.5>
LayerCount: 2
Fore
SplineSet
167 754 m 0
 216 754 255 715 255 666 c 0
 255 618 215 579 167 579 c 0
 119 579 79 619 79 667 c 0
 79 714 119 754 167 754 c 0
167 710 m 0
 143 710 123 690 123 667 c 0
 123 643 143 623 167 623 c 0
 191 623 211 643 211 666 c 0
 211 691 192 710 167 710 c 0
EndSplineSet
EndChar

StartChar: ogonek
Encoding: 206 731 135
Width: 333
Flags: MW
HStem: -205 45<178.5 198.5> -20 20<154 224 224 224>
VStem: 57 73<-123.5 -87>
LayerCount: 2
Fore
SplineSet
154 0 m 1
 224 0 l 1
 151 -41 130 -64 130 -106 c 0
 130 -141 155 -160 202 -160 c 0
 226 -160 247 -157 265 -150 c 1
 265 -195 l 1
 241 -200 208 -205 189 -205 c 0
 167 -205 142 -200 120 -192 c 0
 78 -176 57 -150 57 -111 c 0
 57 -63 93 -22 154 0 c 1
EndSplineSet
EndChar

StartChar: tilde
Encoding: 196 732 127
Width: 333
Flags: W
HStem: 613 67<220.5 233 218 254.5> 651 66<88.5 101.5>
LayerCount: 2
Fore
SplineSet
261 717 m 1x40
 319 717 l 1x40
 309 648 279 613 230 613 c 0x80
 211 613 199 617 145 638 c 0
 121 647 107 651 96 651 c 0
 81 651 69 637 63 614 c 1
 5 614 l 1
 16 680 47 717 91 717 c 0x40
 112 717 119 715 161 698 c 1
 185 687 212 680 224 680 c 0x80
 242 680 253 692 261 717 c 1x40
EndSplineSet
EndChar

StartChar: hungarumlaut
Encoding: 205 733 134
Width: 333
Flags: MW
HStem: 720 20<61 174 174 174 235 348 348 348>
LayerCount: 2
Fore
SplineSet
61 740 m 1
 174 740 l 1
 25 590 l 1
 -35 590 l 1
 61 740 l 1
235 740 m 1
 348 740 l 1
 199 590 l 1
 139 590 l 1
 235 740 l 1
EndSplineSet
EndChar

StartChar: Delta
Encoding: 412 916 306
Width: 711
Flags: MW
HStem: 0 82<143 566 143 701> 709 20<304 404 404 404>
LayerCount: 2
Fore
SplineSet
10 0 m 1
 304 729 l 1
 404 729 l 1
 701 0 l 1
 10 0 l 1
355 616 m 1
 143 82 l 1
 566 82 l 1
 355 616 l 1
EndSplineSet
EndChar

StartChar: mu
Encoding: 421 956 315
Width: 556
Flags: W
HStem: -23 70<458.5 528> -23 73<222.5 272>
VStem: 65 83<-220 3 121.5 153 153 524> 398 83<227 524>
LayerCount: 2
Fore
SplineSet
544 49 m 1xb0
 544 -14 l 1
 518 -21 505 -23 487 -23 c 0
 430 -23 403 3 401 60 c 1
 362 5 306 -23 238 -23 c 0
 202 -23 173 -15 148 3 c 1
 148 -220 l 1
 65 -220 l 1
 65 524 l 1
 148 524 l 1
 148 153 l 2
 148 90 190 50 255 50 c 0x70
 342 50 398 120 398 227 c 2
 398 524 l 1
 481 524 l 1
 481 88 l 2
 481 61 497 47 526 47 c 0
 530 47 534 47 544 49 c 1xb0
EndSplineSet
EndChar

StartChar: uni0400
Encoding: 488 1024 382
Width: 667
Flags: MW
HStem: 0 82<183 613 183 613> 332 82<183 580 183 580> 647 82<183 595 183 183>
VStem: 90 93<82 332 82 414 414 647>
LayerCount: 2
Fore
SplineSet
351 917 m 1
 447 769 l 1
 387 769 l 1
 238 917 l 1
 351 917 l 1
183 332 m 1
 183 82 l 1
 613 82 l 1
 613 0 l 1
 90 0 l 1
 90 729 l 1
 595 729 l 1
 595 647 l 1
 183 647 l 1
 183 414 l 1
 580 414 l 1
 580 332 l 1
 183 332 l 1
EndSplineSet
EndChar

StartChar: afii10023
Encoding: 428 1025 322
Width: 667
Flags: MW
HStem: 0 82<172 602 172 602> 332 82<172 569 172 569> 647 82<172 584 172 172> 811 103<199 303 199 303 199 361 361 465>
VStem: 79 93<82 332 82 414 414 647> 199 104<811 914 811 914> 361 104<811 914 811 914>
LayerCount: 2
Fore
SplineSet
172 332 m 1
 172 82 l 1
 602 82 l 1
 602 0 l 1
 79 0 l 1
 79 729 l 1
 584 729 l 1
 584 647 l 1
 172 647 l 1
 172 414 l 1
 569 414 l 1
 569 332 l 1
 172 332 l 1
303 914 m 1
 303 811 l 1
 199 811 l 1
 199 914 l 1
 303 914 l 1
465 914 m 1
 465 811 l 1
 361 811 l 1
 361 914 l 1
 465 914 l 1
EndSplineSet
EndChar

StartChar: afii10051
Encoding: 489 1026 383
Width: 738
Flags: MW
HStem: -174 82<464 512 464 512 512 516> 0 21G<221 314 221 221 608 608> 387 82<314 512 314 516> 647 82<21 221 21 513 314 314 314 513>
VStem: 221 93<0 387 0 469 469 647> 608 93<0 18 18 277>
LayerCount: 2
Fore
SplineSet
464 -174 m 1
 464 -92 l 1
 512 -92 l 2
 567 -92 608 -62 608 0 c 2
 608 295 l 2
 608 357 567 387 512 387 c 2
 314 387 l 1
 314 0 l 1
 221 0 l 1
 221 647 l 1
 21 647 l 1
 21 729 l 1
 513 729 l 1
 513 647 l 1
 314 647 l 1
 314 469 l 1
 516 469 l 2
 642 469 701 393 701 277 c 2
 701 18 l 2
 701 -98 642 -174 516 -174 c 2
 464 -174 l 1
EndSplineSet
EndChar

StartChar: afii10052
Encoding: 490 1027 384
Width: 611
Flags: MW
HStem: 0 21G<90 183 90 90> 647 82<183 579 183 183>
VStem: 90 93<0 647>
LayerCount: 2
Fore
SplineSet
183 0 m 1
 90 0 l 1
 90 729 l 1
 579 729 l 1
 579 647 l 1
 183 647 l 1
 183 0 l 1
326 917 m 1
 439 917 l 1
 290 769 l 1
 230 769 l 1
 326 917 l 1
EndSplineSet
EndChar

StartChar: afii10053
Encoding: 491 1028 385
Width: 722
Flags: MW
HStem: -23 82<329.5 417 309 466> 332 82<142 508 144 508 144 508> 659 82<332 399.5>
VStem: 48 94<332 332 332 415>
LayerCount: 2
Fore
SplineSet
142 332 m 1
 150 164 240 59 378 59 c 0
 456 59 518 93 548 153 c 0
 563 182 573 216 581 266 c 1
 677 266 l 1
 655 73 555 -23 377 -23 c 0
 282 -23 210 4 154 62 c 0
 85 133 48 236 48 356 c 0
 48 474 84 578 150 650 c 0
 204 710 283 741 381 741 c 0
 541 741 633 663 662 503 c 1
 567 503 l 1
 556 557 541 588 514 613 c 0
 484 641 429 659 370 659 c 0
 244 659 160 567 144 414 c 1
 508 414 l 1
 508 332 l 1
 142 332 l 1
EndSplineSet
EndChar

StartChar: afii10055
Encoding: 493 1030 387
Width: 278
Flags: MW
HStem: 0 21G<100 194 100 100> 709 20G<100 194 194 194>
VStem: 100 94<0 729 0 729>
LayerCount: 2
Fore
SplineSet
194 729 m 1
 194 0 l 1
 100 0 l 1
 100 729 l 1
 194 729 l 1
EndSplineSet
EndChar

StartChar: afii10056
Encoding: 494 1031 388
Width: 278
Flags: W
HStem: 0 21G<100 194 100 100> 709 20G<100 194 194 194> 805 103<8 112 8 112 8 170 170 274>
VStem: 8 104<805 908 805 908> 100 94<0 729 0 729> 170 104<805 908 805 908>
LayerCount: 2
Fore
SplineSet
112 908 m 1xf0
 112 805 l 1
 8 805 l 1
 8 908 l 1
 112 908 l 1xf0
274 908 m 1xe4
 274 805 l 1
 170 805 l 1
 170 908 l 1
 274 908 l 1xe4
194 729 m 1xe8
 194 0 l 1
 100 0 l 1
 100 729 l 1
 194 729 l 1xe8
EndSplineSet
EndChar

StartChar: afii10058
Encoding: 496 1033 390
Width: 1080
Flags: W
HStem: 0 82<607 798 798 807> 0 94<83 145.5 83 196.5> 333 82<607 751 751 798 607 751> 647 82<288 513 288 288>
VStem: 194 94<576.5 647 534.5 729> 513 94<82 82 82 333 415 647 647 647> 929 93<189.5 208 179.5 225>
LayerCount: 2
Fore
SplineSet
513 0 m 1x7e
 513 647 l 1
 288 647 l 1
 288 422 310 0 83 0 c 1
 83 94 l 1x7e
 208 94 194 424 194 729 c 1
 607 729 l 1
 607 415 l 1
 751 415 l 2
 929 415 1006 338 1022 208 c 1
 1022 151 1002 99 966 61 c 0
 927 19 876 0 807 0 c 2xbe
 513 0 l 1x7e
607 82 m 1xbe
 798 82 l 2
 843 82 873 93 895 117 c 0
 917 140 929 172 929 207 c 0
 929 243 917 275 895 298 c 0
 873 322 843 333 798 333 c 2
 607 333 l 1
 607 82 l 1xbe
EndSplineSet
EndChar

StartChar: afii10059
Encoding: 497 1034 391
Width: 1014
Flags: MW
HStem: 0 82<574 748 748 757> 332 82<177 481 177 177> 709 20G<83 176 176 176 481 574 574 574>
VStem: 83 94<0 332 0 729> 481 93<82 82 82 332 332 332 415 729> 879 93<189.5 208 179.5 225>
LayerCount: 2
Fore
SplineSet
481 0 m 1
 481 332 l 1
 177 332 l 1
 177 0 l 1
 83 0 l 1
 83 729 l 1
 176 729 l 1
 176 414 l 1
 481 414 l 1
 481 729 l 1
 574 729 l 1
 574 415 l 1
 701 415 l 2
 879 415 956 338 972 208 c 1
 972 151 952 99 916 61 c 0
 877 19 826 0 757 0 c 2
 481 0 l 1
574 82 m 1
 748 82 l 2
 793 82 823 93 845 117 c 0
 867 140 879 172 879 207 c 0
 879 243 867 275 845 298 c 0
 823 322 793 333 748 333 c 2
 574 333 l 1
 574 82 l 1
EndSplineSet
EndChar

StartChar: afii10060
Encoding: 498 1035 392
Width: 748
Flags: MW
HStem: 0 21G<221 314 221 221 618 711 618 618> 387 82<314 522 314 526> 647 82<21 221 21 513 314 314 314 513>
VStem: 221 93<0 387 469 647> 618 93<0 277 0 295 0 326>
LayerCount: 2
Fore
SplineSet
314 469 m 1
 526 469 l 2
 652 469 711 393 711 277 c 2
 711 0 l 1
 618 0 l 1
 618 295 l 2
 618 357 577 387 522 387 c 2
 314 387 l 1
 314 0 l 1
 221 0 l 1
 221 647 l 1
 21 647 l 1
 21 729 l 1
 513 729 l 1
 513 647 l 1
 314 647 l 1
 314 469 l 1
EndSplineSet
EndChar

StartChar: afii10061
Encoding: 499 1036 393
Width: 667
Flags: MW
HStem: 0 21G<79 172 79 79 548 548 548 658> 709 20G<79 172 172 172 535 655 655 655>
VStem: 79 93<0 324 414 729>
LayerCount: 2
Fore
SplineSet
172 0 m 1
 79 0 l 1
 79 729 l 1
 172 729 l 1
 172 414 l 1
 535 729 l 1
 655 729 l 1
 243 375 l 1
 658 0 l 1
 548 0 l 1
 172 324 l 1
 172 0 l 1
358 917 m 1
 471 917 l 1
 322 769 l 1
 262 769 l 1
 358 917 l 1
EndSplineSet
EndChar

StartChar: uni040D
Encoding: 500 1037 394
Width: 722
Flags: MW
HStem: 0 21G<76 181 76 76 558 646 558 558> 709 20G<76 164 164 164 545 646 646 646>
VStem: 76 88<133 729 133 729 133 729> 558 88<0 591 591 591>
LayerCount: 2
Fore
SplineSet
76 729 m 1
 164 729 l 1
 164 133 l 1
 545 729 l 1
 646 729 l 1
 646 0 l 1
 558 0 l 1
 558 591 l 1
 181 0 l 1
 76 0 l 1
 76 729 l 1
370 917 m 1
 466 769 l 1
 406 769 l 1
 257 917 l 1
 370 917 l 1
EndSplineSet
EndChar

StartChar: afii10062
Encoding: 501 1038 395
Width: 650
Flags: MW
HStem: 0 21G<139 252 139 139> 709 20G<26 139 139 139 508 619 619 619> 769 69<294.5 350 294.5 367.5>
VStem: 172 59<904 904> 414 59<904 904>
LayerCount: 2
Fore
SplineSet
252 0 m 1
 139 0 l 1
 268 244 l 1
 26 729 l 1
 139 729 l 1
 324 350 l 1
 508 729 l 1
 619 729 l 1
 252 0 l 1
172 904 m 1
 231 904 l 1
 236 860 266 838 323 838 c 0
 377 838 410 862 414 904 c 1
 473 904 l 1
 466 815 414 769 321 769 c 0
 265 769 220 789 193 826 c 0
 179 846 173 865 172 904 c 1
EndSplineSet
EndChar

StartChar: afii10145
Encoding: 502 1039 396
Width: 722
Flags: MW
HStem: 0 82<177 324 404 551 177 645 404 404> 709 20G<83 177 177 177 551 645 645 645>
VStem: 83 94<82 729 82 729 82 729> 324 80<-135 0 -135 0> 551 94<82 729 0 729>
LayerCount: 2
Fore
SplineSet
404 0 m 1
 404 -135 l 1
 324 -135 l 1
 324 0 l 1
 83 0 l 1
 83 729 l 1
 177 729 l 1
 177 82 l 1
 551 82 l 1
 551 729 l 1
 645 729 l 1
 645 0 l 1
 404 0 l 1
EndSplineSet
EndChar

StartChar: afii10017
Encoding: 422 1040 316
Width: 667
Flags: MW
HStem: 0 21G<17 116 17 17 549 549 549 653> 219 78<216 448 216 474 193 448> 709 20G<277 397 397 397>
LayerCount: 2
Fore
SplineSet
474 219 m 1
 193 219 l 1
 116 0 l 1
 17 0 l 1
 277 729 l 1
 397 729 l 1
 653 0 l 1
 549 0 l 1
 474 219 l 1
448 297 m 1
 336 629 l 1
 216 297 l 1
 448 297 l 1
EndSplineSet
EndChar

StartChar: afii10018
Encoding: 423 1041 317
Width: 667
Flags: MW
HStem: 0 82<172 399 399 408> 353 82<172 399 172 408> 647 82<172 568 172 172>
VStem: 79 93<82 82 82 353 435 647> 530 93<199.5 235>
LayerCount: 2
Fore
SplineSet
623 218 m 0
 623 161 603 99 567 61 c 0
 528 19 477 0 408 0 c 2
 79 0 l 1
 79 729 l 1
 568 729 l 1
 568 647 l 1
 172 647 l 1
 172 435 l 1
 408 435 l 2
 498 435 623 396 623 218 c 0
172 82 m 1
 399 82 l 2
 444 82 474 93 496 117 c 0
 518 140 530 182 530 217 c 0
 530 253 518 295 496 318 c 0
 474 342 444 353 399 353 c 2
 172 353 l 1
 172 82 l 1
EndSplineSet
EndChar

StartChar: afii10019
Encoding: 424 1042 318
Width: 667
Flags: W
HStem: 0 82<172 399 399 408> 333 82<172 352 352 378 172 399 172 352> 647 82<172 352 172 172>
VStem: 79 93<82 82 82 333 415 647> 498 93<511.5 551> 530 93<189.5 225>
LayerCount: 2
Fore
SplineSet
79 0 m 1xf4
 79 729 l 1
 375 729 l 2
 445 729 495 713 533 678 c 0
 571 644 591 597 591 544 c 0xf8
 591 470 556 416 490 385 c 1
 583 349 623 296 623 208 c 0
 623 151 603 99 567 61 c 0
 528 19 477 0 408 0 c 2
 79 0 l 1xf4
172 415 m 1
 352 415 l 2
 404 415 433 422 458 441 c 0
 484 461 498 492 498 531 c 0
 498 571 484 601 458 621 c 0
 433 640 404 647 352 647 c 2
 172 647 l 1
 172 415 l 1
172 82 m 1
 399 82 l 2
 444 82 474 93 496 117 c 0
 518 140 530 172 530 207 c 0xf4
 530 243 518 275 496 298 c 0
 474 322 444 333 399 333 c 2
 172 333 l 1
 172 82 l 1
EndSplineSet
EndChar

StartChar: afii10020
Encoding: 425 1043 319
Width: 611
Flags: MW
HStem: 0 21G<79 172 79 79> 647 82<172 568 172 172>
VStem: 79 93<0 647>
LayerCount: 2
Fore
SplineSet
172 0 m 1
 79 0 l 1
 79 729 l 1
 568 729 l 1
 568 647 l 1
 172 647 l 1
 172 0 l 1
EndSplineSet
EndChar

StartChar: afii10021
Encoding: 426 1044 320
Width: 812
Flags: W
HStem: -135 209<34 114 34 126 698 778 698 698> 0 82<262 593 262 698> 647 82<331 593 331 331>
VStem: 34 80<-135 0 -135 74 -135 74> 237 94<404 647> 593 94<82 647 647 647> 698 80<-135 0 0 0>
LayerCount: 2
Fore
SplineSet
262 82 m 1x7e
 593 82 l 1
 593 647 l 1
 331 647 l 1
 331 404 l 2
 331 282 312 160 262 82 c 1x7e
126 74 m 1xbe
 205 110 237 240 237 404 c 2
 237 729 l 1
 687 729 l 1
 687 74 l 1
 778 74 l 1
 778 -135 l 1
 698 -135 l 1xbe
 698 0 l 1
 114 0 l 1x7e
 114 -135 l 1
 34 -135 l 1
 34 74 l 1
 126 74 l 1xbe
EndSplineSet
EndChar

StartChar: afii10022
Encoding: 427 1045 321
Width: 667
Flags: MW
HStem: 0 82<172 602 172 602> 332 82<172 569 172 569> 647 82<172 584 172 172>
VStem: 79 93<82 332 82 414 414 647>
LayerCount: 2
Fore
SplineSet
172 332 m 1
 172 82 l 1
 602 82 l 1
 602 0 l 1
 79 0 l 1
 79 729 l 1
 584 729 l 1
 584 647 l 1
 172 647 l 1
 172 414 l 1
 569 414 l 1
 569 332 l 1
 172 332 l 1
EndSplineSet
EndChar

StartChar: afii10024
Encoding: 429 1046 323
Width: 1023
Flags: MW
HStem: 0 21G<63 173 63 63 459 459 459 552 830 830 830 948> 709 20G<105 221 221 221 459 552 552 552 790 906 906 906>
VStem: 459 93<0 324 0 324 421 729>
LayerCount: 2
Fore
SplineSet
459 324 m 1
 173 0 l 1
 63 0 l 1
 388 375 l 1
 105 729 l 1
 221 729 l 1
 459 421 l 1
 459 729 l 1
 552 729 l 1
 552 421 l 1
 790 729 l 1
 906 729 l 1
 623 375 l 1
 948 0 l 1
 830 0 l 1
 552 324 l 1
 552 0 l 1
 459 0 l 1
 459 324 l 1
EndSplineSet
EndChar

StartChar: afii10025
Encoding: 430 1047 324
Width: 667
Flags: W
HStem: -23 82<302.5 371.5 302.5 379.5> 321 82<257 345 257 345 345 365> 663 78<282 389>
VStem: 48 88<232 232> 70 88<515 515> 503 93<507 577> 528 93<171.5 230.5>
LayerCount: 2
Fore
SplineSet
257 321 m 1xf2
 257 403 l 1
 345 403 l 2
 434 403 503 474 503 540 c 0
 503 614 438 663 340 663 c 0
 224 663 159 610 158 515 c 1
 70 515 l 1
 71 658 169 741 337 741 c 0
 497 741 596 659 596 527 c 0xec
 596 452 559 403 491 374 c 1
 574 343 621 282 621 200 c 0
 621 137 590 72 541 33 c 1
 494 -3 423 -23 336 -23 c 0
 225 -23 141 13 91 81 c 0
 62 121 49 165 48 232 c 1
 136 232 l 1
 135 187 147 152 174 120 c 0
 209 78 263 59 342 59 c 0
 401 59 447 70 476 90 c 0
 507 112 528 152 528 191 c 0
 528 270 460 321 365 321 c 2
 257 321 l 1xf2
EndSplineSet
EndChar

StartChar: afii10026
Encoding: 431 1048 325
Width: 728
Flags: MW
HStem: 0 21G<79 184 79 79 561 649 561 561> 709 20G<79 167 167 167 548 649 649 649>
VStem: 79 88<126 729 126 729 126 729> 561 88<0 598 598 598>
LayerCount: 2
Fore
SplineSet
79 729 m 1
 167 729 l 1
 167 126 l 1
 548 729 l 1
 649 729 l 1
 649 0 l 1
 561 0 l 1
 561 598 l 1
 184 0 l 1
 79 0 l 1
 79 729 l 1
EndSplineSet
EndChar

StartChar: afii10027
Encoding: 432 1049 326
Width: 728
Flags: MW
HStem: 0 21G<79 184 79 79 561 649 561 561> 709 20G<79 167 167 167 548 649 649 649> 789 69<335.5 391 335.5 408.5>
VStem: 79 88<126 729 126 729 126 729> 213 59<924 924> 455 59<924 924> 561 88<0 598 598 598>
LayerCount: 2
Fore
SplineSet
213 924 m 1
 272 924 l 1
 277 880 307 858 364 858 c 0
 418 858 451 882 455 924 c 1
 514 924 l 1
 507 835 455 789 362 789 c 0
 306 789 261 809 234 846 c 0
 220 866 214 885 213 924 c 1
79 729 m 1
 167 729 l 1
 167 126 l 1
 548 729 l 1
 649 729 l 1
 649 0 l 1
 561 0 l 1
 561 598 l 1
 184 0 l 1
 79 0 l 1
 79 729 l 1
EndSplineSet
EndChar

StartChar: afii10028
Encoding: 433 1050 327
Width: 667
Flags: MW
HStem: 0 21G<79 172 79 79 497 497 497 621> 709 20G<79 172 172 172 477 588 588 588>
VStem: 79 93<0 333 423 729>
LayerCount: 2
Fore
SplineSet
172 0 m 1
 79 0 l 1
 79 729 l 1
 172 729 l 1
 172 423 l 1
 477 729 l 1
 588 729 l 1
 243 384 l 1
 621 0 l 1
 497 0 l 1
 172 333 l 1
 172 0 l 1
EndSplineSet
EndChar

StartChar: afii10029
Encoding: 434 1051 328
Width: 673
Flags: MW
HStem: -10 94<33 73 33 112> 647 82<238 500 238 238>
VStem: 144 94<404 647> 500 94<0 647 647 647>
LayerCount: 2
Fore
SplineSet
500 647 m 1
 238 647 l 1
 238 404 l 2
 238 198 191 -10 33 -10 c 1
 33 84 l 1
 113 84 144 232 144 404 c 2
 144 729 l 1
 594 729 l 1
 594 0 l 1
 500 0 l 1
 500 647 l 1
EndSplineSet
EndChar

StartChar: afii10030
Encoding: 435 1052 329
Width: 844
Flags: MW
HStem: 0 21G<79 167 79 79 374 472 374 374 677 677 677 765> 709 20G<79 208 208 208 636 765 765 765>
VStem: 79 88<0 611 0 729> 677 88<0 611 611 611>
LayerCount: 2
Fore
SplineSet
472 0 m 1
 374 0 l 1
 167 611 l 1
 167 0 l 1
 79 0 l 1
 79 729 l 1
 208 729 l 1
 424 94 l 1
 636 729 l 1
 765 729 l 1
 765 0 l 1
 677 0 l 1
 677 611 l 1
 472 0 l 1
EndSplineSet
EndChar

StartChar: afii10031
Encoding: 436 1053 330
Width: 719
Flags: MW
HStem: 0 21G<79 173 79 79 546 546 546 640> 332 82<173 546 173 173> 709 20G<79 172 172 172 546 640 640 640>
VStem: 79 94<0 332 0 729> 546 94<0 332 332 332 414 729 0 729>
LayerCount: 2
Fore
SplineSet
546 332 m 1
 173 332 l 1
 173 0 l 1
 79 0 l 1
 79 729 l 1
 172 729 l 1
 172 414 l 1
 546 414 l 1
 546 729 l 1
 640 729 l 1
 640 0 l 1
 546 0 l 1
 546 332 l 1
EndSplineSet
EndChar

StartChar: afii10033
Encoding: 438 1055 332
Width: 719
Flags: MW
HStem: 0 21G<79 173 79 79 546 546 546 640> 647 82<173 546 173 173>
VStem: 79 94<0 647 0 729 0 729> 546 94<0 647 647 647>
LayerCount: 2
Fore
SplineSet
546 647 m 1
 173 647 l 1
 173 0 l 1
 79 0 l 1
 79 729 l 1
 640 729 l 1
 640 0 l 1
 546 0 l 1
 546 647 l 1
EndSplineSet
EndChar

StartChar: afii10034
Encoding: 439 1056 333
Width: 667
Flags: MW
HStem: 0 21G<79 172 79 79> 309 82<172 366 172 366 366 401> 647 82<172 366 172 172>
VStem: 79 93<0 309 391 647> 508 97<481.5 559>
LayerCount: 2
Fore
SplineSet
172 309 m 1
 172 0 l 1
 79 0 l 1
 79 729 l 1
 380 729 l 2
 524 729 605 652 605 515 c 0
 605 448 586 401 542 361 c 0
 503 326 458 309 401 309 c 2
 172 309 l 1
172 391 m 1
 366 391 l 2
 455 391 508 439 508 519 c 0
 508 599 455 647 366 647 c 2
 172 647 l 1
 172 391 l 1
EndSplineSet
EndChar

StartChar: afii10036
Encoding: 441 1058 335
Width: 611
Flags: MW
HStem: 0 21G<261 354 261 261> 647 82<21 261 21 593 354 593 354 354>
VStem: 261 93<0 647 0 647>
LayerCount: 2
Fore
SplineSet
354 647 m 1
 354 0 l 1
 261 0 l 1
 261 647 l 1
 21 647 l 1
 21 729 l 1
 593 729 l 1
 593 647 l 1
 354 647 l 1
EndSplineSet
EndChar

StartChar: afii10037
Encoding: 442 1059 336
Width: 650
Flags: MW
HStem: 0 21G<139 252 139 139> 709 20G<26 139 139 139 508 619 619 619>
LayerCount: 2
Fore
SplineSet
252 0 m 1
 139 0 l 1
 265 247 l 1
 26 729 l 1
 139 729 l 1
 318 359 l 1
 508 729 l 1
 619 729 l 1
 252 0 l 1
EndSplineSet
EndChar

StartChar: afii10038
Encoding: 443 1060 337
Width: 936
Flags: MW
HStem: 0 21G<399 494 399 399> 94 82<370.5 399 370.5 399 494 522.5> 554 82<370.5 399 494 522.5> 709 20G<399 494 494 494>
VStem: 64 100<277.5 452.5 277.5 496.5> 399 95<0 94 0 94 176 554 636 729> 729 100<277.5 452.5>
LayerCount: 2
Fore
SplineSet
494 636 m 1
 583 636 829 628 829 365 c 0
 829 102 605 94 494 94 c 1
 494 0 l 1
 399 0 l 1
 399 94 l 1
 288 94 64 102 64 365 c 0
 64 628 310 636 399 636 c 1
 399 729 l 1
 494 729 l 1
 494 636 l 1
494 176 m 1
 551 176 729 190 729 365 c 0
 729 540 551 554 494 554 c 1
 494 176 l 1
399 176 m 1
 399 554 l 1
 342 554 164 540 164 365 c 0
 164 190 342 176 399 176 c 1
EndSplineSet
EndChar

StartChar: afii10039
Encoding: 444 1061 338
Width: 667
Flags: MW
HStem: 0 21G<22 135 22 22 534 641 534 534> 709 20G<38 151 151 151 526 630 630 630>
LayerCount: 2
Fore
SplineSet
385 374 m 1
 641 0 l 1
 534 0 l 1
 331 298 l 1
 135 0 l 1
 22 0 l 1
 280 374 l 1
 38 729 l 1
 151 729 l 1
 333 450 l 1
 526 729 l 1
 630 729 l 1
 385 374 l 1
EndSplineSet
EndChar

StartChar: afii10040
Encoding: 445 1062 339
Width: 741
Flags: W
HStem: 0 82<173 546 173 627> 709 20G<79 173 173 173 546 640 640 640>
VStem: 79 94<82 729 82 729 82 729> 546 94<82 729 74 729> 627 80<-135 0 0 0>
LayerCount: 2
Fore
SplineSet
546 82 m 1xf0
 546 729 l 1
 640 729 l 1
 640 74 l 1xf0
 707 74 l 1
 707 -135 l 1
 627 -135 l 1
 627 0 l 1xe8
 79 0 l 1
 79 729 l 1
 173 729 l 1
 173 82 l 1
 546 82 l 1xf0
EndSplineSet
EndChar

StartChar: afii10041
Encoding: 446 1063 340
Width: 648
Flags: MW
HStem: 0 21G<476 569 476 476> 260 82<201 476 268 476 268 476> 709 20G<79 172 172 172 476 569 569 569>
VStem: 79 93<452 729> 476 93<0 260 260 260 342 729 0 729>
LayerCount: 2
Fore
SplineSet
476 260 m 1
 264 260 l 2
 138 260 79 336 79 452 c 2
 79 729 l 1
 172 729 l 1
 172 434 l 2
 172 372 213 342 268 342 c 2
 476 342 l 1
 476 729 l 1
 569 729 l 1
 569 0 l 1
 476 0 l 1
 476 260 l 1
EndSplineSet
EndChar

StartChar: afii10042
Encoding: 447 1064 341
Width: 828
Flags: MW
HStem: 0 82<173 367 461 655> 709 20G<79 173 173 173 367 461 461 461 655 749 749 749>
VStem: 79 94<82 729 82 729 82 729> 367 94<82 729> 655 94<82 729 0 729>
LayerCount: 2
Fore
SplineSet
461 82 m 1
 655 82 l 1
 655 729 l 1
 749 729 l 1
 749 0 l 1
 79 0 l 1
 79 729 l 1
 173 729 l 1
 173 82 l 1
 367 82 l 1
 367 729 l 1
 461 729 l 1
 461 82 l 1
EndSplineSet
EndChar

StartChar: afii10043
Encoding: 448 1065 342
Width: 850
Flags: W
HStem: 0 82<173 367 461 655> 709 20G<79 173 173 173 367 461 461 461 655 749 749 749>
VStem: 79 94<82 729 82 729 82 729> 367 94<82 729 82 729> 655 94<82 729 74 729> 736 80<-135 0 0 0>
LayerCount: 2
Fore
SplineSet
736 0 m 1xf4
 79 0 l 1
 79 729 l 1
 173 729 l 1
 173 82 l 1
 367 82 l 1
 367 729 l 1
 461 729 l 1
 461 82 l 1
 655 82 l 1
 655 729 l 1
 749 729 l 1
 749 74 l 1xf8
 816 74 l 1
 816 -135 l 1
 736 -135 l 1
 736 0 l 1xf4
EndSplineSet
EndChar

StartChar: afii10044
Encoding: 449 1066 343
Width: 897
Flags: MW
HStem: 0 82<405 617 617 626> 369 82<405 617 405 626> 647 82<81 312 81 405>
VStem: 312 93<82 82 82 369 451 647 647 647> 763 93<184.5 267.5>
LayerCount: 2
Fore
SplineSet
312 0 m 1
 312 647 l 1
 81 647 l 1
 81 729 l 1
 405 729 l 1
 405 451 l 1
 626 451 l 2
 758 451 856 354 856 226 c 0
 856 93 758 0 626 0 c 2
 312 0 l 1
405 82 m 1
 617 82 l 2
 703 82 763 144 763 225 c 0
 763 310 704 369 617 369 c 2
 405 369 l 1
 405 82 l 1
EndSplineSet
EndChar

StartChar: afii10045
Encoding: 450 1067 344
Width: 872
Flags: MW
HStem: 0 82<172 384 384 393> 369 82<172 384 172 393> 709 20G<79 172 172 172 699 793 793 793>
VStem: 79 93<82 82 82 369 451 729> 530 93<184.5 267.5> 699 94<0 729 0 729>
LayerCount: 2
Fore
SplineSet
623 226 m 0
 623 93 525 0 393 0 c 2
 79 0 l 1
 79 729 l 1
 172 729 l 1
 172 451 l 1
 393 451 l 2
 525 451 623 354 623 226 c 0
172 82 m 1
 384 82 l 2
 470 82 530 144 530 225 c 0
 530 310 471 369 384 369 c 2
 172 369 l 1
 172 82 l 1
793 729 m 1
 793 0 l 1
 699 0 l 1
 699 729 l 1
 793 729 l 1
EndSplineSet
EndChar

StartChar: afii10048
Encoding: 453 1070 347
Width: 1032
Flags: MW
HStem: -23 82<548.5 673> 332 82<177 295 177 177> 659 82<548 704>
VStem: 83 94<0 332 0 729> 295 92<332 332> 865 93<293.5 447>
LayerCount: 2
Fore
SplineSet
295 332 m 1
 177 332 l 1
 177 0 l 1
 83 0 l 1
 83 729 l 1
 176 729 l 1
 176 414 l 1
 297 414 l 1
 318 611 433 741 625 741 c 0
 839 741 958 588 958 353 c 0
 958 234 911 121 832 54 c 0
 773 4 717 -23 629 -23 c 0
 427 -23 305 119 295 332 c 1
625 659 m 0
 471 659 387 539 387 359 c 0
 387 179 471 59 626 59 c 0
 780 59 865 179 865 355 c 0
 865 539 783 659 625 659 c 0
EndSplineSet
EndChar

StartChar: afii10049
Encoding: 454 1071 348
Width: 702
Flags: MW
HStem: 0 21G<32 142 32 32 530 530 530 623> 314 82<303 305 419 530 419 419> 647 82<294 303 303 530>
VStem: 79 93<503 538.5 503 549.5> 530 93<0 314 314 314 396 647 647 647>
LayerCount: 2
Fore
SplineSet
419 314 m 1
 142 0 l 1
 32 0 l 1
 305 314 l 1
 164 314 79 412 79 521 c 0
 79 578 99 630 135 668 c 0
 174 710 225 729 294 729 c 2
 623 729 l 1
 623 0 l 1
 530 0 l 1
 530 314 l 1
 419 314 l 1
530 647 m 1
 303 647 l 2
 258 647 228 636 206 612 c 0
 184 589 172 556 172 521 c 0
 172 485 184 454 206 431 c 0
 228 407 258 396 303 396 c 2
 530 396 l 1
 530 647 l 1
EndSplineSet
EndChar

StartChar: afii10066
Encoding: 456 1073 350
Width: 556
Flags: MW
HStem: -23 77<226.5 319 226.5 346.5> 462 77<251 320>
VStem: 36 87<194.5 321 194.5 350> 423 87<193.5 320>
LayerCount: 2
Fore
SplineSet
117 469 m 1
 155 530 230 539 272 539 c 0
 423 539 510 435 510 254 c 0
 510 82 420 -23 273 -23 c 0
 124 -23 36 82 36 258 c 0
 36 442 68 658 207 690 c 1
 340 716 l 1
 369 723 396 748 396 775 c 1
 470 775 l 1
 470 715 469 666 359 640 c 1
 224 611 l 1
 171 598 129 541 117 469 c 1
273 462 m 0
 180 462 123 384 123 258 c 0
 123 131 180 54 273 54 c 0
 365 54 423 132 423 255 c 0
 423 385 367 462 273 462 c 0
EndSplineSet
EndChar

StartChar: afii10067
Encoding: 457 1074 351
Width: 522
Flags: W
HStem: 0 76<154 286 286 302 154 313> 231 76<154 252 252 270.5 154 286 154 252> 449 75<154 252 154 154>
VStem: 70 84<76 76 76 231 307 449> 357 84<365 390.5> 377 91<142.5 168>
LayerCount: 2
Fore
SplineSet
70 0 m 1xf4
 70 524 l 1
 289 524 l 2
 340 524 374 513 401 488 c 0
 428 463 441 430 441 392 c 0xf8
 441 338 419 300 372 277 c 1
 439 251 468 213 468 150 c 0
 468 109 453 72 427 44 c 0
 399 14 363 0 313 0 c 2
 70 0 l 1xf4
154 307 m 1
 252 307 l 2
 289 307 310 312 328 325 c 0
 347 340 357 348 357 376 c 0
 357 405 347 415 328 430 c 0
 310 444 289 449 252 449 c 2
 154 449 l 1
 154 307 l 1
154 76 m 1
 286 76 l 2
 318 76 339 84 355 102 c 1
 371 118 377 130 377 155 c 0xf4
 377 181 378 196 355 211 c 0
 335 224 318 231 286 231 c 2
 154 231 l 1
 154 76 l 1
EndSplineSet
EndChar

StartChar: afii10069
Encoding: 459 1076 353
Width: 602
Flags: W
HStem: -120 184<30 87 30 100 30 87 508 572> 0 76<203 424 203 502> 448 76<252 424 252 252>
VStem: 30 70<-120 0 -120 64 -120 64> 169 83<321 448> 424 84<76 448 448 448> 502 70<-120 0 0 0>
LayerCount: 2
Fore
SplineSet
87 64 m 1xba
 136 69 169 199 169 321 c 2
 169 524 l 1
 508 524 l 1
 508 64 l 1xbc
 572 64 l 1
 572 -120 l 1
 502 -120 l 1xba
 502 0 l 1
 100 0 l 1x7a
 100 -120 l 1
 30 -120 l 1
 30 64 l 1
 87 64 l 1xba
203 76 m 1x7c
 424 76 l 1
 424 448 l 1
 252 448 l 1
 252 321 l 2
 252 237 238 140 203 76 c 1x7c
EndSplineSet
EndChar

StartChar: afii10072
Encoding: 462 1078 356
Width: 837
Flags: MW
HStem: 0 21G<44 150 44 44 375 458 375 375 683 789 683 683> 504 20G<76 183 183 183 375 458 458 458 650 757 757 757>
VStem: 375 83<0 226 0 226 323 524>
LayerCount: 2
Fore
SplineSet
458 524 m 1
 458 323 l 1
 650 524 l 1
 757 524 l 1
 515 274 l 1
 789 0 l 1
 683 0 l 1
 458 226 l 1
 458 0 l 1
 375 0 l 1
 375 226 l 1
 150 0 l 1
 44 0 l 1
 318 274 l 1
 76 524 l 1
 183 524 l 1
 375 323 l 1
 375 524 l 1
 458 524 l 1
EndSplineSet
EndChar

StartChar: afii10073
Encoding: 463 1079 357
Width: 500
Flags: W
HStem: -23 77<227.5 286.5 227.5 309> 221 76<192 254 192 254 254 281> 462 77<209 274>
VStem: 47 88<378 378> 351 87<364.5 407> 368 91<111.5 155>
LayerCount: 2
Fore
SplineSet
192 221 m 1xf4
 192 297 l 1
 254 297 l 2
 324 297 351 346 351 383 c 0
 351 431 308 462 240 462 c 0
 178 462 137 433 135 378 c 1
 47 378 l 1
 48 481 122 539 237 539 c 0
 359 539 438 476 438 379 c 0xf8
 438 326 419 293 373 267 c 1
 432 241 459 203 459 143 c 0
 459 42 375 -23 243 -23 c 0
 106 -23 38 35 34 156 c 1
 122 156 l 1
 127 119 133 104 146 89 c 0
 167 67 205 54 250 54 c 0
 323 54 368 87 368 136 c 0
 368 174 341 221 281 221 c 2
 192 221 l 1xf4
EndSplineSet
EndChar

StartChar: afii10074
Encoding: 464 1080 358
Width: 567
Flags: MW
HStem: 0 21G<70 179 70 70 414 497 414 414> 504 20G<70 154 154 154 389 497 497 497>
VStem: 70 84<111 524 111 524 111 524> 414 83<0 413 413 413>
LayerCount: 2
Fore
SplineSet
70 524 m 1
 154 524 l 1
 154 111 l 1
 389 524 l 1
 497 524 l 1
 497 0 l 1
 414 0 l 1
 414 413 l 1
 179 0 l 1
 70 0 l 1
 70 524 l 1
EndSplineSet
EndChar

StartChar: afii10075
Encoding: 465 1081 359
Width: 567
Flags: W
HStem: 0 21G<70 179 70 70 414 497 414 414> 504 20G<70 154 154 154 389 497 497 497> 564 69<255.5 311 255.5 328.5> 679 20G<133 192 192 192 375 434 434 434>
VStem: 70 84<111 524 111 524 111 524> 133 59<699 699> 375 59<699 699> 414 83<0 413 413 413>
LayerCount: 2
Fore
SplineSet
70 524 m 1xf9
 154 524 l 1
 154 111 l 1
 389 524 l 1
 497 524 l 1
 497 0 l 1
 414 0 l 1
 414 413 l 1
 179 0 l 1
 70 0 l 1
 70 524 l 1xf9
133 699 m 1xf4
 192 699 l 1xf4
 197 655 227 633 284 633 c 0
 338 633 371 657 375 699 c 1
 434 699 l 1
 427 610 375 564 282 564 c 0
 226 564 181 584 154 621 c 0xfa
 140 641 134 660 133 699 c 1xf4
EndSplineSet
EndChar

StartChar: afii10076
Encoding: 466 1082 360
Width: 510
Flags: MW
HStem: 0 21G<70 153 70 70 378 484 378 378> 504 20G<70 153 153 153 365 461 461 461>
VStem: 70 83<0 226 312 524>
LayerCount: 2
Fore
SplineSet
153 524 m 1
 153 312 l 1
 365 524 l 1
 461 524 l 1
 210 274 l 1
 484 0 l 1
 378 0 l 1
 153 226 l 1
 153 0 l 1
 70 0 l 1
 70 524 l 1
 153 524 l 1
EndSplineSet
EndChar

StartChar: afii10077
Encoding: 467 1083 361
Width: 557
Flags: MW
HStem: -10 80<70 95 70 133.5> 448 76<231 403 231 231>
VStem: 148 83<321 448> 403 84<0 448 448 448>
LayerCount: 2
Fore
SplineSet
148 524 m 1
 487 524 l 1
 487 0 l 1
 403 0 l 1
 403 448 l 1
 231 448 l 1
 231 321 l 2
 231 167 197 -10 70 -10 c 1
 70 70 l 1
 120 70 148 178 148 321 c 2
 148 524 l 1
EndSplineSet
EndChar

StartChar: afii10078
Encoding: 468 1084 362
Width: 618
Flags: MW
HStem: 0 21G<70 154 70 70 464 548 464 464> 504 20G<70 174 174 174 444 548 548 548>
VStem: 70 84<0 363 0 524> 464 84<0 363 363 363>
LayerCount: 2
Fore
SplineSet
70 524 m 1
 174 524 l 1
 309 198 l 1
 444 524 l 1
 548 524 l 1
 548 0 l 1
 464 0 l 1
 464 363 l 1
 334 40 l 1
 284 40 l 1
 154 363 l 1
 154 0 l 1
 70 0 l 1
 70 524 l 1
EndSplineSet
EndChar

StartChar: afii10079
Encoding: 469 1085 363
Width: 558
Flags: MW
HStem: 0 21G<70 154 70 70 404 488 404 404> 233 76<154 404 154 404> 504 20G<70 154 154 154 404 488 488 488>
VStem: 70 84<0 233 309 524> 404 84<0 233 233 233 309 524 0 524>
LayerCount: 2
Fore
SplineSet
70 524 m 1
 154 524 l 1
 154 309 l 1
 404 309 l 1
 404 524 l 1
 488 524 l 1
 488 0 l 1
 404 0 l 1
 404 233 l 1
 154 233 l 1
 154 0 l 1
 70 0 l 1
 70 524 l 1
EndSplineSet
EndChar

StartChar: afii10081
Encoding: 471 1087 365
Width: 557
Flags: MW
HStem: 0 21G<70 154 70 70 403 487 403 403> 448 76<154 403 154 154>
VStem: 70 84<0 448 0 524 0 524> 403 84<0 448 448 448>
LayerCount: 2
Fore
SplineSet
70 524 m 1
 487 524 l 1
 487 0 l 1
 403 0 l 1
 403 448 l 1
 154 448 l 1
 154 0 l 1
 70 0 l 1
 70 524 l 1
EndSplineSet
EndChar

StartChar: afii10085
Encoding: 475 1091 369
Width: 500
Flags: MW
HStem: -218 82<99 115.5 92 123.5> 504 20G<20 109 109 109 388 478 478 478>
VStem: 20 458<524 524>
LayerCount: 2
Fore
SplineSet
388 524 m 1
 478 524 l 1
 245 -110 l 2
 231 -148 214 -174 188 -193 c 0
 166 -209 137 -218 110 -218 c 0
 88 -218 71 -214 54 -205 c 1
 54 -130 l 1
 72 -134 86 -136 98 -136 c 0
 133 -136 152 -119 165 -85 c 2
 197 -2 l 1
 20 524 l 1
 109 524 l 1
 243 116 l 1
 388 524 l 1
EndSplineSet
EndChar

StartChar: afii10086
Encoding: 476 1092 370
Width: 912
Flags: MW
HStem: -23 78<235 301.5 607 671.5> 461 78<235 303.5 200 325.5 604.5 672>
VStem: 61 87<197 318.5 197 339> 412 83<-218 55 -218 60 -218 60 196.5 318 445 674> 763 87<195.5 317.5>
LayerCount: 2
Fore
SplineSet
495 445 m 1
 524 506 569 539 640 539 c 0
 779 539 850 429 850 253 c 0
 850 86 776 -23 641 -23 c 0
 573 -23 539 1 495 55 c 1
 495 -218 l 1
 412 -218 l 1
 412 60 l 1
 373 3 338 -23 265 -23 c 0
 127 -23 61 82 61 252 c 0
 61 426 131 539 269 539 c 0
 338 539 382 502 412 445 c 1
 412 674 l 1
 495 674 l 1
 495 445 l 1
626 461 m 0
 538 461 495 381 495 258 c 0
 495 135 538 55 626 55 c 0
 717 55 763 136 763 255 c 0
 763 380 718 461 626 461 c 0
281 461 m 0
 189 461 148 379 148 258 c 0
 148 136 189 55 281 55 c 0
 369 55 412 135 412 255 c 0
 412 381 370 461 281 461 c 0
EndSplineSet
EndChar

StartChar: afii10087
Encoding: 477 1093 371
Width: 500
Flags: MW
HStem: 0 21G<17 112 17 17 376 473 376 376> 504 20G<27 122 122 122 374 468 468 468>
VStem: 17 456<0 0>
LayerCount: 2
Fore
SplineSet
292 271 m 1
 473 0 l 1
 376 0 l 1
 245 201 l 1
 112 0 l 1
 17 0 l 1
 202 267 l 1
 27 524 l 1
 122 524 l 1
 248 334 l 1
 374 524 l 1
 468 524 l 1
 292 271 l 1
EndSplineSet
EndChar

StartChar: afii10088
Encoding: 478 1094 372
Width: 578
Flags: W
HStem: 0 76<154 403 154 478> 504 20G<70 154 154 154 403 487 487 487>
VStem: 70 84<76 524 76 524 76 524> 403 84<76 524 64 524> 478 70<-120 0 0 0>
LayerCount: 2
Fore
SplineSet
70 0 m 1xe8
 70 524 l 1
 154 524 l 1
 154 76 l 1
 403 76 l 1
 403 524 l 1
 487 524 l 1
 487 64 l 1xf0
 548 64 l 1
 548 -120 l 1
 478 -120 l 1
 478 0 l 1
 70 0 l 1xe8
EndSplineSet
EndChar

StartChar: afii10089
Encoding: 479 1095 373
Width: 520
Flags: MW
HStem: 0 21G<366 450 366 366> 191 76<222 225 225 366> 504 20G<70 154 154 154 366 450 450 450>
VStem: 70 84<334 337 337 524> 366 84<0 191 191 191 267 524 0 524>
LayerCount: 2
Fore
SplineSet
70 524 m 1
 154 524 l 1
 154 337 l 2
 154 288 182 267 222 267 c 2
 366 267 l 1
 366 524 l 1
 450 524 l 1
 450 0 l 1
 366 0 l 1
 366 191 l 1
 225 191 l 2
 144 191 70 240 70 334 c 2
 70 524 l 1
EndSplineSet
EndChar

StartChar: afii10090
Encoding: 480 1096 374
Width: 692
Flags: MW
HStem: 0 76<154 304 388 538> 504 20G<70 154 154 154 304 388 388 388 538 622 622 622>
VStem: 70 84<76 524 76 524 76 524> 304 84<76 524> 538 84<76 524 0 524>
LayerCount: 2
Fore
SplineSet
388 76 m 1
 538 76 l 1
 538 524 l 1
 622 524 l 1
 622 0 l 1
 70 0 l 1
 70 524 l 1
 154 524 l 1
 154 76 l 1
 304 76 l 1
 304 524 l 1
 388 524 l 1
 388 76 l 1
EndSplineSet
EndChar

StartChar: afii10091
Encoding: 481 1097 375
Width: 712
Flags: W
HStem: 0 76<154 304 388 538> 504 20G<70 154 154 154 304 388 388 388 538 622 622 622>
VStem: 70 84<76 524 76 524 76 524> 304 84<76 524 76 524> 538 84<76 524 64 524> 612 70<-120 0 0 0>
LayerCount: 2
Fore
SplineSet
612 0 m 1xf4
 70 0 l 1
 70 524 l 1
 154 524 l 1
 154 76 l 1
 304 76 l 1
 304 524 l 1
 388 524 l 1
 388 76 l 1
 538 76 l 1
 538 524 l 1
 622 524 l 1
 622 64 l 1xf8
 682 64 l 1
 682 -120 l 1
 612 -120 l 1
 612 0 l 1xf4
EndSplineSet
EndChar

StartChar: afii10092
Encoding: 482 1098 376
Width: 734
Flags: MW
HStem: 0 76<324 448 448 486> 265 76<324 448 324 486> 448 76<57 240 57 324>
VStem: 240 84<76 76 76 265 341 448 448 448> 562 91<141 200>
LayerCount: 2
Fore
SplineSet
240 0 m 1
 240 448 l 1
 57 448 l 1
 57 524 l 1
 324 524 l 1
 324 341 l 1
 486 341 l 2
 583 341 653 275 653 167 c 0
 653 69 583 0 486 0 c 2
 240 0 l 1
324 76 m 1
 448 76 l 2
 544 76 562 118 562 164 c 0
 562 236 524 265 448 265 c 2
 324 265 l 1
 324 76 l 1
EndSplineSet
EndChar

StartChar: afii10093
Encoding: 483 1099 377
Width: 690
Flags: MW
HStem: 0 76<154 278 278 316> 265 76<154 278 154 316> 504 20G<70 154 154 154 537 620 620 620>
VStem: 70 84<76 76 76 265 341 524> 392 91<141 200> 537 83<0 524 0 524>
LayerCount: 2
Fore
SplineSet
154 524 m 1
 154 341 l 1
 316 341 l 2
 414 341 483 275 483 167 c 0
 483 69 413 0 316 0 c 2
 70 0 l 1
 70 524 l 1
 154 524 l 1
154 76 m 1
 278 76 l 2
 374 76 392 118 392 164 c 0
 392 236 354 265 278 265 c 2
 154 265 l 1
 154 76 l 1
620 524 m 1
 620 0 l 1
 537 0 l 1
 537 524 l 1
 620 524 l 1
EndSplineSet
EndChar

StartChar: afii10095
Encoding: 485 1101 379
Width: 500
Flags: MW
HStem: -23 77<207.5 286.5 207.5 316> 232 77<163 387 163 387 163 390> 462 77<210 283.5>
VStem: 37 84<348 348>
LayerCount: 2
Fore
SplineSet
163 232 m 1
 163 309 l 1
 387 309 l 1
 373 406 322 462 245 462 c 0
 175 462 131 421 121 348 c 1
 37 348 l 1
 41 399 52 432 72 461 c 1
 108 510 171 539 244 539 c 0
 385 539 477 427 477 253 c 0
 477 84 387 -23 245 -23 c 0
 120 -23 41 52 31 180 c 1
 115 180 l 1
 129 96 172 54 243 54 c 0
 330 54 384 120 390 232 c 1
 163 232 l 1
EndSplineSet
EndChar

StartChar: afii10096
Encoding: 486 1102 380
Width: 758
Flags: MW
HStem: -23 77<437.5 530 437.5 557.5> 233 76<154 248 154 250> 462 77<437.5 531>
VStem: 70 84<0 233 0 309 309 524> 250 84<309 321 194.5 333> 634 87<193.5 320>
LayerCount: 2
Fore
SplineSet
250 309 m 1
 250 357 288 539 483 539 c 0
 634 539 721 435 721 254 c 0
 721 82 631 -23 484 -23 c 0
 290 -23 248 149 248 233 c 1
 154 233 l 1
 154 0 l 1
 70 0 l 1
 70 524 l 1
 154 524 l 1
 154 309 l 1
 250 309 l 1
484 462 m 0
 391 462 334 384 334 258 c 0
 334 131 391 54 484 54 c 0
 576 54 634 132 634 255 c 0
 634 385 578 462 484 462 c 0
EndSplineSet
EndChar

StartChar: afii10097
Encoding: 487 1103 381
Width: 543
Flags: MW
HStem: 0 21G<14 117 14 14 389 473 389 389> 218 76<320 389 320 320> 449 75<236 252 252 389>
VStem: 70 91<357 382.5 357 397.5> 389 84<0 218 218 218 294 449 449 449>
LayerCount: 2
Fore
SplineSet
219 221 m 1
 136 228 70 274 70 375 c 0
 70 420 85 453 111 481 c 0
 139 511 175 524 225 524 c 2
 473 524 l 1
 473 0 l 1
 389 0 l 1
 389 218 l 1
 320 218 l 1
 117 0 l 1
 14 0 l 1
 219 221 l 1
389 449 m 1
 252 449 l 2
 220 449 199 441 183 423 c 1
 167 407 161 395 161 370 c 0
 161 344 160 329 183 314 c 0
 203 301 220 294 252 294 c 2
 389 294 l 1
 389 449 l 1
EndSplineSet
EndChar

StartChar: uni0450
Encoding: 503 1104 397
Width: 556
Flags: MW
HStem: -23 77<254.5 314.5 254.5 338> 234 68<129 423 129 513 127 423> 462 77<237 320> 720 20G<138 251 251 251>
VStem: 424 89<234 351>
LayerCount: 2
Fore
SplineSet
251 740 m 1
 347 592 l 1
 287 592 l 1
 138 740 l 1
 251 740 l 1
513 234 m 1
 127 234 l 1
 128 182 135 152 155 122 c 0
 183 78 228 54 281 54 c 0
 348 54 395 90 418 159 c 1
 502 159 l 1
 481 45 398 -23 278 -23 c 0
 131 -23 40 83 40 255 c 0
 40 427 134 539 280 539 c 0
 378 539 458 487 492 401 c 0
 507 362 513 314 513 234 c 1
129 302 m 1
 423 302 l 1
 424 304 424 306 424 308 c 0
 424 394 361 462 279 462 c 0
 195 462 136 399 129 302 c 1
EndSplineSet
EndChar

StartChar: afii10099
Encoding: 504 1106 398
Width: 582
Flags: MW
HStem: 0 21G<96 179 96 96 512 512> 427 73<310 334.5> 588 70<15 96 15 96 179 369> 709 20G<96 179 179 179>
VStem: 96 83<0 250 413 588 658 729> 429 83<33 324 324 342.5>
LayerCount: 2
Fore
SplineSet
321 -143 m 1
 321 -70 l 1
 348 -70 375 -61 395 -46 c 0
 419 -29 429 -4 429 33 c 2
 429 324 l 2
 429 361 419 386 395 403 c 0
 375 418 348 427 321 427 c 0
 235 427 179 357 179 250 c 2
 179 0 l 1
 96 0 l 1
 96 588 l 1
 15 588 l 1
 15 658 l 1
 96 658 l 1
 96 729 l 1
 179 729 l 1
 179 658 l 1
 369 658 l 1
 369 588 l 1
 179 588 l 1
 179 413 l 1
 228 477 273 500 347 500 c 0
 449 500 512 445 512 357 c 2
 512 0 l 2
 512 -88 449 -143 347 -143 c 2
 321 -143 l 1
EndSplineSet
EndChar

StartChar: afii10100
Encoding: 505 1107 399
Width: 430
Flags: MW
HStem: 0 21G<70 154 70 70> 448 76<154 365 154 154>
VStem: 70 84<0 448 0 524 0 524>
LayerCount: 2
Fore
SplineSet
70 524 m 1
 365 524 l 1
 365 448 l 1
 154 448 l 1
 154 0 l 1
 70 0 l 1
 70 524 l 1
209 712 m 1
 322 712 l 1
 173 564 l 1
 113 564 l 1
 209 712 l 1
EndSplineSet
EndChar

StartChar: afii10101
Encoding: 506 1108 400
Width: 500
Flags: MW
HStem: -23 77<221.5 300.5 221.5 325.5> 232 77<121 344 121 344 118 344> 462 77<224.5 298>
VStem: 387 84<348 348>
LayerCount: 2
Fore
SplineSet
344 232 m 1
 118 232 l 1
 124 120 178 54 265 54 c 0
 336 54 379 96 393 180 c 1
 477 180 l 1
 467 52 388 -23 263 -23 c 0
 121 -23 31 84 31 253 c 0
 31 427 123 539 264 539 c 0
 337 539 400 510 436 461 c 1
 456 432 467 399 471 348 c 1
 387 348 l 1
 377 421 333 462 263 462 c 0
 186 462 135 406 121 309 c 1
 344 309 l 1
 344 232 l 1
EndSplineSet
EndChar

StartChar: afii10102
Encoding: 507 1109 401
Width: 500
Flags: W
HStem: -23 77<227.5 286.5 227.5 309> 462 77<211 278.5>
VStem: 47 87<364.5 407 364.5 427.5> 350 88<378 378> 372 87<111.5 155>
LayerCount: 2
Fore
SplineSet
438 378 m 1xf0
 350 378 l 1xf0
 348 433 312 462 245 462 c 0
 177 462 134 431 134 383 c 0
 134 346 163 324 231 308 c 2
 311 289 l 2
 415 264 459 221 459 143 c 0
 459 42 375 -23 243 -23 c 0
 106 -23 38 35 34 156 c 1
 122 156 l 1
 127 119 133 104 146 89 c 0
 167 67 205 54 250 54 c 0
 323 54 372 87 372 136 c 0xe8
 372 174 349 195 291 209 c 2
 213 228 l 2
 89 258 47 297 47 379 c 0
 47 476 126 539 248 539 c 0
 369 539 437 481 438 378 c 1xf0
EndSplineSet
EndChar

StartChar: afii10103
Encoding: 508 1110 402
Width: 222
Flags: MW
HStem: 0 21G<67 150 67 67> 504 20G<67 150 150 150> 624 105<66 150 66 150>
VStem: 67 83<0 524 0 524>
LayerCount: 2
Fore
SplineSet
150 524 m 1
 150 0 l 1
 67 0 l 1
 67 524 l 1
 150 524 l 1
150 729 m 1
 150 624 l 1
 66 624 l 1
 66 729 l 1
 150 729 l 1
EndSplineSet
EndChar

StartChar: afii10104
Encoding: 509 1111 403
Width: 278
Flags: W
HStem: 0 21G<94 178 94 94> 504 20G<94 178 178 178> 605 103<3 107 3 107 3 165 165 269>
VStem: 3 104<605 708 605 708> 94 84<0 524 0 524> 165 104<605 708 605 708>
LayerCount: 2
Fore
SplineSet
107 708 m 1xf0
 107 605 l 1
 3 605 l 1
 3 708 l 1
 107 708 l 1xf0
269 708 m 1xe4
 269 605 l 1
 165 605 l 1
 165 708 l 1
 269 708 l 1xe4
178 524 m 1xe8
 178 0 l 1
 94 0 l 1
 94 524 l 1
 178 524 l 1xe8
EndSplineSet
EndChar

StartChar: afii10106
Encoding: 511 1113 405
Width: 884
Flags: W
HStem: 0 76<486 610 610 648> 0 80<70 110 70 153> 265 76<486 599 599 610 486 599> 448 76<231 403 231 231>
VStem: 148 83<448 448 448 524> 403 83<76 76 76 265 341 448 448 448> 724 91<141 200>
LayerCount: 2
Fore
SplineSet
403 0 m 1x7e
 403 448 l 1
 231 448 l 1
 232 292 236 0 70 0 c 1
 70 80 l 1x7e
 150 80 148 292 148 524 c 1
 486 524 l 1
 486 341 l 1
 599 341 l 2
 749 341 815 275 815 167 c 0
 815 69 745 0 648 0 c 2xbe
 403 0 l 1x7e
486 76 m 1xbe
 610 76 l 2
 706 76 724 118 724 164 c 0
 724 236 686 265 610 265 c 2
 486 265 l 1
 486 76 l 1xbe
EndSplineSet
EndChar

StartChar: afii10107
Encoding: 512 1114 406
Width: 885
Flags: W
HStem: 0 76<487 611 611 649> 233 76<154 404 154 404> 265 76<487 600 600 611 487 600> 504 20G<70 154 154 154 404 487 487 487>
VStem: 70 84<0 233 0 309 309 524> 404 83<76 76 76 233 233 233 341 524> 725 91<141 200>
LayerCount: 2
Fore
SplineSet
404 0 m 1xbe
 404 233 l 1
 154 233 l 1
 154 0 l 1
 70 0 l 1
 70 524 l 1
 154 524 l 1
 154 309 l 1
 404 309 l 1xde
 404 524 l 1
 487 524 l 1
 487 341 l 1
 600 341 l 2
 750 341 816 275 816 167 c 0
 816 69 746 0 649 0 c 2
 404 0 l 1xbe
487 76 m 1
 611 76 l 2
 707 76 725 118 725 164 c 0
 725 236 687 265 611 265 c 2
 487 265 l 1xbe
 487 76 l 1
EndSplineSet
EndChar

StartChar: afii10109
Encoding: 514 1116 408
Width: 500
Flags: MW
HStem: 0 21G<58 141 58 58 399 502 399 399> 504 20G<58 141 141 141 363 470 470 470>
VStem: 58 83<0 216 302 524>
LayerCount: 2
Fore
SplineSet
141 524 m 1
 141 302 l 1
 363 524 l 1
 470 524 l 1
 198 264 l 1
 502 0 l 1
 399 0 l 1
 141 216 l 1
 141 0 l 1
 58 0 l 1
 58 524 l 1
 141 524 l 1
255 712 m 1
 368 712 l 1
 219 564 l 1
 159 564 l 1
 255 712 l 1
EndSplineSet
EndChar

StartChar: uni045D
Encoding: 515 1117 409
Width: 556
Flags: MW
HStem: 0 21G<70 169 70 70 404 487 404 404> 504 20G<70 154 154 154 389 487 487 487>
VStem: 70 84<111 524 111 524 111 524> 404 83<0 413 413 413>
LayerCount: 2
Fore
SplineSet
70 524 m 1
 154 524 l 1
 154 111 l 1
 389 524 l 1
 487 524 l 1
 487 0 l 1
 404 0 l 1
 404 413 l 1
 169 0 l 1
 70 0 l 1
 70 524 l 1
287 712 m 1
 383 564 l 1
 323 564 l 1
 174 712 l 1
 287 712 l 1
EndSplineSet
EndChar

StartChar: afii10110
Encoding: 516 1118 410
Width: 500
Flags: MW
HStem: -218 82<99 115.5 92 123.5> 504 20G<20 109 109 109 388 478 478 478> 564 69<220.5 276 220.5 293.5> 679 20G<98 157 157 157 340 399 399 399>
VStem: 98 59<699 699> 340 59<699 699>
LayerCount: 2
Fore
SplineSet
98 699 m 1
 157 699 l 1
 162 655 192 633 249 633 c 0
 303 633 336 657 340 699 c 1
 399 699 l 1
 392 610 340 564 247 564 c 0
 191 564 146 584 119 621 c 0
 105 641 99 660 98 699 c 1
388 524 m 1
 478 524 l 1
 245 -110 l 2
 229 -152 214 -174 188 -193 c 0
 166 -209 137 -218 110 -218 c 0
 88 -218 71 -214 54 -205 c 1
 54 -130 l 1
 72 -134 86 -136 98 -136 c 0
 133 -136 152 -122 165 -85 c 1
 197 -2 l 1
 20 524 l 1
 109 524 l 1
 243 116 l 1
 388 524 l 1
EndSplineSet
EndChar

StartChar: afii10193
Encoding: 517 1119 411
Width: 556
Flags: MW
HStem: 0 76<154 244 314 404 154 488 314 314> 504 20G<70 154 154 154 404 488 488 488>
VStem: 70 84<76 524 76 524 76 524> 244 70<-120 0 -120 0> 404 84<76 524 0 524>
LayerCount: 2
Fore
SplineSet
314 0 m 1
 314 -120 l 1
 244 -120 l 1
 244 0 l 1
 70 0 l 1
 70 524 l 1
 154 524 l 1
 154 76 l 1
 404 76 l 1
 404 524 l 1
 488 524 l 1
 488 0 l 1
 314 0 l 1
EndSplineSet
EndChar

StartChar: uni048C
Encoding: 518 1164 412
Width: 667
Flags: MW
HStem: 0 82<172 399 399 408> 333 82<172 352 352 399 172 352> 539 70<-10 79 -10 79 172 264> 709 20G<79 172 172 172>
VStem: 79 93<82 82 82 333 415 539 609 729> 530 93<189.5 208 179.5 225>
LayerCount: 2
Fore
SplineSet
172 82 m 1
 399 82 l 2
 444 82 474 93 496 117 c 0
 518 140 530 172 530 207 c 0
 530 243 518 275 496 298 c 0
 474 322 444 333 399 333 c 2
 172 333 l 1
 172 82 l 1
172 609 m 1
 264 609 l 1
 264 539 l 1
 172 539 l 1
 172 415 l 1
 352 415 l 2
 530 415 607 338 623 208 c 1
 623 151 603 99 567 61 c 0
 528 19 477 0 408 0 c 2
 79 0 l 1
 79 539 l 1
 -10 539 l 1
 -10 609 l 1
 79 609 l 1
 79 729 l 1
 172 729 l 1
 172 609 l 1
EndSplineSet
EndChar

StartChar: uni048D
Encoding: 519 1165 413
Width: 552
Flags: MW
HStem: 0 76<154 306 306 322 154 333> 231 76<154 272 272 306 154 272> 382 70<8 70 8 70 154 226> 504 20G<70 154 154 154>
VStem: 70 84<76 76 76 231 307 382 452 524> 397 91<138.5 160>
LayerCount: 2
Fore
SplineSet
154 76 m 1
 306 76 l 2
 338 76 359 84 375 102 c 1
 391 118 397 130 397 147 c 0
 397 173 398 196 375 211 c 0
 355 224 338 231 306 231 c 2
 154 231 l 1
 154 76 l 1
70 452 m 1
 70 524 l 1
 154 524 l 1
 154 452 l 1
 226 452 l 1
 226 382 l 1
 154 382 l 1
 154 307 l 1
 272 307 l 2
 422 307 488 258 488 150 c 0
 488 105 473 72 447 44 c 0
 419 14 383 0 333 0 c 2
 70 0 l 1
 70 382 l 1
 8 382 l 1
 8 452 l 1
 70 452 l 1
EndSplineSet
EndChar
